<svg width="112" height="112" viewBox="0 0 112 112" fill="none" xmlns="http://www.w3.org/2000/svg">
<path d="M29.0332 69.0871C28.7987 68.1789 27.8036 67.7805 27.0843 68.3308C25.7914 69.3268 24.5301 70.0695 23.3101 70.5624C21.5926 71.2545 19.7482 71.6023 17.7803 71.6023C14.5322 71.6023 12.0319 70.7582 10.289 69.0668C8.54296 67.3754 7.67151 65.2147 7.67151 62.5847C7.67151 61.0418 8.00108 59.6306 8.66021 58.3578C9.31934 57.0816 10.1813 56.0587 11.2492 55.2856C12.3171 54.5124 13.5182 53.9317 14.8554 53.5334C15.8378 53.2565 17.324 52.9898 19.3109 52.7332C22.7746 52.2943 25.4586 51.7812 27.3568 51.1937C27.8892 51.0283 28.2599 50.5117 28.2726 49.9209C28.2758 49.7251 28.279 49.5867 28.279 49.4955C28.279 47.3213 27.8068 45.7852 26.8593 44.8973C25.579 43.692 23.6745 43.0877 21.1489 43.0877C18.7912 43.0877 17.0483 43.5266 15.9265 44.4078C14.9885 45.1437 14.2565 46.349 13.7241 48.0269C13.5308 48.638 12.9573 49.0128 12.3583 48.9284L9.93728 48.5772C9.17041 48.4658 8.66655 47.6488 8.89471 46.8622C9.33836 45.3092 9.94996 44.0094 10.7327 42.9594C11.7531 41.5853 13.2298 40.5252 15.1597 39.7859C17.0895 39.0431 19.3268 38.6718 21.8714 38.6718C24.4161 38.6718 26.4473 38.9891 28.0254 39.6204C29.6036 40.2551 30.7634 41.0485 31.5081 42.0107C32.2496 42.9695 32.7693 44.1816 33.0672 45.6468C33.2351 46.5583 33.3175 48.1991 33.3175 50.5725V57.6927C33.3175 62.659 33.4253 65.7987 33.6376 67.1154C33.7453 67.7805 33.907 68.4321 34.1224 69.0702C34.4235 69.9581 33.8277 70.8967 32.9404 70.8967H30.494C29.9807 70.8967 29.5053 70.5692 29.3215 70.056C29.2106 69.7488 29.1124 69.4247 29.0268 69.0938L29.0332 69.0871ZM28.2536 56.9669C28.2536 56.0688 27.4455 55.4172 26.6343 55.6738C24.9389 56.2106 22.7492 56.6866 20.0651 57.0951C18.0053 57.4125 16.5476 57.767 15.692 58.162C14.8364 58.557 14.1773 59.1377 13.7146 59.8973C13.2488 60.6603 13.0175 61.5043 13.0175 62.4328C13.0175 63.8575 13.5245 65.0425 14.5354 65.9946C15.5463 66.9432 17.0293 67.4193 18.9782 67.4193C20.9271 67.4193 22.6256 66.9702 24.1309 66.0688C25.6361 65.1674 26.7389 63.9385 27.4455 62.3754C27.9843 61.1701 28.2536 59.3875 28.2536 57.0344V56.9669Z" fill="#127398"/>
<path d="M46.2783 69.934L38.0011 41.1156C37.7508 40.2479 38.3592 39.3735 39.2117 39.3735H41.7183C42.2887 39.3735 42.7862 39.7786 42.9383 40.3627L47.3906 57.5639L49.1462 64.3296C49.2191 63.992 49.7325 61.828 50.6768 57.8306L55.1291 40.3694C55.2781 39.782 55.7787 39.3735 56.3492 39.3735H59.5529C60.1297 39.3735 60.6335 39.7888 60.7793 40.3829L64.9623 57.6517L66.439 63.6747L68.1375 57.5909L72.9384 40.3357C73.0969 39.7617 73.5912 39.3701 74.1521 39.3701H76.3608C77.2133 39.3701 77.8217 40.2513 77.5682 41.1189L69.1135 69.9374C68.9488 70.5012 68.4607 70.8827 67.9062 70.8827H64.601C64.0274 70.8827 63.5267 70.4708 63.3778 69.88L58.9191 52.0102L57.7783 46.6389L52.0394 69.8766C51.8937 70.4674 51.3898 70.8827 50.8162 70.8827H47.492C46.9375 70.8827 46.4463 70.4944 46.2815 69.9306L46.2783 69.934Z" fill="#127398"/>
<path d="M81.6118 61.2608L84.0424 60.8523C84.6888 60.7443 85.2972 61.1832 85.4652 61.8584C85.8455 63.3945 86.5458 64.6167 87.5662 65.5181C88.8369 66.6457 90.6147 67.2095 92.8995 67.2095C95.1842 67.2095 96.9113 66.7098 98.0236 65.7105C99.1391 64.7112 99.6936 63.5397 99.6936 62.1926C99.6936 60.9873 99.2024 60.0353 98.2169 59.3432C97.5292 58.8672 95.8212 58.2662 93.0928 57.5336C89.4168 56.5444 86.869 55.6902 85.4462 54.9678C84.0265 54.2453 82.9491 53.2459 82.2139 51.9698C81.4787 50.6936 81.1143 49.2858 81.1143 47.7429C81.1143 46.3384 81.4153 45.0386 82.0206 43.8401C82.6227 42.645 83.4466 41.649 84.486 40.859C85.2656 40.2446 86.3271 39.728 87.6739 39.3026C89.0207 38.8772 90.4626 38.6646 92.0058 38.6646C94.3255 38.6646 96.3631 39.019 98.1187 39.7314C99.8742 40.4438 101.167 41.4093 102.004 42.6247C102.622 43.5261 103.1 44.6538 103.433 46.0042C103.626 46.7942 103.145 47.591 102.384 47.699L99.9757 48.0501C99.3545 48.1413 98.7778 47.726 98.5908 47.0879C98.2676 45.9941 97.7004 45.1062 96.8955 44.4174C95.8275 43.5093 94.3191 43.0535 92.3703 43.0535C90.0665 43.0535 88.425 43.4586 87.4394 44.2689C86.4539 45.0791 85.9627 46.0312 85.9627 47.1183C85.9627 47.8104 86.1655 48.435 86.5743 48.9887C86.9831 49.5626 87.6232 50.0386 88.4947 50.4134C88.9954 50.6126 90.4721 51.065 92.9216 51.7773C96.4677 52.7868 98.9426 53.6139 100.343 54.2554C101.744 54.8969 102.847 55.832 103.645 57.0609C104.444 58.2865 104.843 59.8125 104.843 61.6322C104.843 63.4519 104.355 65.0893 103.382 66.6626C102.409 68.2358 101.002 69.4512 99.1612 70.3121C97.3201 71.173 95.2445 71.6018 92.9216 71.6018C89.0778 71.6018 86.1497 70.751 84.1342 69.0495C82.4262 67.6045 81.241 65.5721 80.5787 62.9455C80.3854 62.169 80.8608 61.3824 81.6055 61.2608H81.6118Z" fill="#127398"/>
<path d="M-0.00012207 21.0534V5.06851C-0.00012207 4.82682 0.182622 4.63548 0.406325 4.63548H1.35785C1.58471 4.63548 1.7643 4.83018 1.7643 5.06851C1.7643 5.44782 2.1865 5.64251 2.44801 5.38404C2.67802 5.15914 2.92063 4.97452 3.17584 4.82346C3.69886 4.51464 4.33532 4.36023 5.08205 4.36023C6.05878 4.36023 6.91894 4.62877 7.66567 5.16249C8.41239 5.69958 8.97638 6.45484 9.35762 7.4283C9.73886 8.40512 9.92791 9.47257 9.92791 10.634C9.92791 11.8794 9.71681 13.0039 9.29776 14.0008C8.87871 14.9978 8.26746 15.7631 7.46717 16.2969C6.66688 16.8272 5.82562 17.0958 4.94026 17.0958C4.29436 17.0958 3.71462 16.9514 3.20105 16.6594C2.98049 16.5352 2.77569 16.3942 2.5898 16.2398C2.32198 16.0216 1.93759 16.223 1.93759 16.5855V21.0534C1.93759 21.2951 1.75485 21.4864 1.53114 21.4864H0.406325C0.179471 21.4864 -0.00012207 21.2917 -0.00012207 21.0534ZM1.75485 10.7951C1.75485 12.3627 2.05417 13.5208 2.64966 14.2727C3.24516 15.0213 3.96668 15.3972 4.81423 15.3972C5.66179 15.3972 6.41482 15.0079 7.02606 14.2324C7.64046 13.457 7.94608 12.252 7.94608 10.6239C7.94608 8.99591 7.64676 7.90832 7.04812 7.13627C6.44947 6.36421 5.7311 5.97819 4.8993 5.97819C4.0675 5.97819 3.34283 6.39107 2.70638 7.21012C2.06992 8.03252 1.75485 9.22753 1.75485 10.7951Z" fill="#127398"/>
<path d="M11.5444 10.728C11.5444 8.47226 12.1336 6.80059 13.312 5.713C14.295 4.81003 15.4955 4.36023 16.9102 4.36023C18.4824 4.36023 19.7679 4.91074 20.7667 6.00504C21.7655 7.1027 22.2633 8.61995 22.2633 10.5534C22.2633 12.121 22.0427 13.3563 21.6016 14.2526C21.1605 15.1522 20.5178 15.8504 19.6734 16.3472C18.829 16.844 17.909 17.0924 16.9102 17.0924C15.3096 17.0924 14.0146 16.5453 13.0284 15.451C12.0423 14.3566 11.5476 12.7823 11.5476 10.7246L11.5444 10.728ZM13.5357 10.728C13.5357 12.2889 13.8539 13.457 14.4935 14.2324C15.1331 15.0079 15.9366 15.3972 16.907 15.3972C17.8775 15.3972 18.6683 15.0079 19.3079 14.2257C19.9475 13.447 20.2657 12.2553 20.2657 10.6575C20.2657 9.15032 19.9443 8.00902 19.3016 7.23361C18.6588 6.4582 17.8617 6.06882 16.907 6.06882C15.9523 6.06882 15.1331 6.45485 14.4935 7.2269C13.8539 7.99895 13.5357 9.1671 13.5357 10.7246V10.728Z" fill="#127398"/>
<path d="M26.5294 16.4282L23.3314 5.29721C23.2368 4.96824 23.4668 4.63593 23.7882 4.63593H24.7776C24.9918 4.63593 25.1809 4.79034 25.2407 5.01188L26.9642 11.6717L27.6416 14.2866C27.67 14.1557 27.8685 13.3199 28.2339 11.7724L29.9511 5.04209C30.011 4.80041 30.2158 4.63593 30.4489 4.63593H31.6462C31.8825 4.63593 32.0873 4.80712 32.1472 5.04881L33.7604 11.7019L34.3307 14.0315L34.986 11.6784L36.845 5.00181C36.9048 4.78362 37.0939 4.63257 37.3081 4.63257H38.1746C38.4991 4.63257 38.7323 4.96824 38.6346 5.30056L35.3641 16.4483C35.3011 16.6665 35.1089 16.8176 34.8915 16.8176H33.6217C33.398 16.8176 33.2027 16.6565 33.1428 16.4249L31.4194 9.52L30.9782 7.44217L28.7664 16.4014C28.7066 16.6464 28.4986 16.8142 28.2623 16.8142H27.0241C26.794 16.8142 26.5924 16.6531 26.5262 16.4215L26.5294 16.4282Z" fill="#127398"/>
<path d="M48.6849 12.9468L49.6711 13.0777C50.0019 13.1214 50.213 13.4839 50.0933 13.8129C49.7562 14.7494 49.2363 15.4979 48.5368 16.0619C47.683 16.75 46.5897 17.0958 45.2632 17.0958C43.5901 17.0958 42.2637 16.5486 41.2838 15.451C40.3039 14.3533 39.8124 12.8125 39.8124 10.8321C39.8124 8.85157 40.307 7.18997 41.2995 6.05875C42.2889 4.92752 43.5744 4.36023 45.1561 4.36023C46.7377 4.36023 47.935 4.91409 48.9023 6.02518C49.8727 7.13291 50.3548 8.6938 50.3548 10.7079C50.3548 11.0133 50.1216 11.2584 49.8381 11.2584H42.3865C42.0746 11.2584 41.8289 11.5538 41.873 11.8827C42.0116 12.92 42.3456 13.7356 42.8812 14.3332C43.5208 15.0448 44.318 15.4006 45.2726 15.4006C45.9847 15.4006 46.5897 15.2026 47.0938 14.8031C47.5223 14.4641 47.8752 13.9538 48.1524 13.2724C48.2406 13.0509 48.4612 12.9233 48.6849 12.9502V12.9468ZM42.5126 9.55649H47.7208C48.039 9.55649 48.2879 9.25438 48.2312 8.9187C48.1083 8.20707 47.8909 7.64985 47.579 7.2504C46.9614 6.45485 46.1611 6.05875 45.1781 6.05875C44.2865 6.05875 43.5397 6.37764 42.9316 7.01207C42.4527 7.51222 42.1408 8.15001 42.0022 8.9187C41.9423 9.25102 42.1943 9.55984 42.5126 9.55984V9.55649Z" fill="#127398"/>
<path d="M52.7054 16.3069V5.14907C52.7054 4.86374 52.9228 4.63213 53.1907 4.63213H53.9689C54.2367 4.63213 54.4541 4.86374 54.4541 5.14907V6.4817C54.8984 5.61901 55.3111 5.04836 55.6861 4.77311C56.061 4.49786 56.4769 4.36023 56.9306 4.36023C57.4568 4.36023 57.9924 4.50457 58.5343 4.79325C58.7612 4.91409 58.862 5.19942 58.777 5.45118L58.4493 6.39442C58.3516 6.67975 58.0491 6.80395 57.7845 6.69318C57.4568 6.55555 57.1291 6.48841 56.8014 6.49513C56.4927 6.49848 56.1839 6.58576 55.9129 6.74688C55.4592 7.02214 55.1441 7.4518 54.9708 8.03252C54.7566 8.76765 54.6463 9.56992 54.6463 10.4427V16.3069C54.6463 16.5889 54.4321 16.8205 54.1642 16.8205H53.1907C52.926 16.8205 52.7086 16.5922 52.7086 16.3069H52.7054Z" fill="#127398"/>
<path d="M68.2959 12.9468L69.2821 13.0777C69.6129 13.1214 69.824 13.4839 69.7043 13.8129C69.3671 14.7494 68.8472 15.4979 68.1478 16.0619C67.2939 16.75 66.2006 17.0958 64.8741 17.0958C63.2011 17.0958 61.8746 16.5486 60.8947 15.451C59.9149 14.3533 59.4233 12.8125 59.4233 10.8321C59.4233 8.85157 59.918 7.18997 60.9105 6.05875C61.8998 4.92752 63.1853 4.36023 64.767 4.36023C66.3487 4.36023 67.546 4.91409 68.5133 6.02518C69.4837 7.13291 69.9658 8.6938 69.9658 10.7079C69.9658 11.0133 69.7326 11.2584 69.449 11.2584H61.9975C61.6856 11.2584 61.4398 11.5538 61.4839 11.8827C61.6226 12.92 61.9565 13.7356 62.4922 14.3332C63.1318 15.0448 63.9289 15.4006 64.8836 15.4006C65.5957 15.4006 66.2006 15.2026 66.7047 14.8031C67.1332 14.4641 67.4861 13.9538 67.7634 13.2724C67.8516 13.0509 68.0722 12.9233 68.2959 12.9502V12.9468ZM62.1235 9.55649H67.3317C67.65 9.55649 67.8989 9.25438 67.8422 8.9187C67.7193 8.20707 67.5019 7.64985 67.1899 7.2504C66.5724 6.45485 65.7721 6.05875 64.7891 6.05875C63.8974 6.05875 63.1507 6.37764 62.5426 7.01207C62.0637 7.51222 61.7517 8.15001 61.6131 8.9187C61.5532 9.25102 61.8053 9.55984 62.1235 9.55984V9.55649Z" fill="#127398"/>
<path d="M79.7551 16.3138V15.28C79.0714 16.4179 78.0884 17.0188 76.7997 17.0859C75.9332 17.1295 75.0636 16.9214 74.3106 16.4649C73.4158 15.9211 72.7321 15.1155 72.2658 14.048C71.8467 13.088 71.6356 11.9836 71.6356 10.7383C71.6356 9.49291 71.8247 8.41874 72.2059 7.4285C72.5871 6.43826 73.1574 5.67963 73.9168 5.15262C74.6793 4.62561 75.53 4.36043 76.4689 4.36043C77.1589 4.36043 77.7733 4.51484 78.3089 4.82366C78.8445 5.13248 79.2857 5.53529 79.6228 6.03545V0.520297C79.6228 0.231616 79.8433 0 80.1111 0H81.0595C81.3305 0 81.5479 0.234973 81.5479 0.520297V16.3138C81.5479 16.5924 81.3368 16.8173 81.0753 16.8173H80.2246C79.9631 16.8173 79.752 16.5924 79.752 16.3138H79.7551ZM73.6269 10.7383C73.6269 12.2992 73.9357 13.4639 74.5532 14.236C75.1708 15.0081 75.8986 15.3941 76.7398 15.3941C77.5811 15.3941 78.3058 15.0248 78.8981 14.2864C79.4905 13.5479 79.7866 12.4234 79.7866 10.9061C79.7866 9.23779 79.4842 8.01593 78.8824 7.23381C78.2806 6.45168 77.537 6.0623 76.6516 6.0623C75.7663 6.0623 75.0699 6.43826 74.4934 7.18681C73.9168 7.93537 73.6269 9.11695 73.6269 10.7315V10.7383Z" fill="#127398"/>
<path d="M92.1282 16.8207H91.1074C90.8931 16.8207 90.7198 16.6361 90.7198 16.4078V0.412881C90.7198 0.184622 90.8931 0 91.1074 0H92.2669C92.4811 0 92.6544 0.184622 92.6544 0.412881V4.98143C92.6544 5.3406 93.0451 5.51851 93.3035 5.29025C94.0029 4.66925 94.8316 4.36043 95.7894 4.36043C96.492 4.36043 97.16 4.51148 97.787 4.81359C98.414 5.1157 98.9307 5.542 99.3372 6.0858C99.7436 6.63295 100.062 7.29087 100.289 8.06629C100.519 8.83834 100.632 9.6641 100.632 10.5436C100.632 12.6315 100.147 14.2461 99.1796 15.384C98.2092 16.5253 97.0466 17.0926 95.6917 17.0926C94.6898 17.0926 93.8486 16.7636 93.168 16.099C92.9159 15.854 92.5158 16.0386 92.5158 16.4011C92.5158 16.6294 92.3425 16.814 92.1282 16.814V16.8207ZM92.4969 10.6376C92.4969 12.0977 92.6828 13.1551 93.0577 13.803C93.669 14.8671 94.4945 15.3974 95.5342 15.3974C96.3818 15.3974 97.1127 15.0047 97.7303 14.2226C98.3478 13.4371 98.6566 12.2689 98.6566 10.7181C98.6566 9.1673 98.3604 7.95216 97.7681 7.19689C97.1757 6.44162 96.4605 6.0623 95.6193 6.0623C94.778 6.0623 94.0407 6.45504 93.4232 7.23717C92.8057 8.02265 92.4969 9.15387 92.4969 10.6376Z" fill="#127398"/>
<path d="M102.844 20.9128L102.825 20.7551C102.765 20.2079 103.178 19.7313 103.695 19.7514C103.733 19.7514 103.767 19.7514 103.802 19.7514C104.234 19.7514 104.577 19.6742 104.835 19.5231C105.094 19.3687 105.305 19.1573 105.472 18.882C105.595 18.6739 105.79 18.1637 106.064 17.3446C106.08 17.2909 106.102 17.2238 106.13 17.1466C106.2 16.9452 106.196 16.7236 106.124 16.5256L102.33 5.85107C102.123 5.26364 102.529 4.63257 103.118 4.63257H103.392C103.748 4.63257 104.067 4.8709 104.186 5.22671L106.367 11.6885C106.376 11.712 106.382 11.7388 106.392 11.7623C106.666 12.5612 107.712 12.5579 107.983 11.7623L107.992 11.7355L110.233 5.22336C110.355 4.8709 110.671 4.63257 111.023 4.63257H111.156C111.745 4.63257 112.151 5.26028 111.947 5.84771L108.021 17.0257C107.554 18.3651 107.192 19.2848 106.934 19.7917C106.59 20.4731 106.193 20.9699 105.749 21.2888C105.305 21.6077 104.772 21.7655 104.155 21.7655C103.956 21.7655 103.745 21.742 103.521 21.695C103.159 21.6178 102.882 21.3056 102.841 20.9162L102.844 20.9128Z" fill="#127398"/>
<path d="M7.72743 90.6972C8.07925 90.3825 8.79285 90.1491 10.6084 91.2948C11.7767 92.0338 12.4903 92.833 14.3523 93.9999C18.1626 96.3867 33.0187 104.788 53.3779 105.057C56.219 105.096 58.3134 104.983 59.8103 104.902C74.5469 104.092 85.7156 99.7212 88.8953 98.519C90.0271 98.0911 90.359 97.7516 92.1115 96.9631C93.6216 96.2842 94.239 96.0791 94.8895 96.3407C95.6894 96.6625 96.3632 97.6279 96.2039 98.3634C96.0147 99.258 94.7169 99.8485 94.3054 100.153C91.5273 102.214 89.6719 103.091 86.323 105.107C80.6408 108.53 69.0406 111.143 59.8136 111.751C55.9303 112.009 49.5212 112.391 41.25 110.973C20.4727 107.409 7.85355 95.7219 7.19306 92.2884C7.10012 91.8004 7.17646 91.1958 7.73075 90.6972H7.72743Z" fill="#127398"/>
<path d="M104.216 90.2303C104.216 90.2303 104.206 90.2055 104.199 90.1914V90.1843C103.977 89.7847 102.5 89.4099 101.587 89.2048C97.8202 88.3632 95.165 87.7692 91.2916 88.6709C88.58 89.3038 87.4083 90.1702 86.6947 91.1567C86.5985 91.2911 85.7123 92.5358 86.0508 93.0202C86.3495 93.4481 87.405 93.0202 88.3908 92.748C91.3414 91.9276 96.4296 91.7048 98.8226 93.9467C98.879 93.9997 98.9388 94.0563 99.0051 94.12C99.0417 94.2119 99.0782 94.2968 99.108 94.3746C100.343 97.504 98.5272 102.575 96.861 105.294C96.3034 106.203 95.5865 107.136 95.8753 107.571C96.2005 108.066 97.5879 107.571 97.7373 107.511C98.8425 107.104 99.9843 106.196 101.408 103.657C103.439 100.032 103.755 97.161 104.203 93.0874C104.302 92.168 104.429 90.7041 104.213 90.2303H104.216Z" fill="#127398"/>
</svg>
