<svg width="112" height="112" viewBox="0 0 112 112" fill="none" xmlns="http://www.w3.org/2000/svg">
<path d="M90.7958 15.2984C90.5608 12.0249 90.352 9.99486 90.2117 8.84027C90.1203 8.09803 89.4971 7.53342 88.7303 7.49535C86.0221 7.36213 79.4636 6.95295 72.7127 5.91254C62.9826 4.41538 59.7426 0.120535 55.9967 0C52.2542 0.123707 49.0141 4.41538 39.2841 5.91254C32.5331 6.94978 25.9746 7.35896 23.2664 7.49535C22.4996 7.53342 21.8764 8.1012 21.7851 8.84027C21.6447 9.99486 21.4327 12.0249 21.201 15.2984C20.6659 22.8033 21.3511 26.4732 21.5077 27.8118C23.1946 42.2189 31.0322 53.1146 31.9295 54.3294C33.7436 56.7972 37.5678 61.5552 43.7314 66.1006C49.4774 70.3383 53.853 72.305 56 72.2383C58.147 72.305 62.5193 70.3383 68.2686 66.1006C74.429 61.5552 78.2531 56.7972 80.0705 54.3294C80.9678 53.1114 88.8054 42.2189 90.4923 27.8118C90.6489 26.4732 91.3341 22.8033 90.799 15.2984H90.7958Z" fill="#127398"/>
<path d="M84.4883 19.1747L84.445 18.5726C84.2471 15.8147 84.0718 14.1139 83.9556 13.1571C83.9395 13.0329 83.8289 12.9064 83.6452 12.8973C81.3384 12.7838 75.7505 12.4354 69.9893 11.5476L84.4883 19.1747ZM84.4883 19.1747C84.8142 24.3438 84.4318 27.1808 84.2508 28.5238C84.2273 28.6982 84.2072 28.8473 84.1925 28.9731M84.4883 19.1747L69.9891 11.5475C65.732 10.8925 62.8833 9.62027 60.7151 8.51122C60.3356 8.3171 59.9885 8.13438 59.6638 7.96345C59.0424 7.63628 58.5031 7.35234 57.9756 7.11449C57.211 6.76977 56.592 6.58202 55.9976 6.55697C55.4037 6.58252 54.7851 6.77058 54.0206 7.1155C53.4942 7.35303 52.9562 7.6363 52.3365 7.9626C52.0108 8.13406 51.6626 8.31741 51.2816 8.51225C49.1136 9.62103 46.2648 10.8925 42.0078 11.5476L42.0075 11.5476C36.2462 12.4328 30.658 12.7811 28.3526 12.8972L28.3519 12.8973C28.1695 12.9063 28.057 13.0347 28.0413 13.1585C27.925 14.1163 27.7471 15.8167 27.5521 18.5717L27.5521 18.5722C27.1562 24.1249 27.5611 27.1294 27.749 28.5238C27.7725 28.6981 27.7926 28.8473 27.8074 28.9731C29.2039 40.8998 35.7083 49.9467 36.4369 50.9332L36.4383 50.935C37.9375 52.9744 41.105 56.9162 46.2123 60.6827L46.2124 60.6827C48.6088 62.4502 50.6974 63.7273 52.3891 64.551C54.1203 65.3939 55.3156 65.7018 55.9689 65.6815L55.9999 65.6805L56.0309 65.6815C56.6841 65.7018 57.8787 65.394 59.6096 64.551C61.301 63.7273 63.3897 62.4501 65.7877 60.6826C70.8921 56.9162 74.0597 52.9744 75.5621 50.9343L75.5622 50.9342C76.2919 49.9437 82.796 40.8997 84.1925 28.9731M84.1925 28.9731C84.1925 28.9731 84.1925 28.9731 84.1925 28.973L85.1857 29.0893L84.1925 28.9731Z" fill="white" stroke="#127398" stroke-width="2"/>
<path d="M28.1771 31.4337H54.8714V6.76742C54.5772 6.86243 54.2644 6.98857 53.9224 7.14533C53.415 7.37782 52.8998 7.64904 52.3115 7.95879C51.9675 8.13992 51.5984 8.33424 51.1912 8.54168C49.0329 9.6413 46.2021 10.8914 41.9931 11.5376L28.1771 31.4337ZM28.1771 31.4337C28.0308 30.6209 27.9058 29.7922 27.8067 28.9486L28.1771 31.4337ZM28.349 12.8865L28.3477 12.8865C28.1692 12.8952 28.0568 13.0216 28.0415 13.1472L28.0413 13.1484C27.9234 14.1049 27.7483 15.8002 27.5521 18.5567L27.5521 18.5569C27.156 24.102 27.5604 27.1039 27.7483 28.4983C27.7718 28.6728 27.7919 28.8221 27.8067 28.9481L28.349 12.8865ZM28.349 12.8865C30.6551 12.7713 36.2364 12.4232 41.9928 11.5377L28.349 12.8865Z" fill="#127398" stroke="#127398" stroke-width="2"/>
<path d="M84.3871 18.555L84.3871 18.5552C84.7832 24.1003 84.3787 27.1022 84.1908 28.4966C84.1673 28.6711 84.1472 28.8204 84.1325 28.9464C84.0334 29.7906 83.9082 30.6201 83.7618 31.4349H57.0678V6.76468C57.362 6.85948 57.6749 6.98549 58.0171 7.14216C58.5254 7.37486 59.0418 7.64666 59.6318 7.95721C59.9747 8.13768 60.3425 8.33125 60.748 8.53783C62.9061 9.63738 65.7369 10.8882 69.946 11.5359L69.946 11.5359C75.7025 12.4215 81.287 12.7696 83.5901 12.8848L83.5914 12.8848C83.7699 12.8935 83.8824 13.0199 83.8977 13.1455L84.8903 13.0243L83.8975 13.1437C84.0129 14.1035 84.191 15.8003 84.3871 18.555Z" fill="white" stroke="#127398" stroke-width="2"/>
<path d="M65.7448 60.6259L65.7444 60.6262C63.3897 62.3641 61.3339 63.6266 59.6602 64.4498C58.5991 64.9718 57.7329 65.2964 57.0648 65.4674V33.6223H83.3063C81.0744 43.1699 76.1343 50.0393 75.5093 50.8879C74.0087 52.9252 70.8466 56.8649 65.7448 60.6259Z" fill="#127398" stroke="#127398" stroke-width="2"/>
<path d="M36.4265 50.8912C35.8014 50.0426 30.8613 43.1732 28.6294 33.6256H54.8709V65.4694C54.2026 65.2978 53.3363 64.9728 52.2755 64.451C50.6017 63.6276 48.5458 62.3658 46.1911 60.6293C41.089 56.8652 37.9269 52.9282 36.4265 50.8912Z" fill="white" stroke="#127398" stroke-width="2"/>
<path d="M21.7752 107.274H17.4228V110.931H22.2564L22.0646 111.859H15.9998V102.315H21.9844V103.243H17.4193V106.349H21.7717V107.278L21.7752 107.274Z" fill="#127398"/>
<path d="M23.847 111.859V102.315H25.6116C29.2177 108.923 29.7164 109.822 29.8873 110.229H29.9048C29.8106 108.951 29.7897 107.515 29.7897 105.957V102.315H31.1324V111.859H29.4444C25.7058 104.913 25.2454 104.042 25.092 103.664H25.0746C25.1687 104.859 25.1896 106.421 25.1896 108.134V111.859H23.847Z" fill="#127398"/>
<path d="M40.4965 109.215C40.4372 109.762 40.1129 111.997 36.9497 111.997C33.4796 111.997 33.2111 109.312 33.2111 107.019C33.2111 104.237 34.226 102.167 37.1031 102.167C40.2489 102.167 40.4198 104.32 40.4581 104.91H39.0213C38.9829 104.586 38.9062 103.11 37.0857 103.11C35.0351 103.11 34.7072 105.162 34.7072 107.019C34.7072 109.031 35.0141 111.068 36.9881 111.068C38.7318 111.068 38.9829 109.69 39.0387 109.211H40.4965V109.215Z" fill="#127398"/>
<path d="M43.7572 107.458V111.859H42.3204V102.315H45.7347C47.9213 102.315 49.0513 103.214 49.0513 104.776C49.0513 106.209 48.1131 106.813 47.3075 107.011C48.5142 107.321 48.8978 108.109 48.8978 109.444V109.822C48.8978 110.708 48.9362 111.341 49.0896 111.859H47.6528C47.4784 111.424 47.461 110.582 47.461 109.794V109.47C47.461 108.12 47.0983 107.458 45.3336 107.458H43.7607H43.7572ZM43.7572 106.572H45.4068C46.9971 106.572 47.5935 105.91 47.5935 104.802C47.5935 103.844 46.9971 103.2 45.5603 103.2H43.7572V106.572Z" fill="#127398"/>
<path d="M53.2885 111.859V108.217C53.2885 108.12 53.2501 108.034 53.2118 107.98L49.8952 102.315H51.5064C52.3887 103.931 53.6547 106.166 54.0383 107.037C54.4987 106.108 55.7646 103.844 56.6086 102.315H58.1222L54.7846 107.98C54.7463 108.037 54.7079 108.12 54.7079 108.232V111.859H53.2885Z" fill="#127398"/>
<path d="M59.1193 102.312H62.4743C64.5249 102.312 65.9444 103.255 65.9444 104.968C65.9444 106.681 64.6609 107.725 62.2825 107.725H60.5562V111.857H59.1193V102.312ZM60.5562 106.84H62.129C63.681 106.84 64.4866 106.235 64.4866 104.957C64.4866 103.903 63.7402 103.201 62.2825 103.201H60.5562V106.843V106.84Z" fill="#127398"/>
<path d="M69.6899 103.24H66.7952V102.312H74.0248V103.24H71.1302V111.857H69.6933V103.24H69.6899Z" fill="#127398"/>
<path d="M76.8607 102.312V111.857H75.4238V102.312H76.8607Z" fill="#127398"/>
<path d="M86.6253 106.994C86.6253 110.254 85.5721 112 82.7507 112C79.9293 112 78.9528 110.312 78.9528 107.022C78.9528 103.733 80.2571 102.171 82.8274 102.171C85.3977 102.171 86.6253 103.758 86.6253 106.994ZM80.4315 106.994C80.4315 109.722 81.1779 111.086 82.81 111.086C84.4422 111.086 85.1501 109.75 85.1501 107.008C85.1501 104.265 84.4038 103.085 82.7926 103.085C81.1813 103.085 80.435 104.391 80.435 106.994H80.4315Z" fill="#127398"/>
<path d="M88.7142 111.859V102.315H90.4789C94.085 108.923 94.5837 109.822 94.7546 110.229H94.772C94.6778 108.951 94.6569 107.515 94.6569 105.957V102.315H95.9996V111.859H94.3116C90.573 104.913 90.1127 104.042 89.9592 103.664H89.9383C90.0325 104.859 90.0534 106.421 90.0534 108.134V111.859H88.7107H88.7142Z" fill="#127398"/>
<path d="M12.2109 89.208L17.1133 75.1162H19.6426V77.9092H18.7734L15.3164 89.208H12.2109ZM14.8379 85.79L15.5605 83.583H22.0938L22.8164 85.79H14.8379ZM22.3867 89.208L18.9199 77.9092V75.1162H20.5801L25.4824 89.208H22.3867ZM27.6699 89.208V75.1162H37.0059V77.5479H30.6191V80.9463H36.6445V83.2217H30.6191V86.7764H37.0059V89.208H27.6699ZM44.9453 89.54C43.819 89.54 42.8424 89.374 42.0156 89.042C41.1888 88.7035 40.5378 88.2282 40.0625 87.6162C39.5938 86.9977 39.3301 86.2686 39.2715 85.4287L39.2617 85.2725H42.0938L42.1035 85.3701C42.1491 85.7217 42.2988 86.0309 42.5527 86.2979C42.8066 86.5648 43.1452 86.7731 43.5684 86.9229C43.9915 87.0726 44.4733 87.1475 45.0137 87.1475C45.5475 87.1475 46.013 87.0693 46.4102 86.9131C46.8073 86.7568 47.1165 86.542 47.3379 86.2686C47.5592 85.9886 47.6699 85.6696 47.6699 85.3115V85.3018C47.6699 84.8395 47.4811 84.4717 47.1035 84.1982C46.7324 83.9183 46.1107 83.6872 45.2383 83.5049L43.7441 83.2021C42.2988 82.9092 41.2376 82.4242 40.5605 81.7471C39.89 81.0635 39.5547 80.1878 39.5547 79.1201V79.1104C39.5612 78.2445 39.7923 77.486 40.248 76.835C40.7103 76.1839 41.3451 75.6794 42.1523 75.3213C42.9596 74.9632 43.8841 74.7842 44.9258 74.7842C46.0195 74.7842 46.9603 74.96 47.748 75.3115C48.5358 75.6631 49.1478 76.1481 49.584 76.7666C50.0267 77.3786 50.2773 78.085 50.3359 78.8857L50.3457 79.0127H47.5723L47.5527 78.8955C47.5007 78.5505 47.3607 78.251 47.1328 77.9971C46.9049 77.7432 46.6022 77.5446 46.2246 77.4014C45.8535 77.2516 45.4206 77.1768 44.9258 77.1768C44.4375 77.1768 44.0111 77.2484 43.6465 77.3916C43.2884 77.5348 43.0085 77.7367 42.8066 77.9971C42.6048 78.251 42.5039 78.5537 42.5039 78.9053V78.915C42.5039 79.3643 42.6895 79.7321 43.0605 80.0186C43.4316 80.305 44.0306 80.5329 44.8574 80.7021L46.3418 81.0049C47.8327 81.3044 48.9167 81.7731 49.5938 82.4111C50.2773 83.0426 50.6191 83.9085 50.6191 85.0088V85.0186C50.6191 85.943 50.3913 86.7438 49.9355 87.4209C49.4798 88.098 48.8255 88.6221 47.9727 88.9932C47.1263 89.3577 46.1172 89.54 44.9453 89.54ZM53.1094 84.7842V82.2354H59.5645V84.7842H53.1094ZM62.416 89.208V87.2158L67.0547 82.6943C67.7057 82.0693 68.207 81.555 68.5586 81.1514C68.9102 80.7477 69.1543 80.3929 69.291 80.0869C69.4277 79.7809 69.4961 79.4619 69.4961 79.1299V79.1006C69.4961 78.7035 69.4082 78.3551 69.2324 78.0557C69.0566 77.7497 68.806 77.512 68.4805 77.3428C68.1615 77.167 67.7806 77.0791 67.3379 77.0791C66.8757 77.0791 66.4655 77.1768 66.1074 77.3721C65.7559 77.5609 65.4792 77.8245 65.2773 78.1631C65.082 78.4951 64.9844 78.8825 64.9844 79.3252L64.9746 79.3838H62.25L62.2402 79.335C62.2467 78.4365 62.4681 77.6455 62.9043 76.9619C63.347 76.2783 63.959 75.7445 64.7402 75.3604C65.5215 74.9762 66.4199 74.7842 67.4355 74.7842C68.4121 74.7842 69.2715 74.9567 70.0137 75.3018C70.7559 75.6468 71.3353 76.1286 71.752 76.7471C72.1751 77.359 72.3867 78.0687 72.3867 78.876V78.9053C72.3867 79.4456 72.2826 79.9697 72.0742 80.4775C71.8724 80.9788 71.5241 81.5225 71.0293 82.1084C70.541 82.6878 69.8737 83.3682 69.0273 84.1494L65.4727 87.46L66.3418 86.0049V87.46L65.4727 86.8447H72.5918V89.208H62.416ZM80.4434 89.54C79.4408 89.54 78.5586 89.3577 77.7969 88.9932C77.0352 88.6286 76.4329 88.1338 75.9902 87.5088C75.554 86.8838 75.3066 86.1807 75.248 85.3994L75.2383 85.2529H77.9238L77.9434 85.3213C78.015 85.6729 78.1615 85.9919 78.3828 86.2783C78.6107 86.5583 78.9004 86.7829 79.252 86.9521C79.61 87.1149 80.0104 87.1963 80.4531 87.1963C80.9609 87.1963 81.4069 87.0856 81.791 86.8643C82.1816 86.6429 82.4876 86.3402 82.709 85.9561C82.9303 85.5654 83.041 85.1195 83.041 84.6182V84.5986C83.041 84.0973 82.9303 83.6579 82.709 83.2803C82.4876 82.8962 82.1816 82.5967 81.791 82.3818C81.4069 82.167 80.9642 82.0596 80.4629 82.0596C80.1113 82.0596 79.7826 82.1117 79.4766 82.2158C79.1771 82.3135 78.9069 82.46 78.666 82.6553C78.5358 82.766 78.4121 82.8864 78.2949 83.0166C78.1842 83.1468 78.0898 83.29 78.0117 83.4463H75.4727L76.127 75.1162H84.9746V77.46H78.4316L78.0801 81.4639H78.2266C78.513 80.9886 78.9199 80.6143 79.4473 80.3408C79.9811 80.0674 80.5898 79.9307 81.2734 79.9307C82.1589 79.9307 82.9434 80.1292 83.627 80.5264C84.3105 80.9235 84.8477 81.4704 85.2383 82.167C85.6289 82.8571 85.8242 83.6514 85.8242 84.5498V84.5693C85.8242 85.5524 85.5964 86.4183 85.1406 87.167C84.6849 87.9157 84.0534 88.4984 83.2461 88.915C82.4388 89.3317 81.5046 89.54 80.4434 89.54ZM93.8027 89.5498C92.9759 89.5498 92.2077 89.4033 91.498 89.1104C90.7949 88.8109 90.1764 88.3617 89.6426 87.7627C89.1152 87.1637 88.7018 86.4118 88.4023 85.5068C88.1094 84.5954 87.9629 83.5244 87.9629 82.2939V82.2744C87.9629 80.7119 88.2005 79.3708 88.6758 78.251C89.151 77.1312 89.8249 76.2751 90.6973 75.6826C91.5697 75.0837 92.6113 74.7842 93.8223 74.7842C94.7272 74.7842 95.5443 74.9502 96.2734 75.2822C97.0026 75.6077 97.6048 76.057 98.0801 76.6299C98.5553 77.2028 98.8646 77.8571 99.0078 78.5928L99.0273 78.6807H96.1367L96.0977 78.5928C95.987 78.2998 95.8242 78.0459 95.6094 77.8311C95.401 77.6097 95.1471 77.4372 94.8477 77.3135C94.5482 77.1898 94.2064 77.1279 93.8223 77.1279C93.1452 77.1279 92.5853 77.3298 92.1426 77.7334C91.7064 78.137 91.3776 78.6839 91.1562 79.374C90.9414 80.0576 90.8145 80.8226 90.7754 81.6689C90.7689 81.7666 90.7656 81.8643 90.7656 81.9619C90.7656 82.0531 90.7656 82.1507 90.7656 82.2549L91.2051 84.6084C91.2051 85.0967 91.319 85.5394 91.5469 85.9365C91.7747 86.3271 92.084 86.6364 92.4746 86.8643C92.8652 87.0921 93.2982 87.2061 93.7734 87.2061C94.2552 87.2061 94.6882 87.0954 95.0723 86.874C95.4629 86.6462 95.7721 86.3402 96 85.9561C96.2344 85.5654 96.3516 85.1325 96.3516 84.6572V84.6377C96.3516 84.1494 96.2409 83.7165 96.0195 83.3389C95.7982 82.9548 95.4954 82.6553 95.1113 82.4404C94.7272 82.2191 94.291 82.1084 93.8027 82.1084C93.3145 82.1084 92.875 82.2158 92.4844 82.4307C92.0938 82.639 91.7812 82.932 91.5469 83.3096C91.319 83.6807 91.2051 84.1071 91.2051 84.5889V84.6084H90.6191V82.04H90.9316C91.1074 81.6559 91.3581 81.3044 91.6836 80.9854C92.0156 80.6663 92.4258 80.4124 92.9141 80.2236C93.4023 80.0283 93.9688 79.9307 94.6133 79.9307C95.5312 79.9307 96.332 80.1292 97.0156 80.5264C97.7057 80.9235 98.2428 81.4704 98.627 82.167C99.0176 82.8571 99.2129 83.6481 99.2129 84.54V84.5596C99.2129 85.5166 98.9818 86.3727 98.5195 87.1279C98.0573 87.8766 97.4193 88.4691 96.6055 88.9053C95.7917 89.335 94.8574 89.5498 93.8027 89.5498Z" fill="#127398"/>
</svg>
