<svg width="1485" height="235" viewBox="0 0 1485 235" fill="none" xmlns="http://www.w3.org/2000/svg">
<rect x="26.2422" y="134.776" width="1416.17" height="100.224" fill="#00ABE1"/>
<rect width="156.381" height="150.051" rx="10" transform="matrix(0.975676 -0.219314 0.2392 0.970949 581.649 67.947)" fill="#F5FAFF"/>
<path d="M764.129 192.552C760.701 182.426 748.811 160.85 725.902 161.309L699.293 162.446L673.015 168.362L648.654 178.653C627.92 187.994 627.283 212.386 628.913 222.916L764.128 192.554L764.129 192.552Z" fill="#CE4F37"/>
<path d="M669.447 85.7561C667.876 86.0785 661.581 87.4918 660.025 87.8713C635.483 92.8929 623.125 133.843 646.663 149.76C654.703 155.757 670.029 155.277 673.461 153.463C673.825 153.269 672.778 145.613 672.95 145.459C675.131 142.226 676.333 140.951 677.682 139.402C679.612 140.215 681.282 140.845 684.744 142.811C684.969 142.874 687.605 150.175 688.02 150.194C691.939 150.358 705.884 144.267 710.284 135.476C723.93 111.211 693.759 79.8092 669.447 85.7561Z" fill="#5A5E7D"/>
<path d="M699.689 162.415C700.613 166.167 695.472 170.527 687.648 172.278C679.824 174.028 673.185 172.305 672.261 168.553L667.856 146.236L662.39 128.808L659.698 120.226C659.509 119.623 659.592 119.036 659.949 118.45C660.305 117.862 660.907 117.564 661.55 117.42L685.271 112.111C685.842 111.984 686.444 111.982 686.974 112.312C687.504 112.643 687.827 113.107 687.933 113.658L692.824 138.968L699.692 162.412L699.689 162.415Z" fill="#B17854"/>
<path d="M696.359 150.454L694.029 143.183L668.082 149.946L690.005 158.033C693.563 159.089 696.825 155.908 697.291 154.544L696.359 150.454Z" fill="#996748"/>
<path d="M675.928 116.427C675.928 116.427 675.926 116.42 675.925 116.414L675.909 116.398C675.918 116.411 675.924 116.419 675.93 116.428L675.928 116.427Z" fill="#CC8348"/>
<path d="M675.012 116.625C675.012 116.625 675.01 116.619 675.009 116.613L674.993 116.597C675 116.61 675.006 116.618 675.014 116.627L675.012 116.625Z" fill="#CC8348"/>
<path d="M688.422 125.277L688.879 127.133C689.107 128.039 688.863 129.291 688.45 130.117C688.036 130.944 687.182 131.745 686.41 131.921L677.838 133.889L669.246 135.775C668.474 135.945 667.334 135.592 666.577 135.027C665.823 134.463 665.019 133.445 664.8 132.539L664.343 130.683L660.901 131.456L664.988 146.582C665.369 148.149 666.24 149.507 667.543 150.481C669.854 153.054 688.344 154.968 694.79 144.339C695.503 142.913 695.412 141.011 695.024 139.447L691.867 124.504L688.422 125.277Z" fill="#B17854"/>
<path d="M662.196 128.897C665.183 131.016 667.985 135.508 666.439 137.5C664.893 139.493 659.584 138.231 656.595 136.114C653.606 133.996 654.073 131.821 655.619 129.829C657.165 127.836 659.208 126.781 662.196 128.899L662.196 128.897Z" fill="#B17854"/>
<path d="M688.729 122.895C687.044 126.063 686.632 131.275 688.946 132.402C691.26 133.528 695.425 130.14 697.112 126.973C698.797 123.806 697.365 122.057 695.051 120.931C692.737 119.805 690.415 119.729 688.729 122.897L688.729 122.895Z" fill="#B17854"/>
<path d="M658.524 127.664L661.492 130.67C662.254 131.176 663.181 130.945 662.514 129.18L661.323 125.733L658.524 127.663L658.524 127.664Z" fill="#5A5E7D"/>
<path d="M692.518 119.99L691.264 123.942C690.82 124.719 689.882 124.905 689.654 123.042L689.111 119.45L692.518 119.988L692.518 119.99Z" fill="#5A5E7D"/>
<path d="M1475.06 42.982L1302.82 2.50039C1297.44 1.23677 1291.97 4.54793 1290.59 9.89607L1248.39 173.72C1247.01 179.068 1250.26 184.428 1255.63 185.691L1427.87 226.173C1433.25 227.437 1438.73 224.125 1440.1 218.777L1482.3 54.9536C1483.68 49.6055 1480.44 44.2456 1475.06 42.982Z" fill="#F5FAFF"/>
<path d="M1352.63 62.2875C1358.53 73.7402 1340.94 80.9195 1331.41 118.773C1313.46 179.68 1382.42 163.69 1372.36 212.561L1419.55 224.197C1423.38 210.221 1436.49 179.092 1421.1 156.087C1410.52 141.92 1406.23 132.455 1406.15 113.64C1410.65 82.9086 1389.91 46.3797 1352.63 62.2875Z" fill="#FBBC12"/>
<path d="M1390.09 99.068C1392.38 114.123 1378.55 128.596 1393.17 143.644C1420.84 166.932 1414.06 197.608 1403.75 218.496L1350.61 171.734L1366.92 112.459L1390.09 99.0659L1390.09 99.068Z" fill="#FFC05A"/>
<path d="M1399.39 163.138C1399.28 163.08 1369.74 145.469 1369.74 145.469L1341.49 138.837C1341.49 138.837 1306.79 141.364 1306.66 141.364C1285.76 144.983 1277.26 169.955 1263.27 187.46L1415.57 223.222C1411.63 201.506 1416.16 175.606 1399.39 163.138L1399.39 163.138Z" fill="#62D5FA"/>
<path d="M1369.05 147.673L1373.54 119.368L1350.36 113.931L1341.63 141.256C1336.31 159.998 1364.28 168.178 1369.05 147.673Z" fill="#E38C46"/>
<path d="M1370.8 134.094L1373.58 119.215L1350.41 113.776L1348.43 120.005L1353.09 124.095L1370.8 134.094Z" fill="#C06827"/>
<path d="M1383.49 108.027C1380.59 105.979 1380.81 101.05 1383.97 97.0227C1387.14 92.9914 1392.05 91.3853 1394.94 93.4361C1397.84 95.4833 1397.62 100.411 1394.46 104.442C1391.29 108.469 1386.38 110.074 1383.49 108.027Z" fill="#D17D3B"/>
<path d="M1390.84 111.452C1390.45 112.959 1388.85 113.881 1387.28 113.51C1385.7 113.14 1384.73 111.617 1385.12 110.109C1385.51 108.602 1387.1 107.68 1388.68 108.051C1390.26 108.421 1391.23 109.944 1390.84 111.452Z" fill="white"/>
<path d="M1378.87 70.6962C1376.81 70.1752 1374.89 69.7153 1373.06 69.3089L1373.02 69.299C1372.97 69.2855 1372.92 69.273 1372.87 69.2611L1372.71 69.2248C1372.7 69.2238 1372.69 69.2206 1372.67 69.2175C1370.85 68.7705 1368.93 68.3254 1366.85 67.8766C1360.25 66.7099 1350 68.5948 1347.13 79.7717C1344.23 85.9454 1337.7 104.824 1343.01 112.716C1346.16 119.512 1354.41 125.023 1357.79 125.912L1358.72 126.093C1362.25 126.75 1372.81 125.25 1378.23 120.979C1386.85 115.004 1391.1 96.0491 1390.57 89.9625C1391.31 78.5412 1385.03 72.5562 1378.87 70.6967L1378.87 70.6962Z" fill="#E38C46"/>
<path d="M1389.72 55.9292C1388.41 61.0022 1383.05 64.102 1377.74 62.8547C1372.42 61.6074 1369.17 56.4864 1370.48 51.4134C1371.79 46.3403 1377.15 43.2406 1382.46 44.4879C1387.78 45.7352 1391.02 50.8583 1389.72 55.9292Z" fill="#FBBC12"/>
<path d="M1382.98 71.23C1378.15 77.6414 1375.57 75.4413 1359.2 82.6295C1328.75 99.6639 1354.91 162.463 1320.85 200.422L1276.23 189.975C1290.38 175.279 1317.29 148.907 1317.98 122.695C1318.7 91.9445 1329.63 69.2293 1354.7 61.5417L1382.98 71.2279L1382.98 71.23Z" fill="#FBBC12"/>
<rect width="181.955" height="174.753" rx="10" transform="matrix(0.974537 -0.224328 0.244617 0.969597 921.657 57.4727)" fill="#F5FAFF"/>
<path d="M1011.79 81.4531C1007.04 85.0698 1003.71 89.9006 1001.35 95.1527C997.499 102.658 998.788 113.819 1002.25 118.9C1021.45 144.558 1055.54 126.733 1056.59 106.734C1058.3 98.9591 1050.1 86.9528 1045.15 83.2126C1042.98 81.4676 1040.54 79.9282 1037.96 78.766C1034.76 77.3215 1031.44 76.6733 1027.92 76.4323C1022.24 76.0434 1016.19 78.0973 1011.79 81.4549L1011.79 81.4531Z" fill="#785E8A"/>
<path d="M1042.52 116.857C1056.53 122.017 1066.19 129.504 1069.85 136.831C1063.69 147.518 1055.52 149.786 1048.41 152.431C1040.02 141.186 1039.25 130.736 1038.65 120.178L1042.52 116.857Z" fill="#785E8A"/>
<path d="M1082.64 146.873C1082.52 146.871 1050.97 144.043 1050.97 144.043L1025.33 149.939C1025.33 149.939 998.565 166.178 998.461 166.232C983.259 177.717 987.491 202.134 983.968 222.378L1122.23 190.582C1109.47 174.083 1101.64 150.494 1082.64 146.874L1082.64 146.873Z" fill="#CE4F37"/>
<path d="M1051.01 146.115L1044.07 127.732L1021.86 128.815L1026.13 151.851C1046.86 173.179 1046.86 173.179 1051.01 146.116L1051.01 146.115Z" fill="#EFB077"/>
<path d="M1047.26 135.912L1042.66 123.845L1021.63 128.681L1022.09 131.366L1035.15 135.003L1047.26 135.912Z" fill="#D08D55"/>
<path d="M1014.12 114.736C1015.32 116.394 1014.89 118.667 1013.15 119.812C1011.42 120.958 1009.04 120.544 1007.84 118.886L1004.54 114.322C1003.34 112.664 1003.77 110.391 1005.51 109.246C1007.24 108.1 1009.62 108.514 1010.82 110.172L1014.12 114.736Z" fill="#D08D55"/>
<path d="M1044.47 107.699C1044.2 109.696 1045.67 111.531 1047.76 111.797C1049.85 112.064 1051.77 110.662 1052.05 108.664L1052.81 103.167C1053.09 101.169 1051.62 99.3341 1049.53 99.0676C1047.44 98.8011 1045.52 100.203 1045.24 102.201L1044.47 107.699Z" fill="#D08D55"/>
<path d="M1023.55 87.5516C1019.25 94.9681 1014.37 102.069 1008.05 108.398C1011.32 116.488 1016.56 127.099 1019.05 128.713C1024.09 132.423 1032.35 133.844 1035.53 133.147L1036.37 132.954C1039.46 131.972 1045.73 126.62 1048.01 120.948C1049.13 118.604 1047.68 108.19 1046.28 99.9914C1038.46 96.7476 1030.88 92.6205 1023.55 87.5494L1023.55 87.5516Z" fill="#EFB077"/>
<path d="M1011.03 118.077C1011.16 118.593 1010.83 119.114 1010.29 119.238C1009.75 119.362 1009.2 119.044 1009.07 118.527C1008.94 118.01 1009.27 117.49 1009.81 117.366C1010.36 117.241 1010.9 117.56 1011.03 118.077Z" fill="white"/>
<path d="M1050.73 108.895C1050.86 109.412 1050.52 109.932 1049.98 110.056C1049.44 110.181 1048.9 109.862 1048.77 109.345C1048.64 108.829 1048.97 108.308 1049.51 108.184C1050.05 108.06 1050.59 108.378 1050.73 108.895Z" fill="white"/>
<path d="M1253.27 61.1106L1133.01 68.4395C1127.5 68.7755 1123.33 73.5151 1123.7 79.0256L1131.31 193.038C1131.68 198.549 1136.45 202.744 1141.96 202.408L1262.22 195.079C1267.73 194.743 1271.9 190.003 1271.53 184.493L1263.92 70.48C1263.55 64.9694 1258.78 60.7746 1253.27 61.1106Z" fill="#F5FAFF"/>
<path d="M1265.15 194.672C1265.2 194.573 1265.22 194.473 1265.21 194.365C1264.42 186.927 1256.39 163.091 1236.25 160.093L1213.54 157.257C1212.92 157.18 1212.3 157.16 1211.68 157.198L1189.45 158.569C1188.84 158.607 1188.23 158.701 1187.64 158.851L1166.26 164.22C1165.74 164.35 1165.22 164.521 1164.74 164.748C1145.34 173.799 1142.42 202.267 1142.88 202.268L1264.64 195.016C1264.86 195.003 1265.06 194.871 1265.15 194.672V194.672Z" fill="#9F73C2"/>
<path d="M1187.14 141.507C1187.14 141.507 1187.14 141.507 1187.14 141.508L1188.16 157.979C1188.41 162.058 1193.02 165.119 1200.06 164.731C1207.11 164.342 1211.32 160.793 1211.07 156.715L1210.67 150.219C1210.33 144.708 1205.58 140.489 1200.07 140.793L1187.14 141.507V141.507Z" fill="#F29E57"/>
<path d="M1205.4 157.707C1208.33 158.639 1211.09 157.368 1210.9 154.309V154.309L1210.5 147.814C1210.16 142.303 1205.42 138.083 1199.91 138.388L1193.48 138.742C1189.89 138.941 1187.16 142.013 1187.38 145.604V145.604C1187.51 147.763 1188.71 149.721 1190.57 150.83L1197.35 154.865C1198.01 155.257 1198.71 155.573 1199.44 155.806L1205.4 157.707Z" fill="#D38448"/>
<path d="M1197.07 107.142C1197.07 107.144 1197.07 107.144 1197.07 107.141C1197.07 107.14 1197.07 107.139 1197.07 107.139C1197.07 107.138 1197.07 107.138 1197.07 107.138V107.138C1197.07 107.136 1197.07 107.137 1197.07 107.14C1197.07 107.141 1197.07 107.141 1197.07 107.142Z" fill="#CF8548"/>
<path d="M1197.83 113.983C1197.83 113.985 1197.84 113.983 1197.84 113.981V113.981C1197.84 113.981 1197.84 113.98 1197.83 113.98L1197.83 113.98C1197.83 113.978 1197.83 113.98 1197.83 113.983V113.983Z" fill="#CF8548"/>
<path d="M1197.52 114.014C1197.52 114.014 1197.52 114.014 1197.52 114.013C1197.52 114.012 1197.52 114.007 1197.52 114.002C1197.52 114.001 1197.52 114 1197.51 113.999L1197.5 113.982C1197.51 113.995 1197.51 114.003 1197.52 114.013C1197.52 114.013 1197.52 114.014 1197.52 114.014V114.014Z" fill="#CF8548"/>
<path d="M1223.38 114.508V114.508C1222.88 114.132 1222.69 113.47 1222.9 112.885C1223.73 110.572 1223.69 108.65 1223.12 107.122C1221.68 103.337 1218.41 99.172 1215.19 96.7092C1214.17 95.9246 1212.92 95.4084 1211.6 95.1546C1207.41 94.3487 1202.62 93.9311 1198.49 92.819C1194.51 91.7441 1190.32 92.4517 1187.21 95.1472C1185.82 96.3484 1184.06 97.1465 1182.22 97.168V97.168C1178.65 97.2079 1175.64 99.4421 1173.95 102.289C1173.39 103.24 1173.09 104.303 1173.02 105.386C1172.85 108.077 1172.28 111.149 1170.94 113.488V113.488C1169.59 115.859 1169.39 118.491 1170.14 121.055C1170.31 121.614 1170.5 122.141 1170.73 122.639C1172.86 127.298 1174.16 133.425 1177.5 137.31C1178.87 138.899 1181.18 139.77 1184 140.093C1190.79 140.871 1214.4 138.234 1215.55 138.161C1219.02 137.942 1222 135.994 1222.92 133.007V133.007C1223.7 130.463 1224.48 127.453 1225.71 125.097C1227.48 121.729 1227.24 117.215 1223.38 114.508Z" fill="#444869"/>
<path d="M1188.33 125.485C1188.87 127.774 1187.37 130.05 1184.97 130.566C1182.58 131.083 1180.2 129.646 1179.66 127.357L1178.21 121.246C1177.67 118.957 1179.18 116.682 1181.57 116.165C1183.97 115.648 1186.35 117.085 1186.89 119.375L1188.33 125.485Z" fill="#D67F43"/>
<path d="M1208.88 124.224C1208.65 126.56 1210.44 128.633 1212.89 128.853C1215.33 129.073 1217.5 127.357 1217.73 125.02L1218.35 118.784C1218.58 116.447 1216.78 114.374 1214.34 114.154C1211.89 113.934 1209.72 115.65 1209.49 117.987L1208.88 124.224Z" fill="#D67F43"/>
<path d="M1210.89 109.829C1210.89 109.829 1210.89 109.829 1210.89 109.829C1195.71 113.972 1193.53 106.134 1187.26 108.741C1184.84 109.743 1183.65 112.369 1183.45 114.975C1182.89 122.388 1182.74 132.201 1184.27 139.442C1186.17 147.296 1191.49 152.933 1199.32 152.227C1199.85 152.18 1200.38 152.147 1200.91 152.13C1208.77 151.874 1213.29 145.633 1214.13 137.611C1214.77 129.013 1212.63 117.362 1210.89 109.829C1210.89 109.829 1210.89 109.828 1210.89 109.829V109.829Z" fill="#F29E57"/>
<rect width="145.156" height="138.184" rx="10" transform="matrix(0.994392 0.105783 -0.11579 0.993271 158.374 54.2417)" fill="#F5FAFF"/>
<path d="M248.721 165.714C248.645 165.685 228.668 154.461 228.668 154.461L211.422 153.12C211.422 153.12 189.316 159.366 189.235 159.379C176.504 163.634 173.175 181.11 165.848 193.978L263.552 204.383C259.373 190.29 260.158 172.542 248.72 165.714L248.721 165.714Z" fill="#31CE5D"/>
<path d="M228.601 156.454L228.389 143.645L213.532 142.059L211.028 154.589C213.751 159.032 222.566 161.172 228.602 156.455L228.601 156.454Z" fill="#EFB077"/>
<path d="M228.303 155L228.303 143.515L213.447 141.93L212.472 147.7L228.303 155Z" fill="#D08D55"/>
<path d="M211.977 131.197C212.349 132.536 211.507 133.907 210.098 134.258C208.689 134.61 207.246 133.81 206.874 132.471L205.852 128.786C205.48 127.447 206.322 126.076 207.731 125.725C209.14 125.373 210.583 126.173 210.955 127.512L211.977 131.197Z" fill="#D08D55"/>
<path d="M233.443 133.487C232.771 134.715 233.275 136.229 234.568 136.869C235.861 137.508 237.454 137.033 238.126 135.805L239.974 132.426C240.646 131.198 240.142 129.684 238.849 129.044C237.556 128.404 235.964 128.88 235.292 130.108L233.443 133.487Z" fill="#D08D55"/>
<path d="M224.801 115.776C220.186 119.604 214.841 112.593 209.602 125.769C209.738 131.724 210.531 139.747 211.753 141.347C214.115 144.871 219.133 147.637 221.368 147.897L221.961 147.96C224.21 148.017 229.602 145.965 232.478 142.813C233.782 141.55 235.403 134.502 236.51 128.895C236.497 120.394 228.314 120.688 224.803 115.775L224.801 115.776Z" fill="#EFB077"/>
<path d="M209.131 132.669C209.088 133.032 208.744 133.293 208.362 133.252C207.979 133.212 207.704 132.884 207.746 132.521C207.789 132.159 208.133 131.897 208.515 131.938C208.898 131.979 209.173 132.306 209.131 132.669Z" fill="white"/>
<path d="M237.211 135.662C237.168 136.025 236.824 136.286 236.442 136.246C236.059 136.205 235.784 135.877 235.826 135.515C235.869 135.152 236.213 134.891 236.595 134.931C236.978 134.972 237.253 135.3 237.211 135.662Z" fill="white"/>
<path d="M239.514 116.446C236.929 115.454 234.302 112.933 231.729 109.997C226.913 103.936 217.437 103.607 213.84 112.582C206.63 111.455 206.728 117.336 206.654 125.333L207.769 127.065L209.536 131.369C210.547 125.333 212.554 121.88 214.127 120.047C220.941 113.796 225.998 122.308 234.279 123.973C235.12 126.185 236.135 129.601 235.492 134.191L238.571 130.809L240.329 128.772C244.72 119.536 242.984 117.593 239.516 116.446L239.514 116.446Z" fill="#524F54"/>
<rect width="194.561" height="186.187" rx="10" transform="matrix(0.992221 0.124525 -0.13625 0.99067 771.883 10.3884)" fill="#F5FAFF"/>
<path d="M914.118 215.849C914.659 204.925 911.396 180.058 889.158 172.543L863.098 164.394L835.543 160.954L808.173 162.385C784.659 164.163 774.787 187.386 772.36 198.073L914.116 215.85L914.118 215.849Z" fill="#31CE5D"/>
<path d="M840.562 142.178L837.941 160.411C837.292 164.924 841.641 169.226 849.442 170.256C857.243 171.285 862.643 168.269 863.292 163.755L865.912 145.523L840.56 142.177L840.562 142.178Z" fill="#F29E57"/>
<path d="M843.642 151.363C848.769 156.816 863.924 157.94 864.151 156.362L866.283 142.865L840.93 139.52L839.915 146.364L843.642 151.363Z" fill="#E28C4B"/>
<path d="M860.789 103.363C860.789 103.363 860.79 103.354 860.789 103.344L860.777 103.314C860.783 103.334 860.785 103.347 860.789 103.363Z" fill="#CF8548"/>
<path d="M860.017 111.923C860.017 111.923 860.018 111.914 860.019 111.906L860.008 111.878C860.013 111.896 860.015 111.909 860.017 111.921L860.017 111.923Z" fill="#CF8548"/>
<path d="M859.608 111.87C859.608 111.87 859.609 111.861 859.607 111.852L859.597 111.825C859.601 111.843 859.604 111.855 859.608 111.868L859.608 111.87Z" fill="#CF8548"/>
<path d="M844.584 124.036C844.67 126.717 842.414 128.943 839.545 129.006C836.676 129.071 834.28 126.949 834.195 124.27L833.966 117.118C833.879 114.437 836.135 112.212 839.004 112.148C841.873 112.083 844.269 114.204 844.353 116.885L844.583 124.037L844.584 124.036Z" fill="#D67F43"/>
<path d="M868.368 127.412C867.557 129.98 869.134 132.688 871.887 133.458C874.641 134.229 877.53 132.772 878.338 130.203L880.499 123.352C881.308 120.783 879.733 118.076 876.979 117.306C874.226 116.534 871.337 117.991 870.528 120.56L868.368 127.412Z" fill="#D67F43"/>
<path d="M874.402 109.303C855.74 101.718 856.534 94.9801 843.099 104.711C840.415 112.951 837.155 124.651 837.229 134.749C837.586 144.262 842.242 153.182 852.496 151.818C860.886 155.909 868.983 148.208 871.904 139.108C874.645 129.615 874.64 118.113 874.4 109.303L874.402 109.303Z" fill="#F29E57"/>
<path d="M878.658 100.086C871.09 89.0718 851.367 84.4961 847.303 95.7001C838.672 94.1048 838.297 103.193 837.906 112.861C838.177 112.824 838.941 113.42 840.341 113.6L839.39 119.662L842.362 120.13C843.793 112.944 845.398 106.956 847.36 104.791C855.793 97.4515 861.562 107.861 871.46 110.143C872.389 112.845 872.174 118.095 871.215 123.717L874.2 124.092L874.477 117.021L877.162 117.462C882.092 109.063 882.158 104.832 878.66 100.087L878.658 100.086Z" fill="#FBBC12"/>
<path d="M861.376 135.498C861.227 136.584 860.174 137.292 859.013 137.147L850.782 136.115C849.622 135.969 848.795 135.025 848.944 133.939C849.093 132.854 850.148 132.146 851.307 132.291L859.538 133.323C860.699 133.469 861.526 134.413 861.376 135.498Z" fill="#F29E57"/>
<path d="M615.443 79.9675L496.399 62.0007C490.938 61.1765 485.781 64.9254 484.88 70.3742L466.204 183.282C465.303 188.731 469 193.816 474.461 194.64L593.504 212.607C598.965 213.431 604.123 209.682 605.024 204.234L623.699 91.3258C624.6 85.877 620.904 80.7917 615.443 79.9675Z" fill="#F5FAFF"/>
<path d="M593.218 212.379L585.845 172.036C584.824 167.207 580.66 163.551 575.142 161.918C575.058 161.876 574.971 161.852 574.885 161.811L507.598 151.723C507.462 151.743 507.326 151.758 507.189 151.781C501.69 151.886 496.852 154.126 494.422 158.251L474.408 194.458L593.217 212.378L593.218 212.379Z" fill="#B2ECFF"/>
<path d="M586.49 167.207C580.81 154.013 565.989 151.581 567.784 135.768C571.479 128.483 572.783 121.695 573.069 115.122C573.221 104.667 569.026 94.6669 564.959 91.6384C561.023 87.8324 549.772 84.3929 541.578 87.769C533.369 91.6556 527.958 98.5169 525.234 107.881C523.173 114.68 522.803 121.39 524.543 129.296C520.736 143.948 506.255 142.984 496.78 153.627C493.849 157.361 491.143 161.307 489.807 166.557C516.163 188.239 547.485 197.534 588.93 181.565C589.361 176.177 588.067 171.625 586.49 167.208L586.49 167.207Z" fill="#62D5FA"/>
<path d="M534.5 128.9C535.764 138.643 533.426 152.246 541.148 155.066C547.371 156.709 551.638 143.649 556.395 133.096L534.498 128.9L534.5 128.9Z" fill="#427F93"/>
<path d="M531.238 125.49C528.853 125.129 527.355 122.157 527.902 118.865C528.448 115.574 530.834 113.191 533.221 113.552C535.608 113.914 537.104 116.886 536.558 120.175C536.012 123.465 533.626 125.851 531.238 125.49ZM532.992 114.931C531.156 114.653 529.705 116.544 529.285 119.075C528.864 121.605 529.631 123.834 531.467 124.112C533.303 124.389 534.61 122.477 535.03 119.944C535.451 117.412 534.826 115.208 532.992 114.931Z" fill="#FBBC12"/>
<path d="M561.414 130.06C559.027 129.698 557.531 126.726 558.077 123.435C558.624 120.144 561.009 117.761 563.397 118.122C565.784 118.483 567.28 121.455 566.734 124.745C566.187 128.035 563.801 130.421 561.414 130.06ZM563.168 119.5C561.332 119.223 559.881 121.114 559.461 123.644C559.04 126.175 559.807 128.403 561.643 128.681C563.479 128.959 564.786 127.046 565.206 124.514C565.627 121.982 565.002 119.778 563.168 119.5Z" fill="#FBBC12"/>
<path d="M551.415 95.8607C549.872 94.5582 535.014 97.8341 534.19 105.92C533.373 110.682 532.872 126.471 534.492 128.901C536.807 132.905 542.16 136.365 544.632 136.851L545.296 136.928C547.804 137.195 554.01 135.511 557.51 132.387C559.837 130.553 564.474 115.391 565.241 110.622C567.245 103.084 555.468 96.2282 551.415 95.8623L551.415 95.8607Z" fill="#F4A762"/>
<path d="M534.568 104.253C538.328 105.859 540.033 103.823 544.09 100.425C547.751 96.9966 556.321 98.0791 558.662 102.893C560.78 106.846 560.779 108.55 565.313 108.724C567.413 91.7893 537.585 88.2438 534.568 104.253Z" fill="#427F93"/>
<rect width="198.558" height="189.731" rx="10" transform="matrix(0.995963 -0.0897788 0.0982946 0.995156 264.949 35.2463)" fill="#F5FAFF"/>
<path d="M459.047 208.369C456.834 196.369 447.079 170.102 421.844 167.132L392.441 164.367L362.67 167.069L334.332 175.023C310.126 182.452 305.687 210.003 305.863 222.187L459.045 208.371L459.047 208.369Z" fill="#F2A21D"/>
<path d="M373.946 106.481C373.946 106.481 373.946 106.474 373.942 106.463L373.928 106.438C373.936 106.456 373.941 106.467 373.948 106.481L373.946 106.481Z" fill="#CF8548"/>
<path d="M359.47 144.458L361.816 168.101C362.3 172.978 369.045 176.355 379.211 175.435C389.378 174.515 395.338 169.986 394.854 165.111L392.508 141.468L359.47 144.458Z" fill="#F6A55C"/>
<path d="M394.683 160.084L392.922 142.329L360.421 147.418L386.492 166.335C392.925 169.089 394.903 162.299 394.683 160.084Z" fill="#D18343"/>
<path d="M383.666 101.025L362.286 102.96C358.497 103.303 355.716 106.514 356.075 110.132L358.954 139.151C359.313 142.769 362.676 145.424 366.465 145.081L387.845 143.146C391.634 142.803 394.415 139.592 394.056 135.974L391.177 106.955C390.818 103.337 387.455 100.682 383.666 101.025Z" fill="#F6A55C"/>
<path d="M391.683 125.295C391.608 127.441 393.37 129.242 395.619 129.314C397.869 129.385 399.753 127.703 399.828 125.556L400.123 117.131C400.2 114.982 398.436 113.183 396.187 113.11C393.939 113.038 392.053 114.721 391.978 116.869L391.683 125.297L391.683 125.295Z" fill="#F6A55C"/>
<path d="M375.148 114.655C375.148 114.655 375.147 114.648 375.146 114.638L375.13 114.615C375.138 114.632 375.143 114.643 375.148 114.655Z" fill="#CF8548"/>
<path d="M359.062 128.24C359.557 130.334 358.181 132.419 355.985 132.893C353.79 133.366 351.609 132.052 351.113 129.957L349.165 121.734C348.669 119.637 350.046 117.554 352.241 117.079C354.435 116.606 356.618 117.92 357.114 120.017L359.06 128.242L359.062 128.24Z" fill="#F6A55C"/>
<path d="M394.339 115.856L390.565 116.243L391.483 125.325C391.593 126.42 391.056 127.854 390.386 128.761C389.715 129.672 388.496 130.485 387.504 130.577L375.782 131.689L364.55 132.655C363.554 132.741 362.199 132.16 361.359 131.388C360.523 130.616 359.711 129.306 359.606 128.21L358.722 119.125L354.443 119.467L356.082 136.651C356.675 141.974 363.14 154.066 364.871 154.663C366.318 155.995 368.624 156.846 370.338 156.706L385.485 155.32C387.196 155.151 389.294 153.909 390.453 152.341C392.247 150.594 397.023 136.338 396.107 133.025L394.339 115.856Z" fill="#B86C26"/>
<path d="M374.767 114.691C374.767 114.691 374.766 114.684 374.763 114.675L374.749 114.651C374.756 114.668 374.762 114.678 374.769 114.691L374.767 114.691Z" fill="#CF8548"/>
<path d="M392.67 96.9606C388.887 96.3118 384.597 93.6003 380.257 90.311C371.965 83.3863 359.08 85.496 356.878 98.6417C346.814 99.0567 348.684 107.009 350.949 117.879L353.83 117.729L354.953 125.503L359.297 125.11C358.876 116.648 357.891 111.603 359.472 108.692C366.82 98.3734 376.161 108.558 387.83 108.584C389.618 111.359 390.729 115.759 391.218 122.16L394.911 121.9L394.298 113.664L397.413 113.464C400.608 99.7489 397.692 97.5805 392.671 96.9605L392.67 96.9606Z" fill="#4C3B34"/>
<path d="M383.625 137.747C383.763 139.133 382.696 140.363 381.245 140.494L371.294 141.392C369.842 141.523 368.554 140.505 368.417 139.119C368.28 137.732 369.346 136.502 370.797 136.371L380.748 135.473C382.2 135.342 383.488 136.36 383.625 137.747Z" fill="#F6A55C"/>
<path d="M9.77797 73.6291L136.449 46.4813C141.849 45.324 147.25 48.7444 148.513 54.121L176.742 174.358C178.005 179.734 174.65 185.031 169.25 186.188L42.5794 213.336C37.1792 214.494 31.7781 211.073 30.5157 205.697L2.28573 85.4599C1.02337 80.0833 4.37775 74.7864 9.77797 73.6291Z" fill="#F5FAFF"/>
<path d="M59.9944 170.696C60.0887 170.655 87.9077 155.508 87.9077 155.508L105.01 151.857C105.01 151.857 134.073 154.862 134.177 154.861C150.555 157.26 156.285 174.682 166.653 186.842L44.8147 212.85C48.7949 197.627 46.2383 179.529 59.9961 170.696L59.9944 170.696Z" fill="#9F73C2"/>
<path d="M82.1341 134.993L88.4307 160.6C108.096 199.438 114.235 176.598 107.764 157.957L102.218 142.666L82.1358 134.994L82.1341 134.993Z" fill="#D08B6F"/>
<path d="M63.7907 127.514C66.0586 128.561 67.1017 130.132 67.672 131.821C68.4421 134.103 71.4027 136.071 73.8188 135.728C75.7967 135.448 77.3388 136.033 78.5089 137.288C79.5032 138.355 81.6885 138.682 82.9433 137.902C85.0086 136.619 86.5889 136.593 87.749 137.632C90.3225 139.936 94.6395 135.772 97.9192 133.951C103.378 130.922 109.78 126.522 107.76 121.228C107.073 119.43 107.491 117.594 108.723 116.386C109.951 115.18 109.603 112.728 108.595 111.327C107.573 109.907 106.759 108.426 107.425 106.659C108.118 104.827 106.541 102.248 104.632 101.336C103.231 100.668 101.947 99.8824 101.773 97.974C101.599 96.0524 99.0714 94.1563 97.1293 94.4227C95.1916 94.6896 93.5185 93.6383 91.9466 92.1139C90.4637 90.6766 87.558 89.9232 85.7486 90.9626C84.1468 91.8829 82.1349 91.7354 79.9779 91.2597C78.5283 90.9393 76.6125 91.2698 75.6382 92.381C74.2342 93.9813 72.4858 94.7533 70.5029 94.8984C68.8096 95.0236 66.956 96.3966 66.6654 97.9333C66.314 99.7924 65.215 101.21 63.2609 102.086C61.4668 102.89 60.2306 105.409 60.7998 107.201C61.3927 109.071 61.0986 110.791 59.7156 112.289C58.3908 113.724 58.732 116.462 59.9058 118.04C60.9613 119.46 61.7834 120.942 61.1885 122.695C60.6153 124.384 62.0439 126.707 63.7904 127.513L63.7907 127.514Z" fill="#50598E"/>
<path d="M45.948 107.547C47.4589 108.341 48.1138 109.449 48.4407 110.623C48.882 112.209 50.8321 113.654 52.4952 113.502C53.8578 113.377 54.8895 113.829 55.6427 114.728C56.2831 115.491 57.7638 115.789 58.6503 115.299C60.1106 114.493 61.191 114.529 61.9459 115.278C63.6186 116.94 66.7244 114.242 69.0349 113.109C72.8786 111.225 77.4194 108.436 76.2347 104.749C75.8319 103.496 76.1862 102.257 77.074 101.472C77.9581 100.69 77.8113 99.0021 77.1751 98.0105C76.53 97.0047 76.0282 95.9646 76.5496 94.7807C77.0912 93.5511 76.1104 91.7364 74.8384 91.0474C73.9066 90.5432 73.0576 89.9613 73.0102 88.6517C72.9634 87.3327 71.3054 85.9499 69.9675 86.0666C68.6324 86.1827 67.5293 85.4068 66.5105 84.313C65.5505 83.279 63.5926 82.6659 62.3172 83.3146C61.1884 83.8892 59.8188 83.7193 58.3624 83.3212C57.3834 83.0536 56.0614 83.2138 55.3547 83.9399C54.3358 84.9856 53.112 85.4532 51.7505 85.4864C50.5893 85.5133 49.2702 86.3896 49.0152 87.4298C48.7059 88.6878 47.9014 89.6196 46.5328 90.1514C45.2759 90.6394 44.3375 92.3191 44.6599 93.5635C44.996 94.8613 44.7297 96.0271 43.7286 97.0047C42.7693 97.9399 42.9002 99.8239 43.6442 100.941C44.3132 101.947 44.8196 102.989 44.3471 104.167C43.8927 105.301 44.7827 106.937 45.9456 107.549L45.948 107.547Z" fill="#50598E"/>
<path d="M103.26 111.479C104.078 114.818 105.174 117.489 107.93 121.902C110.145 127.002 109.248 133.382 106.094 139.704C103.339 144.432 94.2189 144.16 90.3631 142.391C80.9583 138.307 79.6024 133.84 79.3347 124.146C74.2981 113.054 78.5486 108.792 84.4703 108.305C89.4807 107.866 92.3056 106.995 94.2608 105.941C96.9411 104.498 100.88 104.015 103.26 111.479Z" fill="#D08B6F"/>
<path d="M72.3918 123.021C70.9923 125.086 72.3232 128.288 75.3652 130.172C78.4071 132.057 80.4648 131.103 81.8643 129.038C83.2638 126.974 83.4749 124.579 80.433 122.695C77.3911 120.81 73.7914 120.957 72.3918 123.021Z" fill="#D08B6F"/>
<path d="M102.192 142.675C96.4168 144.553 90.5869 142.941 87.8441 140.656C93.957 148.081 101.844 147.782 103.824 147.158L102.192 142.676L102.192 142.675Z" fill="#AE7159"/>
<path d="M78.1642 129.559C77.4955 129.701 76.8324 129.298 76.6831 128.659C76.5338 128.02 76.9549 127.387 77.6236 127.244C78.2923 127.102 78.9554 127.505 79.1046 128.144C79.2539 128.783 78.8329 129.417 78.1642 129.559Z" fill="#FFCA6E"/>
</svg>
