<svg width="259" height="52" viewBox="0 0 259 52" fill="none" xmlns="http://www.w3.org/2000/svg">
<g clip-path="url(#clip0_5892_49582)">
<path d="M4.31812 39.0237C4.4276 39.1403 4.54732 39.2478 4.67114 39.3521C4.5463 39.2488 4.42863 39.1403 4.31812 39.0237Z" fill="#00AAE1"/>
<path d="M4.74792 39.4194C4.89732 39.5371 5.0549 39.6466 5.22272 39.7438C5.0549 39.6466 4.89732 39.5371 4.74792 39.4194Z" fill="#00AAE1"/>
<path d="M44.7839 39.7438C44.9517 39.6466 45.1093 39.5381 45.2587 39.4194C45.1093 39.5371 44.9517 39.6466 44.7839 39.7438Z" fill="#00AAE1"/>
<path d="M38.5584 20.4974C38.5584 20.3316 38.5461 20.1668 38.5256 20.0042C38.5461 20.1668 38.5584 20.3306 38.5584 20.4974Z" fill="#00AAE1"/>
<path d="M37.8339 18.2064C37.8339 18.2064 37.8277 18.1982 37.8257 18.1931C37.8288 18.1972 37.8318 18.2013 37.8339 18.2064Z" fill="#00AAE1"/>
<path d="M12.9852 17.3367C12.9586 17.3582 12.9351 17.3827 12.9084 17.4042C12.9351 17.3827 12.9586 17.3582 12.9852 17.3367Z" fill="#00AAE1"/>
<path d="M37.0982 17.4042C37.0716 17.3827 37.0481 17.3582 37.0215 17.3367C37.0481 17.3582 37.0716 17.3817 37.0982 17.4042Z" fill="#00AAE1"/>
<path d="M37.4931 17.7805C37.4788 17.7651 37.4665 17.7487 37.4512 17.7334C37.4655 17.7487 37.4788 17.7651 37.4931 17.7805Z" fill="#00AAE1"/>
<path d="M38.3158 19.1425C38.3127 19.1322 38.3096 19.123 38.3055 19.1128C38.3096 19.122 38.3117 19.1322 38.3158 19.1425Z" fill="#00AAE1"/>
<path d="M38.3055 32.8861C38.3086 32.8779 38.3107 32.8698 38.3137 32.8616C38.3107 32.8698 38.3086 32.8779 38.3055 32.8861Z" fill="#00AAE1"/>
<path d="M38.4683 19.689C38.4581 19.6409 38.451 19.5917 38.4397 19.5447C38.452 19.5917 38.4581 19.6409 38.4683 19.689Z" fill="#00AAE1"/>
<path d="M38.4397 32.4541C38.451 32.409 38.4581 32.362 38.4673 32.3159C38.4571 32.362 38.451 32.408 38.4397 32.4541Z" fill="#00AAE1"/>
<path d="M38.5266 31.9948C38.5461 31.8331 38.5594 31.6704 38.5594 31.5046C38.5594 31.6704 38.5471 31.8331 38.5266 31.9948Z" fill="#00AAE1"/>
<path d="M4.27619 38.9754C4.15647 38.8454 4.04596 38.7073 3.94568 38.563C4.04596 38.7073 4.15749 38.8444 4.27619 38.9754Z" fill="#00AAE1"/>
<path d="M46.3617 13.9404L46.3663 13.9485C46.3663 13.9485 46.3629 13.9439 46.3617 13.9404Z" fill="#00AAE1"/>
<path d="M45.3364 39.3509C45.4602 39.2476 45.58 39.1401 45.6895 39.0225C45.5789 39.1391 45.4613 39.2476 45.3364 39.3509Z" fill="#00AAE1"/>
<path d="M46.3607 38.0585L38.1245 33.3035L46.3607 38.0585Z" fill="#00AAE1"/>
<path d="M46.0711 13.4514C46.0864 13.475 46.0967 13.4985 46.111 13.521C46.0967 13.4985 46.0854 13.4739 46.0701 13.4514H46.0711Z" fill="#00AAE1"/>
<path d="M25.523 40.9963C25.3501 41.0188 25.1772 41.0301 25.0032 41.0301C24.8293 41.0301 24.6563 41.0188 24.4834 40.9963C24.8282 41.0414 25.1782 41.0414 25.523 40.9963Z" fill="#00AAE1"/>
<path d="M12.5554 17.7327C12.5411 17.748 12.5278 17.7644 12.5134 17.7797C12.5278 17.7644 12.54 17.748 12.5554 17.7327Z" fill="#00AAE1"/>
<path d="M27.016 1.99801C26.3929 1.63885 25.6981 1.45875 25.0033 1.45875C24.3085 1.45875 23.6137 1.63885 22.9916 1.99801L5.22272 12.2562C5.0549 12.3534 4.89732 12.4618 4.74792 12.5805C4.89732 12.4629 5.0549 12.3534 5.22272 12.2562L22.9916 1.99801C24.2369 1.27866 25.7707 1.27866 27.016 1.99801L44.7849 12.2562C44.9527 12.3534 45.1103 12.4629 45.2597 12.5805C45.1103 12.4618 44.9527 12.3534 44.7849 12.2562L27.016 1.99801Z" fill="#00AAE1"/>
<path d="M12.1819 18.1931C12.1819 18.1931 12.1758 18.2013 12.1737 18.2064C12.1768 18.2023 12.1798 18.1982 12.1819 18.1931Z" fill="#00AAE1"/>
<path d="M11.883 18.6966C11.6068 19.2471 11.4482 19.8601 11.4482 20.4976V31.5027C11.4482 32.1402 11.6068 32.7521 11.883 33.3036L3.64582 38.0597C3.73075 38.2296 3.82796 38.3923 3.9354 38.5488C3.47596 37.8858 3.21094 37.0927 3.21094 36.2588V15.7415C3.21094 14.9075 3.47596 14.1145 3.9354 13.4514C3.82796 13.608 3.73075 13.7717 3.64582 13.9416L11.883 18.6977V18.6966Z" fill="#009BCC"/>
<path d="M46.3617 38.0595C46.3617 38.0595 46.3658 38.0534 46.3668 38.0493C46.2809 38.2222 46.1827 38.389 46.0721 38.5487C46.1796 38.3921 46.2768 38.2294 46.3617 38.0595Z" fill="#00AAE1"/>
<path d="M46.5818 14.4703C46.5265 14.3087 46.4641 14.149 46.3894 13.9966C46.4631 14.1501 46.5275 14.3077 46.5818 14.4703Z" fill="#00AAE1"/>
<path d="M37.8247 33.8068C37.8247 33.8068 37.8308 33.7975 37.8339 33.7935C37.8308 33.7975 37.8278 33.8027 37.8247 33.8068Z" fill="#00AAE1"/>
<path d="M46.7239 15.027C46.6953 14.8725 46.6615 14.719 46.6155 14.5696C46.6615 14.719 46.6963 14.8714 46.7239 15.027Z" fill="#00AAE1"/>
<path d="M45.6895 12.9764C45.58 12.8598 45.4603 12.7513 45.3354 12.6479C45.4603 12.7513 45.579 12.8598 45.6895 12.9764Z" fill="#00AAE1"/>
<path d="M46.062 13.437C45.9617 13.2928 45.8501 13.1556 45.7314 13.0247C45.8512 13.1556 45.9617 13.2928 46.062 13.437Z" fill="#00AAE1"/>
<path d="M46.3607 13.9404C46.2758 13.7716 46.1786 13.6089 46.0721 13.4534C46.1796 13.6089 46.2758 13.7716 46.3607 13.9404Z" fill="#00AAE1"/>
<path d="M46.3883 38.0053C46.464 37.8507 46.5275 37.6901 46.5827 37.5264C46.5285 37.6901 46.463 37.8497 46.3883 38.0053Z" fill="#00AAE1"/>
<path d="M45.7314 38.9754C45.8501 38.8444 45.9617 38.7083 46.062 38.563C45.9607 38.7073 45.8512 38.8444 45.7314 38.9754Z" fill="#00AAE1"/>
<path d="M46.7956 36.2585C46.7956 36.4571 46.7782 36.6525 46.7495 36.8459C46.7782 36.6535 46.7956 36.4571 46.7956 36.2585Z" fill="#00AAE1"/>
<path d="M46.6155 37.4314C46.6615 37.2809 46.6963 37.1275 46.725 36.9719C46.6973 37.1275 46.6615 37.2809 46.6155 37.4314Z" fill="#00AAE1"/>
<path d="M46.7956 15.7403C46.7956 15.5418 46.7782 15.3464 46.7495 15.155C46.7782 15.3474 46.7956 15.5428 46.7956 15.7403Z" fill="#00AAE1"/>
<path d="M12.9084 34.5959C12.9351 34.6174 12.9586 34.643 12.9862 34.6645C12.9596 34.643 12.9351 34.6185 12.9084 34.5959Z" fill="#00AAE1"/>
<path d="M37.4521 34.2673C37.4665 34.252 37.4798 34.2346 37.4941 34.2192C37.4798 34.2346 37.4665 34.252 37.4521 34.2673Z" fill="#00AAE1"/>
<path d="M12.5134 34.2192C12.5278 34.2346 12.5411 34.252 12.5554 34.2673C12.5411 34.252 12.5278 34.2346 12.5134 34.2192Z" fill="#00AAE1"/>
<path d="M37.0215 34.6633C37.0491 34.6418 37.0726 34.6172 37.0993 34.5947C37.0726 34.6172 37.0491 34.6418 37.0215 34.6633Z" fill="#00AAE1"/>
<path d="M4.67119 12.6479C4.54737 12.7513 4.42765 12.8598 4.31714 12.9764C4.42765 12.8598 4.54635 12.7513 4.67119 12.6479Z" fill="#00AAE1"/>
<path d="M4.27619 13.0247C4.15749 13.1556 4.04596 13.2928 3.94568 13.437C4.04698 13.2928 4.15647 13.1556 4.27619 13.0247Z" fill="#00AAE1"/>
<path d="M23.4705 40.7263C23.7979 40.8614 24.1386 40.9514 24.4835 40.9954C24.1386 40.9504 23.7979 40.8604 23.4705 40.7263Z" fill="#00AAE1"/>
<path d="M12.1726 33.7935C12.1726 33.7935 12.1787 33.8027 12.1818 33.8068C12.1787 33.8027 12.1757 33.7975 12.1726 33.7935Z" fill="#00AAE1"/>
<path d="M46.3607 13.9415L38.1245 18.6965C38.0396 18.5267 37.9424 18.3629 37.8339 18.2064C37.8308 18.2023 37.8278 18.1982 37.8257 18.1931C37.7254 18.0478 37.6129 17.9107 37.4942 17.7797C37.4799 17.7643 37.4676 17.748 37.4522 17.7326C37.3427 17.616 37.223 17.5075 37.0982 17.4042C37.0716 17.3827 37.0481 17.3581 37.0214 17.3366C36.8721 17.2179 36.7145 17.1095 36.5467 17.0122L27.015 11.5092C26.3929 11.15 25.6981 10.9699 25.0033 10.9699V1.45874C25.6981 1.45874 26.3929 1.63883 27.015 1.998L44.7839 12.2561C44.9517 12.3534 45.1093 12.4618 45.2587 12.5805C45.2853 12.602 45.3088 12.6266 45.3354 12.6481C45.4592 12.7514 45.5789 12.8599 45.6895 12.9765C45.7038 12.9919 45.7171 13.0093 45.7314 13.0246C45.8501 13.1556 45.9616 13.2927 46.0619 13.437C46.065 13.4421 46.0681 13.4462 46.0711 13.4513C46.0865 13.4738 46.0977 13.4984 46.1121 13.5209C46.2021 13.657 46.287 13.7961 46.3607 13.9415Z" fill="#007296"/>
<path d="M46.3619 13.9404L46.3607 13.9416L46.3619 13.9404Z" fill="#00AAE1"/>
<path d="M22.9916 1.998C23.6137 1.63883 24.3085 1.45874 25.0033 1.45874V10.9699C24.3085 10.9699 23.6137 11.15 22.9916 11.5092L13.4599 17.0122C13.2921 17.1095 13.1345 17.2179 12.9851 17.3366C12.9585 17.3581 12.935 17.3816 12.9084 17.4042C12.7846 17.5075 12.6638 17.616 12.5543 17.7326C12.54 17.748 12.5267 17.7643 12.5124 17.7797C12.3937 17.9107 12.2811 18.0478 12.1809 18.1931C12.1778 18.1972 12.1747 18.2013 12.1727 18.2064C12.0652 18.3629 11.968 18.5267 11.8821 18.6965L3.64587 13.9404C3.7308 13.7706 3.82801 13.6068 3.93546 13.4503C3.93853 13.4452 3.9416 13.4411 3.94467 13.436C4.04494 13.2917 4.15648 13.1546 4.27518 13.0236C4.2895 13.0082 4.3028 12.9908 4.31713 12.9755C4.42662 12.8588 4.54634 12.7504 4.67118 12.647C4.69778 12.6255 4.72132 12.601 4.74792 12.5795C4.89732 12.4608 5.0549 12.3523 5.22271 12.2551L22.9916 1.998Z" fill="#008DBA"/>
<path d="M25.0033 41.0301C25.1772 41.0301 25.3502 41.0189 25.5231 40.9964C26.0409 40.9288 26.5484 40.76 27.015 40.4909L36.5467 34.9878C36.7145 34.8906 36.8721 34.7821 37.0215 34.6634C37.0481 34.6419 37.0726 34.6174 37.0992 34.5949C37.223 34.4915 37.3428 34.3841 37.4522 34.2664C37.4666 34.251 37.4799 34.2337 37.4942 34.2183C37.6129 34.0873 37.7244 33.9502 37.8257 33.8059C37.8288 33.8018 37.8319 33.7967 37.8349 33.7926C37.9424 33.6361 38.0396 33.4724 38.1255 33.3025L46.3617 38.0576C46.2758 38.2264 46.1806 38.3911 46.0722 38.5477C46.0691 38.5528 46.066 38.5569 46.0629 38.562C46.066 38.5569 46.0691 38.5528 46.0722 38.5477C46.1796 38.3911 46.2768 38.2284 46.3617 38.0586C46.2768 38.2284 46.1796 38.3922 46.0722 38.5477C46.0691 38.5528 46.066 38.5569 46.0629 38.562C45.9627 38.7063 45.8511 38.8434 45.7324 38.9744C45.7181 38.9898 45.7048 39.0071 45.6905 39.0225C45.581 39.1391 45.4613 39.2466 45.3375 39.351C45.3109 39.3735 45.2873 39.398 45.2597 39.4195C45.1103 39.5372 44.9527 39.6467 44.7849 39.7439L27.016 50.002C26.5494 50.2712 26.0419 50.44 25.5241 50.5075C25.3512 50.53 25.1783 50.5413 25.0043 50.5413V41.0301H25.0033Z" fill="#3BBFEF"/>
<path d="M3.93546 38.5487C3.82801 38.3921 3.7308 38.2294 3.64587 38.0596L11.8831 33.3035C11.968 33.4733 12.0652 33.637 12.1737 33.7936C12.1768 33.7977 12.1798 33.8028 12.1829 33.8069C12.2832 33.9512 12.3947 34.0883 12.5144 34.2193C12.5288 34.2346 12.5421 34.252 12.5564 34.2674C12.6659 34.384 12.7856 34.4915 12.9094 34.5958C12.936 34.6184 12.9596 34.6429 12.9872 34.6644C13.1366 34.7821 13.2942 34.8916 13.462 34.9888L15.2721 36.0335L12.5011 42.6069L21.4147 39.5801L22.9936 40.4918C23.1492 40.5819 23.3098 40.6607 23.4725 40.7282C23.7999 40.8633 24.1407 40.9533 24.4855 40.9973C24.6585 41.0198 24.8314 41.0311 25.0053 41.0311V50.5423C24.4845 50.5423 23.9637 50.441 23.4725 50.2394C23.3088 50.1719 23.1492 50.0931 22.9936 50.003L5.22271 39.7438C5.0549 39.6466 4.89732 39.5382 4.74792 39.4195C4.72132 39.398 4.69676 39.3734 4.67015 39.3509C4.54634 39.2476 4.42662 39.1401 4.31713 39.0225C4.30281 39.0071 4.2895 38.9897 4.27518 38.9744C4.15648 38.8434 4.04494 38.7073 3.94467 38.562C3.9416 38.5569 3.93853 38.5528 3.93546 38.5477V38.5487Z" fill="#00AAE1"/>
<path d="M38.1245 33.3035C38.192 33.1674 38.2534 33.0282 38.3067 32.886C38.3097 32.8778 38.3118 32.8696 38.3148 32.8614C38.3629 32.7284 38.4049 32.5933 38.4397 32.4552C38.4509 32.4102 38.4581 32.3631 38.4673 32.3171C38.4898 32.2106 38.5123 32.1042 38.5267 31.9958C38.5471 31.8341 38.5594 31.6714 38.5594 31.5056V20.4974C38.5594 20.3306 38.5471 20.1669 38.5267 20.0042C38.5133 19.8978 38.4908 19.7934 38.4683 19.689C38.4581 19.6409 38.4509 19.5918 38.4397 19.5448C38.4049 19.4087 38.364 19.2746 38.3159 19.1426C38.3128 19.1324 38.3097 19.1232 38.3056 19.1129C38.2524 18.9717 38.1931 18.8326 38.1255 18.6985V18.6965L46.3617 13.9414C46.3617 13.9414 46.3648 13.9465 46.3658 13.9486C46.374 13.9649 46.3822 13.9813 46.3904 13.9977C46.4651 14.1512 46.5275 14.3098 46.5828 14.4715C46.594 14.5042 46.6063 14.5369 46.6165 14.5707C46.6626 14.7201 46.6974 14.8726 46.725 15.0281C46.7332 15.0711 46.7444 15.112 46.7506 15.156C46.7792 15.3484 46.7966 15.5438 46.7966 15.7413V36.2597C46.7966 36.4582 46.7792 36.6536 46.7506 36.847C46.7444 36.89 46.7332 36.9309 46.725 36.9729C46.6963 37.1284 46.6615 37.2829 46.6155 37.4323C46.6053 37.4651 46.594 37.4958 46.5828 37.5285C46.5275 37.6922 46.4641 37.8529 46.3883 38.0074C46.3812 38.0217 46.374 38.0371 46.3668 38.0514C46.3648 38.0545 46.3628 38.0575 46.3617 38.0606L38.1255 33.3055L38.1245 33.3035Z" fill="#66CDF5"/>
<path d="M46.3617 38.0586C46.2768 38.2285 46.1796 38.3922 46.0721 38.5478C46.1806 38.3922 46.2758 38.2275 46.3617 38.0576V38.0586Z" fill="#00AAE1"/>
<path d="M46.3607 13.9415C46.287 13.7962 46.2031 13.657 46.1121 13.5209C46.0977 13.4994 46.0865 13.4749 46.0721 13.4534C46.1796 13.6089 46.2758 13.7716 46.3607 13.9404V13.9415Z" fill="#00AAE1"/>
<path d="M46.0619 38.5629C46.0619 38.5629 46.068 38.5537 46.0711 38.5486L46.0619 38.5629Z" fill="#00AAE1"/>
</g>
<path d="M67.2405 39.1328C61.3518 39.1328 57.6077 36.2324 57.2913 31.8555L57.2737 31.6094H61.6682L61.6858 31.7852C61.8967 33.9121 64.1643 35.3184 67.3811 35.3184C70.4397 35.3184 72.5842 33.8066 72.5842 31.627V31.6094C72.5842 29.7812 71.2659 28.6738 67.9963 27.9707L65.2717 27.4082C60.0862 26.3184 57.8362 23.8926 57.8362 20.1133V20.0957C57.8362 15.5605 61.7385 12.502 67.2229 12.502C72.8479 12.502 76.3459 15.5781 76.6624 19.6562L76.6799 19.8848H72.3381L72.303 19.6738C71.9866 17.7051 70.1057 16.2988 67.2053 16.3164C64.3928 16.3164 62.3889 17.6348 62.3889 19.7969V19.8145C62.3889 21.6074 63.6721 22.7324 66.8362 23.4004L69.5608 23.9805C74.9045 25.1055 77.137 27.25 77.137 31.082V31.0996C77.137 36.0391 73.3225 39.1328 67.2405 39.1328ZM89.3362 38.5879C84.9241 38.5879 83.1135 37.1113 83.1135 33.4023V22.6797H80.1252V19.2871H83.1135V14.5762H87.5608V19.2871H91.6213V22.6797H87.5608V32.3652C87.5608 34.2812 88.3167 35.0898 90.1448 35.0898C90.76 35.0898 91.094 35.0723 91.6213 35.0195V38.3945C90.9885 38.5176 90.1799 38.5879 89.3362 38.5879ZM104.102 38.8867C98.3362 38.8867 94.8557 35.125 94.8557 28.9023V28.8672C94.8557 22.6973 98.3889 18.918 104.102 18.918C109.832 18.918 113.348 22.6797 113.348 28.8672V28.9023C113.348 35.125 109.85 38.8867 104.102 38.8867ZM104.102 35.3359C107.143 35.3359 108.865 32.9629 108.865 28.9199V28.8848C108.865 24.8418 107.125 22.4512 104.102 22.4512C101.061 22.4512 99.3206 24.8418 99.3206 28.8848V28.9199C99.3206 32.9629 101.061 35.3359 104.102 35.3359ZM125.987 38.8867C120.203 38.8867 116.793 35.1426 116.793 28.8672V28.832C116.793 22.627 120.186 18.918 125.969 18.918C130.908 18.918 133.862 21.6602 134.354 25.6328V25.7031H130.223L130.205 25.6504C129.801 23.7871 128.377 22.4512 125.987 22.4512C122.998 22.4512 121.24 24.8066 121.24 28.832V28.8672C121.24 32.9453 123.016 35.3359 125.987 35.3359C128.254 35.3359 129.643 34.2988 130.188 32.2773L130.223 32.207L134.354 32.1895L134.319 32.3301C133.686 36.2676 130.856 38.8867 125.987 38.8867ZM138.696 38.5V11.8516H143.073V27.1621H143.371L150.455 19.2871H155.518L147.783 27.4082L156.045 38.5H150.772L144.602 30.1855L143.073 31.75V38.5H138.696Z" fill="#179CCE"/>
<path d="M170.16 39.1328C162.971 39.1328 158.506 34.0352 158.506 25.8438V25.8086C158.506 17.582 162.953 12.502 170.143 12.502C175.908 12.502 180.285 16.1582 180.883 21.3438V21.4844H176.436L176.418 21.4141C175.768 18.4082 173.342 16.4219 170.143 16.4219C165.836 16.4219 163.147 20.0254 163.147 25.791V25.8262C163.147 31.6094 165.836 35.2129 170.16 35.2129C173.377 35.2129 175.768 33.4199 176.418 30.625L176.436 30.5371H180.883V30.6602C180.215 35.7402 176.014 39.1328 170.16 39.1328ZM185.664 38.5V11.8516H190.041V38.5H185.664ZM201.942 38.8867C197.617 38.8867 195.403 36.2852 195.403 31.7148V19.2871H199.78V30.7129C199.78 33.6836 200.887 35.1953 203.524 35.1953C206.354 35.1953 207.865 33.3672 207.865 30.4844V19.2871H212.242V38.5H207.865V35.582H207.567C206.67 37.6387 204.719 38.8867 201.942 38.8867ZM228.274 38.8164C225.584 38.8164 223.492 37.5859 222.438 35.4941H222.139V38.5H217.762V11.8516H222.139V22.3457H222.438C223.44 20.2715 225.637 18.9707 228.274 18.9707C233.143 18.9707 236.166 22.7676 236.166 28.8848V28.9199C236.166 35.002 233.09 38.8164 228.274 38.8164ZM226.903 35.125C229.891 35.125 231.701 32.7871 231.701 28.9199V28.8848C231.701 25.0176 229.891 22.6621 226.903 22.6621C223.932 22.6621 222.086 25.0352 222.086 28.8848V28.9199C222.086 32.7695 223.932 35.125 226.903 35.125ZM247.803 38.8867C242.916 38.8867 239.963 36.6367 239.594 33.3848V33.3496H243.936L243.953 33.3848C244.41 34.7207 245.694 35.6523 247.873 35.6523C250.053 35.6523 251.565 34.668 251.565 33.2266V33.1914C251.565 32.0664 250.721 31.3281 248.612 30.8535L245.5 30.1504C241.844 29.3418 240.104 27.6191 240.104 24.7891V24.7715C240.104 21.3086 243.268 18.918 247.803 18.918C252.479 18.918 255.274 21.2383 255.555 24.3496V24.3848H251.442L251.424 24.332C251.108 23.1191 249.842 22.1348 247.785 22.1348C245.834 22.1348 244.428 23.084 244.428 24.5254V24.543C244.428 25.668 245.237 26.3535 247.311 26.8281L250.422 27.5137C254.184 28.3574 255.959 29.957 255.959 32.752V32.7871C255.959 36.4434 252.531 38.8867 247.803 38.8867Z" fill="#127398"/>
<defs>
<clipPath id="clip0_5892_49582">
<rect width="43.5846" height="49.0826" fill="white" transform="translate(3.21094 1.45874)"/>
</clipPath>
</defs>
</svg>
