<svg width="112" height="112" viewBox="0 0 112 112" fill="none" xmlns="http://www.w3.org/2000/svg">
<path d="M47.9404 0L25.1208 5.54803L18.8315 26.9126L26.7343 34.4223L18.7327 41.8095L24.6598 63.266L47.3807 69.1818L55.3823 61.7947L63.2523 69.3044L86.0719 63.7564L92.3613 42.3919L84.4913 34.8821L92.493 27.4949L86.5658 6.03847L63.845 0.122608L55.8433 7.50977L47.9404 0ZM33.9457 9.65542L45.9647 6.71281L51.2333 11.7398L43.5609 18.8204L33.9457 9.65542ZM60.3217 11.8317L65.6561 6.89673L77.6092 10.0232L67.8294 19.0656C67.8623 19.035 60.3217 11.8317 60.3217 11.8317ZM26.0428 25.1654L29.3686 13.9161L38.9838 23.081L31.3114 30.1617L26.0428 25.1654ZM72.3736 23.3569L82.1534 14.3145L85.2816 25.6252L79.9472 30.5602C79.9142 30.5602 72.3736 23.3569 72.3736 23.3569ZM48.0722 23.173L55.7446 16.0924L63.2852 23.2956L55.6128 30.3762L48.0722 23.173ZM35.8227 34.4836L43.4951 27.403L51.0357 34.6062L43.3634 41.6869L35.8227 34.4836ZM60.1241 34.6675L67.7965 27.5869L75.3372 34.7902L67.6648 41.8708C67.6648 41.9014 60.1241 34.6675 60.1241 34.6675ZM25.9111 43.6793L31.2456 38.7443L38.7863 45.9475L29.0394 54.9899C29.0064 54.9899 25.9111 43.6793 25.9111 43.6793ZM47.8746 46.0088L55.547 38.9282L63.0877 46.1314L55.4153 53.2121L47.8746 46.0088ZM72.176 46.1927L79.8484 39.1121L85.117 44.139L81.8241 55.3884C81.7912 55.3884 72.176 46.1927 72.176 46.1927ZM33.5177 59.2812L43.2646 50.2388L50.8052 57.4421L45.4708 62.3771L33.5177 59.2812ZM59.9265 57.534L67.5989 50.4534L77.2141 59.6184L65.1951 62.561L59.9265 57.534Z" fill="#127398"/>
<path d="M17.6283 87.7832C15.9715 86.4858 13.1218 85.8372 9.07923 85.8372H0V112H6.79285V103.784H9.84135C13.5194 103.784 16.2366 103.011 17.9596 101.498C19.9146 99.799 20.8756 97.5441 20.8756 94.7023C20.8756 91.7987 19.7821 89.4821 17.6283 87.7832ZM9.64253 97.853H6.75972V91.7369H9.34431C12.4922 91.7369 14.0496 92.7563 14.0496 94.8258C14.0827 96.8336 12.5916 97.853 9.64253 97.853ZM32.4731 85.8063H25.4152V111.969H40.6908V106.039H32.4731V85.8063ZM54.5747 85.8063L43.4411 111.969H51.0623L52.5203 108.17H62.196L63.5214 111.969H71.2421L60.2078 85.8063H54.5747ZM54.4753 102.888L57.3913 93.9301L60.2741 102.888H54.4753Z" fill="#127398"/>
<path d="M74.9202 111.969H82.0113V85.8064H74.9202V111.969ZM109.481 90.7177C108.586 89.5131 107.426 88.4937 106.101 87.6906C103.947 86.4242 101.031 85.8064 97.3532 85.8064H88.0089V111.969H98.9106C102.854 111.969 106.035 110.765 108.421 108.355C110.806 105.946 111.999 102.764 111.999 98.7797C112.032 95.6291 111.171 92.9417 109.481 90.7177ZM98.1484 106.039H95.1331V91.7371H98.2147C100.369 91.7371 102.058 92.3548 103.218 93.6213C104.378 94.8877 104.974 96.6793 104.974 98.996C104.941 103.691 102.688 106.039 98.1484 106.039Z" fill="#127398"/>
</svg>
