<svg width="221" height="220" viewBox="0 0 221 220" fill="none" xmlns="http://www.w3.org/2000/svg">
<rect width="221" height="220" fill="#F5F5F5"/>
<g id="Landing Page, Feb 22, 2027">
<g id="Page 2" clip-path="url(#clip0_5858_6374)">
<rect width="1512" height="680" transform="translate(-154 -198)" fill="#00ABE1"/>
<g id="Background (Icons)">
<g id=".Master/Logo">
<g id="Logo-color" clip-path="url(#clip1_5858_6374)">
<path id="Vector" d="M182.182 65.4885C182.262 65.6138 182.353 65.7324 182.448 65.8489C182.352 65.7332 182.263 65.614 182.182 65.4885Z" fill="#14BCF0"/>
<path id="Vector_2" d="M182.507 65.9236C182.623 66.0566 182.749 66.1835 182.886 66.301C182.749 66.1835 182.623 66.0566 182.507 65.9236Z" fill="#14BCF0"/>
<path id="Vector_3" d="M219.053 73.0433C219.223 72.9831 219.386 72.9108 219.542 72.8278C219.386 72.9098 219.223 72.9831 219.053 73.0433Z" fill="#14BCF0"/>
<path id="Vector_4" d="M216.644 54.3912C216.672 54.2397 216.689 54.087 216.698 53.9348C216.689 54.087 216.672 54.2387 216.644 54.3912Z" fill="#14BCF0"/>
<path id="Vector_5" d="M216.372 52.1749C216.372 52.1749 216.368 52.1664 216.367 52.1614C216.369 52.1656 216.371 52.1699 216.372 52.1749Z" fill="#14BCF0"/>
<path id="Vector_6" d="M193.803 47.1447C193.775 47.1598 193.749 47.1782 193.721 47.1933C193.749 47.1782 193.775 47.1598 193.803 47.1447Z" fill="#14BCF0"/>
<path id="Vector_7" d="M215.836 51.315C215.816 51.2909 215.798 51.2644 215.778 51.2402C215.798 51.2644 215.816 51.2899 215.836 51.315Z" fill="#14BCF0"/>
<path id="Vector_8" d="M216.133 51.7277C216.123 51.7112 216.114 51.6941 216.103 51.6775C216.113 51.694 216.123 51.7112 216.133 51.7277Z" fill="#14BCF0"/>
<path id="Vector_9" d="M216.653 53.1114C216.652 53.1015 216.651 53.0926 216.649 53.0825C216.651 53.0916 216.651 53.1013 216.653 53.1114Z" fill="#14BCF0"/>
<path id="Vector_10" d="M214.3 65.6706C214.304 65.6637 214.307 65.6565 214.311 65.6496C214.307 65.6565 214.304 65.6637 214.3 65.6706Z" fill="#14BCF0"/>
<path id="Vector_11" d="M216.699 53.6365C216.698 53.5908 216.7 53.5447 216.698 53.4998C216.701 53.5449 216.698 53.5908 216.699 53.6365Z" fill="#14BCF0"/>
<path id="Vector_12" d="M214.496 65.2994C214.514 65.2601 214.528 65.2183 214.544 65.1778C214.527 65.2181 214.514 65.2592 214.496 65.2994Z" fill="#14BCF0"/>
<path id="Vector_13" d="M214.654 64.8952C214.7 64.7508 214.739 64.6044 214.768 64.4528C214.739 64.6044 214.7 64.751 214.654 64.8952Z" fill="#14BCF0"/>
<path id="Vector_14" d="M182.152 65.4354C182.064 65.2963 181.987 65.1512 181.92 65.0022C181.987 65.1512 182.065 65.2955 182.152 65.4354Z" fill="#14BCF0"/>
<path id="Vector_15" d="M219.625 72.7785C219.756 72.7051 219.884 72.6273 220.004 72.5384C219.883 72.6262 219.757 72.7053 219.625 72.7785Z" fill="#14BCF0"/>
<path id="Vector_16" d="M220.782 71.7711L214.063 66.0212L220.782 71.7711Z" fill="#14BCF0"/>
<path id="Vector_17" d="M201.231 70.904C201.07 70.8951 200.909 70.8759 200.75 70.8463C200.591 70.8166 200.435 70.7769 200.281 70.7268C200.589 70.8267 200.909 70.8864 201.231 70.904Z" fill="#14BCF0"/>
<path id="Vector_18" d="M193.343 47.4317C193.327 47.4433 193.312 47.456 193.297 47.4676C193.312 47.456 193.326 47.4431 193.343 47.4317Z" fill="#14BCF0"/>
<path id="Vector_19" d="M209.246 35.5161C208.738 35.0817 208.133 34.7986 207.498 34.6802C206.863 34.5618 206.197 34.608 205.567 34.8302L187.573 41.1773C187.403 41.2375 187.241 41.3098 187.084 41.3928C187.241 41.3108 187.403 41.2375 187.573 41.1773L205.567 34.8302C206.828 34.385 208.23 34.6464 209.246 35.5161L223.741 47.9205C223.878 48.038 224.003 48.1649 224.12 48.2979C224.004 48.164 223.878 48.038 223.741 47.9205L209.246 35.5161Z" fill="#14BCF0"/>
<path id="Vector_20" d="M192.923 47.79C192.923 47.79 192.916 47.7964 192.914 47.8007C192.917 47.7975 192.921 47.7943 192.923 47.79Z" fill="#14BCF0"/>
<path id="Vector_21" d="M192.564 48.1987C192.217 48.6547 191.968 49.1879 191.859 49.7705L189.982 59.829C189.874 60.4117 189.914 60.998 190.073 61.5491L181.731 64.4921C181.78 64.6618 181.841 64.8271 181.913 64.9885C181.606 64.3042 181.499 63.5342 181.641 62.772L185.14 44.0196C185.282 43.2574 185.659 42.5777 186.192 42.05C186.067 42.1748 185.951 42.3078 185.844 42.4486L192.563 48.1996L192.564 48.1987Z" fill="#14BCF0"/>
<path id="Vector_22" d="M220.783 71.7733C220.783 71.7733 220.788 71.7684 220.79 71.7648C220.681 71.9082 220.563 72.0439 220.435 72.171C220.56 72.0462 220.677 71.9141 220.783 71.7733Z" fill="#14BCF0"/>
<path id="Vector_23" d="M213.703 66.4306C213.703 66.4306 213.711 66.4232 213.714 66.42C213.711 66.4232 213.707 66.4274 213.703 66.4306Z" fill="#14BCF0"/>
<path id="Vector_24" d="M220.816 71.7285C220.911 71.6001 220.997 71.4641 221.075 71.3239C220.998 71.4643 220.911 71.599 220.816 71.7285Z" fill="#14BCF0"/>
<path id="Vector_25" d="M220.05 72.5021C220.181 72.4027 220.306 72.2973 220.423 72.1816C220.306 72.2962 220.182 72.4028 220.05 72.5021Z" fill="#14BCF0"/>
<path id="Vector_26" d="M190.791 62.9048C190.811 62.929 190.829 62.9564 190.85 62.9807C190.83 62.9565 190.811 62.9299 190.791 62.9048Z" fill="#14BCF0"/>
<path id="Vector_27" d="M213.285 66.7888C213.3 66.7772 213.315 66.7636 213.331 66.752C213.315 66.7636 213.3 66.7772 213.285 66.7888Z" fill="#14BCF0"/>
<path id="Vector_28" d="M190.493 62.4941C190.504 62.5106 190.513 62.5288 190.523 62.5452C190.513 62.5288 190.504 62.5106 190.493 62.4941Z" fill="#14BCF0"/>
<path id="Vector_29" d="M212.823 67.0761C212.852 67.0612 212.877 67.0427 212.906 67.0267C212.877 67.0427 212.852 67.0612 212.823 67.0761Z" fill="#14BCF0"/>
<path id="Vector_30" d="M187.002 41.4407C186.872 41.5141 186.744 41.5928 186.623 41.6806C186.744 41.5928 186.871 41.5139 187.002 41.4407Z" fill="#14BCF0"/>
<path id="Vector_31" d="M186.577 41.7187C186.446 41.8182 186.321 41.9245 186.204 42.0393C186.322 41.9247 186.445 41.818 186.577 41.7187Z" fill="#14BCF0"/>
<path id="Vector_32" d="M199.401 70.3074C199.677 70.4866 199.973 70.627 200.281 70.726C199.974 70.6261 199.677 70.4857 199.401 70.3074Z" fill="#14BCF0"/>
<path id="Vector_33" d="M190.255 62.0457C190.255 62.0457 190.259 62.0551 190.261 62.0594C190.259 62.0551 190.257 62.0499 190.255 62.0457Z" fill="#14BCF0"/>
<path id="Vector_34" d="M224.895 49.7284L216.554 52.6706C216.506 52.5009 216.445 52.3347 216.372 52.1731C216.37 52.1689 216.368 52.1646 216.367 52.1596C216.3 52.0097 216.221 51.8652 216.134 51.7252C216.124 51.7088 216.115 51.6917 216.104 51.6751C216.024 51.5498 215.933 51.4302 215.836 51.3145C215.816 51.2903 215.798 51.2639 215.778 51.2397C215.661 51.1057 215.536 50.9797 215.399 50.8623L207.624 44.208C207.116 43.7737 206.512 43.4906 205.876 43.3722L207.498 34.6792C208.133 34.7976 208.738 35.0806 209.245 35.515L223.741 47.9193C223.877 48.0368 224.003 48.1628 224.119 48.2967C224.14 48.3209 224.157 48.3473 224.178 48.3715C224.273 48.4871 224.364 48.6066 224.446 48.7321C224.456 48.7485 224.465 48.7667 224.476 48.7832C224.562 48.9231 224.64 49.0675 224.708 49.2164C224.709 49.2216 224.712 49.2259 224.714 49.2311C224.724 49.2543 224.73 49.2786 224.739 49.3017C224.798 49.4414 224.852 49.5831 224.895 49.7284Z" fill="#14BCF0"/>
<path id="Vector_35" d="M205.567 34.8291C206.197 34.6069 206.863 34.5607 207.498 34.6791L205.876 43.3721C205.241 43.2537 204.575 43.2999 203.945 43.5221L194.293 46.9272C194.123 46.9874 193.96 47.0597 193.803 47.1427C193.775 47.1578 193.75 47.1753 193.722 47.1914C193.591 47.2647 193.462 47.3433 193.342 47.4312C193.326 47.4428 193.311 47.4555 193.295 47.4671C193.165 47.5666 193.038 47.6727 192.922 47.7884C192.918 47.7916 192.915 47.7948 192.912 47.7992C192.787 47.924 192.67 48.057 192.563 48.1976L185.844 42.4468C185.951 42.306 186.068 42.173 186.193 42.0482C186.196 42.044 186.2 42.0408 186.204 42.0367C186.32 41.9219 186.445 41.8156 186.576 41.7161C186.592 41.7045 186.607 41.6909 186.623 41.6793C186.743 41.5914 186.87 41.5126 187.002 41.4394C187.03 41.4243 187.056 41.4059 187.084 41.3908C187.241 41.3078 187.403 41.2355 187.573 41.1753L205.567 34.8291Z" fill="#14BCF0"/>
<path id="Vector_36" d="M200.75 70.8466C200.909 70.8762 201.069 70.8954 201.231 70.9043C201.716 70.9309 202.209 70.863 202.681 70.6966L212.333 67.2915C212.503 67.2313 212.666 67.159 212.823 67.076C212.851 67.0609 212.877 67.0426 212.906 67.0266C213.036 66.9532 213.164 66.8754 213.284 66.7866C213.3 66.775 213.315 66.7613 213.331 66.7497C213.462 66.6503 213.587 66.544 213.704 66.4294C213.708 66.4261 213.712 66.422 213.715 66.4188C213.84 66.294 213.957 66.1609 214.064 66.0203L220.783 71.7702C220.676 71.9099 220.56 72.0442 220.435 72.1688C220.431 72.173 220.427 72.1762 220.424 72.1803C220.427 72.1762 220.431 72.173 220.435 72.1688C220.56 72.044 220.676 71.9119 220.783 71.7711C220.676 71.9119 220.559 72.045 220.435 72.1688C220.431 72.173 220.427 72.1762 220.424 72.1803C220.308 72.2951 220.182 72.4014 220.051 72.5009C220.036 72.5125 220.02 72.5261 220.005 72.5377C219.885 72.6257 219.757 72.7034 219.626 72.7777C219.598 72.7938 219.572 72.8122 219.543 72.8271C219.387 72.9092 219.224 72.9824 219.054 73.0427L201.06 79.3898C200.588 79.5562 200.095 79.624 199.61 79.5975C199.448 79.5886 199.288 79.5694 199.129 79.5398L200.751 70.8468L200.75 70.8466Z" fill="#14BCF0"/>
<path id="Vector_37" d="M181.913 64.9889C181.841 64.8275 181.78 64.6622 181.731 64.4925L190.073 61.5495C190.122 61.7192 190.182 61.8854 190.255 62.047C190.257 62.0513 190.259 62.0565 190.261 62.0607C190.328 62.2097 190.407 62.354 190.494 62.4942C190.504 62.5106 190.514 62.5288 190.524 62.5453C190.604 62.6705 190.695 62.7891 190.791 62.9056C190.811 62.9308 190.829 62.9572 190.85 62.9816C190.967 63.1146 191.092 63.2415 191.229 63.359L192.706 64.6224L189.051 70.158L197.716 68.9109L199.004 70.0133C199.131 70.1221 199.265 70.2215 199.402 70.3109C199.678 70.4902 199.974 70.6306 200.282 70.7296C200.436 70.7796 200.592 70.8194 200.751 70.849L199.13 79.542C198.653 79.4533 198.195 79.2719 197.78 79.004C197.642 78.9143 197.509 78.8151 197.382 78.7063L182.886 66.3006C182.749 66.1832 182.623 66.0572 182.507 65.9233C182.486 65.8991 182.468 65.8724 182.448 65.8473C182.352 65.7318 182.261 65.6132 182.181 65.487C182.17 65.4705 182.161 65.4523 182.151 65.4358C182.064 65.2959 181.986 65.1525 181.919 65.0026C181.917 64.9974 181.915 64.9931 181.913 64.9879L181.913 64.9889Z" fill="#14BCF0"/>
<path id="Vector_38" d="M214.063 66.0222C214.148 65.9093 214.228 65.7926 214.301 65.6717C214.305 65.6647 214.308 65.6576 214.313 65.6506C214.379 65.5372 214.441 65.4209 214.496 65.3006C214.514 65.2614 214.528 65.2196 214.545 65.1791C214.583 65.0856 214.622 64.9922 214.654 64.8955C214.7 64.7512 214.739 64.6046 214.767 64.4531L216.644 54.3919C216.673 54.2394 216.69 54.0877 216.699 53.9355C216.705 53.836 216.702 53.7367 216.699 53.6375C216.698 53.5918 216.7 53.5457 216.697 53.5008C216.689 53.3704 216.674 53.2409 216.653 53.1121C216.652 53.1022 216.651 53.0933 216.649 53.0832C216.624 52.9451 216.593 52.8078 216.555 52.6738L216.555 52.6719L224.895 49.7297C224.895 49.7297 224.897 49.7349 224.898 49.7369C224.903 49.7533 224.907 49.7696 224.912 49.786C224.954 49.939 224.984 50.0946 225.007 50.2518C225.012 50.2837 225.017 50.3157 225.021 50.3483C225.038 50.4927 225.043 50.638 225.042 50.7848C225.042 50.8255 225.046 50.8648 225.044 50.9061C225.037 51.0868 225.02 51.2684 224.986 51.4489L221.487 70.2022C221.453 70.3837 221.404 70.5593 221.345 70.7312C221.332 70.7694 221.315 70.8049 221.3 70.8419C221.247 70.9792 221.189 71.1144 221.122 71.2431C221.107 71.2713 221.091 71.2975 221.075 71.3255C220.997 71.4657 220.911 71.6017 220.816 71.73C220.807 71.7419 220.798 71.7547 220.789 71.7666C220.786 71.769 220.784 71.7715 220.782 71.7741L214.064 66.0243L214.063 66.0222Z" fill="#14BCF0"/>
<path id="Vector_39" d="M220.783 71.7715C220.676 71.9123 220.559 72.0453 220.434 72.1692C220.56 72.0455 220.675 71.9111 220.783 71.7706L220.783 71.7715Z" fill="#14BCF0"/>
<path id="Vector_40" d="M220.422 72.1828C220.422 72.1828 220.429 72.1754 220.433 72.1712L220.422 72.1828Z" fill="#14BCF0"/>
</g>
</g>
<g id=".Master/Logo_2">
<g id="Logo-color_2" clip-path="url(#clip2_5858_6374)">
<path id="Vector_41" d="M16.4994 194.896C16.5374 194.838 16.5704 194.776 16.6018 194.713C16.571 194.776 16.5373 194.837 16.4994 194.896Z" fill="#14BCF0"/>
<path id="Vector_42" d="M16.6227 194.673C16.657 194.598 16.687 194.52 16.7108 194.439C16.687 194.52 16.657 194.598 16.6227 194.673Z" fill="#14BCF0"/>
<path id="Vector_43" d="M12.6321 177.724C12.5738 177.663 12.5117 177.608 12.4462 177.557C12.5113 177.608 12.5738 177.663 12.6321 177.724Z" fill="#14BCF0"/>
<path id="Vector_44" d="M5.1443 182.339C5.07427 182.356 5.00595 182.378 4.93933 182.404C5.00595 182.378 5.07384 182.356 5.1443 182.339Z" fill="#14BCF0"/>
<path id="Vector_45" d="M4.25148 182.88C4.25148 182.88 4.24865 182.884 4.2467 182.885C4.24812 182.884 4.24953 182.882 4.25148 182.88Z" fill="#14BCF0"/>
<path id="Vector_46" d="M6.44521 193.47C6.45703 193.479 6.46983 193.486 6.48165 193.495C6.46983 193.486 6.45703 193.479 6.44521 193.47Z" fill="#14BCF0"/>
<path id="Vector_47" d="M3.98766 183.274C3.98132 183.288 3.97338 183.3 3.96704 183.314C3.97338 183.3 3.98089 183.288 3.98766 183.274Z" fill="#14BCF0"/>
<path id="Vector_48" d="M4.10577 183.069C4.10076 183.077 4.09511 183.084 4.09021 183.092C4.09522 183.084 4.10076 183.077 4.10577 183.069Z" fill="#14BCF0"/>
<path id="Vector_49" d="M4.59669 182.581C4.59268 182.583 4.58911 182.585 4.58521 182.588C4.58867 182.585 4.59279 182.583 4.59669 182.581Z" fill="#14BCF0"/>
<path id="Vector_50" d="M10.4034 181.168C10.3997 181.168 10.396 181.168 10.3922 181.167C10.396 181.168 10.3997 181.168 10.4034 181.168Z" fill="#14BCF0"/>
<path id="Vector_51" d="M4.8119 182.46C4.79264 182.469 4.77263 182.477 4.75391 182.487C4.77252 182.477 4.79264 182.469 4.8119 182.46Z" fill="#14BCF0"/>
<path id="Vector_52" d="M10.2073 181.156C10.1871 181.156 10.1665 181.158 10.1461 181.159C10.1666 181.159 10.1867 181.156 10.2073 181.156Z" fill="#14BCF0"/>
<path id="Vector_53" d="M10.0042 181.167C9.93387 181.175 9.86377 181.186 9.79374 181.203C9.86377 181.186 9.93376 181.175 10.0042 181.167Z" fill="#14BCF0"/>
<path id="Vector_54" d="M16.4831 194.918C16.4406 194.982 16.3936 195.043 16.343 195.1C16.3936 195.043 16.4401 194.982 16.4831 194.918Z" fill="#14BCF0"/>
<path id="Vector_55" d="M1.56982 179.718L1.57243 179.715C1.57243 179.715 1.57102 179.717 1.56982 179.718Z" fill="#14BCF0"/>
<path id="Vector_56" d="M12.4096 177.531C12.3532 177.489 12.2955 177.45 12.2345 177.416C12.2952 177.45 12.3531 177.489 12.4096 177.531Z" fill="#14BCF0"/>
<path id="Vector_57" d="M11.7581 177.231L10.5984 181.202L11.7581 177.231Z" fill="#14BCF0"/>
<path id="Vector_58" d="M1.39321 179.89C1.40156 179.882 1.41045 179.875 1.41848 179.866C1.41045 179.875 1.40124 179.882 1.39331 179.891L1.39321 179.89Z" fill="#14BCF0"/>
<path id="Vector_59" d="M15.147 185.733C15.1743 185.804 15.1969 185.876 15.2148 185.95C15.2328 186.023 15.2458 186.097 15.2542 186.173C15.2376 186.022 15.2016 185.875 15.147 185.733Z" fill="#14BCF0"/>
<path id="Vector_60" d="M6.65632 193.611C6.66428 193.615 6.67257 193.619 6.68053 193.624C6.67257 193.619 6.66439 193.616 6.65632 193.611Z" fill="#14BCF0"/>
<path id="Vector_61" d="M-1.48094 189.123C-1.56843 189.423 -1.57289 189.735 -1.50127 190.029C-1.42966 190.323 -1.28197 190.598 -1.06612 190.823L5.09862 197.274C5.15698 197.334 5.21904 197.39 5.28458 197.441C5.21947 197.39 5.15698 197.334 5.09862 197.274L-1.06612 190.823C-1.49835 190.371 -1.65645 189.723 -1.48094 189.123L1.02078 180.558C1.04455 180.477 1.07455 180.399 1.10886 180.323C1.07412 180.399 1.04455 180.477 1.02078 180.558L-1.48094 189.123Z" fill="#14BCF0"/>
<path id="Vector_62" d="M6.88954 193.721C6.88954 193.721 6.89363 193.722 6.896 193.723C6.89395 193.722 6.89191 193.721 6.88954 193.721Z" fill="#14BCF0"/>
<path id="Vector_63" d="M7.13235 193.795C7.39338 193.855 7.66864 193.859 7.93792 193.793L12.5867 192.659C12.856 192.593 13.0981 192.463 13.3026 192.289L16.1607 195.279C16.2237 195.226 16.2824 195.168 16.3375 195.107C16.1047 195.369 15.7971 195.563 15.4448 195.649L6.77791 197.764C6.42563 197.85 6.06332 197.82 5.73587 197.694C5.81308 197.723 5.89226 197.748 5.97277 197.766L7.13278 193.795L7.13235 193.795Z" fill="#14BCF0"/>
<path id="Vector_64" d="M11.7582 177.23C11.7582 177.23 11.7551 177.229 11.7533 177.229C11.8352 177.248 11.9158 177.272 11.9946 177.302C11.9174 177.273 11.8387 177.249 11.7582 177.23Z" fill="#14BCF0"/>
<path id="Vector_65" d="M1.77124 179.57C1.70864 179.61 1.64765 179.653 1.59094 179.7C1.64818 179.653 1.70811 179.61 1.77124 179.57Z" fill="#14BCF0"/>
<path id="Vector_66" d="M10.8416 181.277C10.8416 181.277 10.837 181.275 10.835 181.274C10.837 181.275 10.8395 181.276 10.8416 181.277Z" fill="#14BCF0"/>
<path id="Vector_67" d="M1.9916 179.453C1.92929 179.481 1.86793 179.511 1.80957 179.546C1.86793 179.511 1.92875 179.481 1.9916 179.453Z" fill="#14BCF0"/>
<path id="Vector_68" d="M1.23251 180.1C1.19452 180.159 1.16104 180.221 1.13025 180.284C1.16104 180.221 1.19462 180.159 1.23251 180.1Z" fill="#14BCF0"/>
<path id="Vector_69" d="M1.38805 179.896C1.33744 179.954 1.29102 180.015 1.24792 180.079C1.29091 180.015 1.33744 179.954 1.38805 179.896Z" fill="#14BCF0"/>
<path id="Vector_70" d="M1.57041 179.718C1.50785 179.771 1.44914 179.829 1.39441 179.89C1.44904 179.828 1.50785 179.771 1.57041 179.718Z" fill="#14BCF0"/>
<path id="Vector_71" d="M11.7329 177.226C11.6599 177.21 11.5855 177.199 11.5106 177.193C11.5853 177.199 11.6595 177.21 11.7329 177.226Z" fill="#14BCF0"/>
<path id="Vector_72" d="M12.2098 177.402C12.1423 177.366 12.0733 177.333 12.0016 177.305C12.073 177.333 12.1422 177.365 12.2098 177.402Z" fill="#14BCF0"/>
<path id="Vector_73" d="M10.9533 177.233C11.0371 177.213 11.1215 177.2 11.2061 177.192C11.1219 177.2 11.0371 177.213 10.9533 177.233Z" fill="#14BCF0"/>
<path id="Vector_74" d="M11.4673 177.189C11.399 177.185 11.3306 177.186 11.2619 177.19C11.3305 177.186 11.399 177.185 11.4673 177.189Z" fill="#14BCF0"/>
<path id="Vector_75" d="M2.2851 179.348C2.20124 179.369 2.12048 179.396 2.0426 179.428C2.12091 179.396 2.20168 179.369 2.2851 179.348Z" fill="#14BCF0"/>
<path id="Vector_76" d="M13.7437 191.723C13.75 191.71 13.7584 191.697 13.7646 191.683C13.7583 191.697 13.7504 191.709 13.7437 191.723Z" fill="#14BCF0"/>
<path id="Vector_77" d="M11.0749 181.386C11.0669 181.382 11.0582 181.378 11.0502 181.374C11.0582 181.378 11.0669 181.382 11.0749 181.386Z" fill="#14BCF0"/>
<path id="Vector_78" d="M13.625 191.928C13.63 191.921 13.636 191.913 13.641 191.906C13.636 191.913 13.63 191.921 13.625 191.928Z" fill="#14BCF0"/>
<path id="Vector_79" d="M11.2867 181.528C11.2747 181.518 11.2619 181.511 11.2497 181.502C11.2619 181.511 11.2747 181.518 11.2867 181.528Z" fill="#14BCF0"/>
<path id="Vector_80" d="M5.32117 197.466C5.37759 197.507 5.43575 197.547 5.49642 197.581C5.43575 197.547 5.3777 197.508 5.32117 197.466Z" fill="#14BCF0"/>
<path id="Vector_81" d="M5.52123 197.594C5.58879 197.631 5.65821 197.664 5.72949 197.691C5.6581 197.663 5.5889 197.631 5.52123 197.594Z" fill="#14BCF0"/>
<path id="Vector_82" d="M15.2443 186.628C15.2676 186.475 15.2705 186.322 15.2535 186.172C15.2701 186.322 15.2671 186.476 15.2443 186.628Z" fill="#14BCF0"/>
<path id="Vector_83" d="M13.4807 192.116C13.4807 192.116 13.484 192.112 13.4854 192.111C13.484 192.112 13.4821 192.114 13.4807 192.116Z" fill="#14BCF0"/>
<path id="Vector_84" d="M1.57043 179.718L4.428 182.708C4.365 182.762 4.30586 182.819 4.25091 182.881C4.24949 182.883 4.24808 182.885 4.24613 182.886C4.19509 182.944 4.14877 183.005 4.10568 183.069C4.10067 183.077 4.09502 183.084 4.09012 183.092C4.05213 183.15 4.01865 183.212 3.98786 183.275C3.98153 183.288 3.97358 183.301 3.96724 183.314C3.9325 183.39 3.90293 183.468 3.87916 183.548L2.53703 188.143C2.44944 188.443 2.44498 188.755 2.51659 189.049L-1.5011 190.029C-1.57271 189.736 -1.56825 189.424 -1.48066 189.124L1.02106 180.558C1.04482 180.477 1.0744 180.4 1.10914 180.324C1.11547 180.311 1.12342 180.298 1.12976 180.285C1.16065 180.222 1.19413 180.16 1.23201 180.101C1.23702 180.094 1.243 180.086 1.248 180.079C1.2911 180.015 1.33752 179.954 1.38813 179.897C1.38998 179.895 1.39139 179.893 1.39323 179.891C1.40116 179.882 1.41037 179.875 1.41841 179.867C1.46661 179.815 1.51664 179.764 1.57043 179.718Z" fill="#14BCF0"/>
<path id="Vector_85" d="M-1.06544 190.823C-1.28129 190.597 -1.42898 190.322 -1.50059 190.028L2.5171 189.048C2.58872 189.341 2.73641 189.616 2.95225 189.842L6.25931 193.302C6.31767 193.363 6.37973 193.419 6.44527 193.469C6.45709 193.478 6.46946 193.486 6.48171 193.495C6.53813 193.537 6.59639 193.576 6.65695 193.611C6.66491 193.615 6.6732 193.619 6.68116 193.623C6.74872 193.66 6.81825 193.694 6.88996 193.721C6.892 193.722 6.89405 193.723 6.89642 193.723C6.97363 193.752 7.05281 193.776 7.13342 193.795L5.9733 197.766C5.89279 197.747 5.81361 197.723 5.7364 197.694C5.73393 197.693 5.73188 197.692 5.7294 197.691C5.65812 197.664 5.5887 197.631 5.52114 197.594C5.51318 197.59 5.50446 197.586 5.4965 197.581C5.43594 197.547 5.37778 197.508 5.32126 197.466C5.30944 197.457 5.29664 197.449 5.28482 197.44C5.21928 197.389 5.15722 197.334 5.09886 197.273L-1.06544 190.823Z" fill="#14BCF0"/>
<path id="Vector_86" d="M15.2145 185.949C15.1966 185.875 15.174 185.803 15.1466 185.732C15.0647 185.521 14.9411 185.324 14.7793 185.154L11.4723 181.694C11.4139 181.633 11.3519 181.578 11.2863 181.527C11.2745 181.518 11.2616 181.51 11.2493 181.501C11.1929 181.46 11.1352 181.42 11.0742 181.386C11.0662 181.382 11.0575 181.378 11.0496 181.373C10.982 181.337 10.9126 181.304 10.8412 181.276C10.8392 181.275 10.8367 181.274 10.8346 181.273C10.7574 181.244 10.6782 181.22 10.5976 181.201L11.7573 177.231C11.8375 177.25 11.9169 177.273 11.9942 177.302C11.9967 177.303 11.9987 177.304 12.0012 177.305C11.9987 177.304 11.9967 177.303 11.9942 177.302C11.917 177.273 11.8383 177.249 11.7578 177.231C11.8383 177.249 11.9174 177.273 11.9942 177.302C11.9967 177.303 11.9987 177.304 12.0012 177.305C12.0725 177.332 12.1419 177.365 12.2095 177.402C12.2174 177.406 12.2262 177.41 12.2341 177.415C12.2947 177.449 12.3524 177.488 12.4093 177.53C12.4215 177.539 12.4343 177.546 12.4462 177.556C12.5113 177.607 12.5738 177.662 12.6322 177.723L18.7969 184.173C18.9587 184.343 19.0823 184.54 19.1642 184.751C19.1916 184.822 19.2141 184.894 19.2321 184.968L15.2144 185.948L15.2145 185.949Z" fill="#14BCF0"/>
<path id="Vector_87" d="M16.3379 195.106C16.2829 195.168 16.2242 195.226 16.1612 195.279L13.3031 192.289C13.3661 192.236 13.4252 192.178 13.4801 192.116C13.4816 192.114 13.4834 192.112 13.4848 192.111C13.5354 192.053 13.5819 191.992 13.6248 191.928C13.6298 191.92 13.6358 191.913 13.6408 191.905C13.6788 191.847 13.7119 191.785 13.7432 191.722C13.75 191.709 13.7579 191.696 13.7641 191.682C13.7984 191.607 13.8285 191.529 13.8522 191.448L14.107 190.576L17.1693 191.069L14.972 187.615L15.1944 186.853C15.2164 186.778 15.2331 186.702 15.2448 186.627C15.2681 186.474 15.2711 186.321 15.2541 186.171C15.2458 186.096 15.2327 186.021 15.2148 185.948L19.2325 184.967C19.2862 185.187 19.2971 185.418 19.2625 185.646C19.2509 185.722 19.234 185.798 19.212 185.873L16.7101 194.439C16.6863 194.52 16.6568 194.598 16.622 194.673C16.6157 194.687 16.6078 194.7 16.6011 194.713C16.5702 194.776 16.5371 194.838 16.4987 194.896C16.4937 194.904 16.4877 194.911 16.4827 194.919C16.4396 194.983 16.3936 195.044 16.3426 195.101C16.3408 195.103 16.3393 195.105 16.3375 195.106L16.3379 195.106Z" fill="#14BCF0"/>
<path id="Vector_88" d="M10.5988 181.202C10.5344 181.188 10.4692 181.176 10.4037 181.168C10.3999 181.168 10.3962 181.168 10.3925 181.167C10.3313 181.161 10.2699 181.157 10.208 181.156C10.1878 181.156 10.1672 181.158 10.1468 181.159C10.0995 181.16 10.0522 181.162 10.005 181.167C9.93455 181.175 9.86456 181.187 9.79454 181.204L5.14447 182.339C5.07402 182.356 5.00612 182.378 4.93951 182.403C4.89593 182.42 4.85416 182.44 4.81239 182.46C4.79313 182.47 4.77312 182.478 4.7544 182.487C4.70049 182.516 4.64809 182.547 4.59729 182.581C4.59328 182.583 4.58971 182.586 4.58581 182.589C4.53164 182.626 4.47897 182.665 4.42931 182.707L4.42845 182.708L1.57088 179.718C1.57088 179.718 1.57272 179.716 1.57348 179.715C1.57955 179.71 1.58563 179.705 1.5917 179.7C1.64884 179.653 1.7094 179.61 1.772 179.57C1.78467 179.562 1.79724 179.553 1.81044 179.545C1.86881 179.51 1.92962 179.48 1.99248 179.452C2.00979 179.444 2.02592 179.435 2.04387 179.428C2.12218 179.396 2.20294 179.369 2.28637 179.348L10.9537 177.233C11.0375 177.213 11.1219 177.2 11.2065 177.192C11.2253 177.19 11.2438 177.191 11.2623 177.19C11.331 177.186 11.3999 177.185 11.4677 177.189C11.4826 177.19 11.4967 177.191 11.5117 177.193C11.5866 177.199 11.661 177.209 11.734 177.225C11.7408 177.227 11.7481 177.228 11.7548 177.23C11.7564 177.23 11.7579 177.231 11.7593 177.231L10.5996 181.201L10.5988 181.202Z" fill="#14BCF0"/>
<path id="Vector_89" d="M11.7576 177.231C11.8381 177.25 11.9173 177.274 11.994 177.303C11.9172 177.273 11.8378 177.25 11.7571 177.231L11.7576 177.231Z" fill="#14BCF0"/>
<path id="Vector_90" d="M1.57085 179.718C1.51706 179.764 1.46692 179.814 1.41882 179.866C1.41122 179.874 1.40201 179.882 1.39441 179.89C1.44904 179.828 1.50785 179.771 1.57041 179.718L1.57085 179.718Z" fill="#14BCF0"/>
<path id="Vector_91" d="M12.0018 177.306C12.0018 177.306 11.9973 177.304 11.9948 177.303L12.0018 177.306Z" fill="#14BCF0"/>
</g>
</g>
</g>
<g id="QR Code+Card+Illustration">
<g id="QR Code+Illustrations">
<g id="QR Code">
<rect id="Rectangle" x="-111.5" y="-115.5" width="443" height="515" rx="37.5" fill="#00ABE1" stroke="white" stroke-width="25"/>
<g id="Frame 22953">
<g id="Group">
<g id="Group_2">
<g id="Group_3">
<path id="Vector_92" d="M60.3289 -0.000976562H53.6766V6.65131H60.3289V-0.000976562Z" fill="white"/>
</g>
</g>
<g id="Group_4">
<g id="Group_5">
<path id="Vector_93" d="M67.0404 -0.000976562H60.3881V6.65131H67.0404V-0.000976562Z" fill="white"/>
</g>
</g>
<g id="Group_6">
<g id="Group_7">
<path id="Vector_94" d="M80.3592 -0.000976562H73.7069V6.65131H80.3592V-0.000976562Z" fill="white"/>
</g>
</g>
<g id="Group_8">
<g id="Group_9">
<path id="Vector_95" d="M93.663 -0.000976562H87.0107V6.65131H93.663V-0.000976562Z" fill="white"/>
</g>
</g>
<g id="Group_10">
<g id="Group_11">
<path id="Vector_96" d="M100.315 -0.000976562H93.6626V6.65131H100.315V-0.000976562Z" fill="white"/>
</g>
</g>
<g id="Group_12">
<g id="Group_13">
<path id="Vector_97" d="M113.619 -0.000976562H106.967V6.65131H113.619V-0.000976562Z" fill="white"/>
</g>
</g>
<g id="Group_14">
<g id="Group_15">
<path id="Vector_98" d="M120.242 -0.000976562H113.589V6.65131H120.242V-0.000976562Z" fill="white"/>
</g>
</g>
<g id="Group_16">
<g id="Group_17">
<path id="Vector_99" d="M126.879 -0.000976562H120.227V6.65131H126.879V-0.000976562Z" fill="white"/>
</g>
</g>
<g id="Group_18">
<g id="Group_19">
<path id="Vector_100" d="M146.864 -0.000976562H140.212V6.65131H146.864V-0.000976562Z" fill="white"/>
</g>
</g>
<g id="Group_20">
<g id="Group_21">
<path id="Vector_101" d="M60.3289 6.65112H53.6766V13.3034H60.3289V6.65112Z" fill="white"/>
</g>
</g>
<g id="Group_22">
<g id="Group_23">
<path id="Vector_102" d="M73.7067 6.65112H67.0544V13.3034H73.7067V6.65112Z" fill="white"/>
</g>
</g>
<g id="Group_24">
<g id="Group_25">
<path id="Vector_103" d="M86.9665 6.65112H80.3142V13.3034H86.9665V6.65112Z" fill="white"/>
</g>
</g>
<g id="Group_26">
<g id="Group_27">
<path id="Vector_104" d="M93.663 6.65112H87.0107V13.3034H93.663V6.65112Z" fill="white"/>
</g>
</g>
<g id="Group_28">
<g id="Group_29">
<path id="Vector_105" d="M100.315 6.65112H93.6626V13.3034H100.315V6.65112Z" fill="white"/>
</g>
</g>
<g id="Group_30">
<g id="Group_31">
<path id="Vector_106" d="M113.619 6.65112H106.967V13.3034H113.619V6.65112Z" fill="white"/>
</g>
</g>
<g id="Group_32">
<g id="Group_33">
<path id="Vector_107" d="M120.242 6.65112H113.589V13.3034H120.242V6.65112Z" fill="white"/>
</g>
</g>
<g id="Group_34">
<g id="Group_35">
<path id="Vector_108" d="M126.879 6.65112H120.227V13.3034H126.879V6.65112Z" fill="white"/>
</g>
</g>
<g id="Group_36">
<g id="Group_37">
<path id="Vector_109" d="M133.56 6.65112H126.908V13.3034H133.56V6.65112Z" fill="white"/>
</g>
</g>
<g id="Group_38">
<g id="Group_39">
<path id="Vector_110" d="M140.212 6.65112H133.56V13.3034H140.212V6.65112Z" fill="white"/>
</g>
</g>
<g id="Group_40">
<g id="Group_41">
<path id="Vector_111" d="M153.532 6.65112H146.88V13.3034H153.532V6.65112Z" fill="white"/>
</g>
</g>
<g id="Group_42">
<g id="Group_43">
<path id="Vector_112" d="M60.3289 13.3105H53.6766V19.9628H60.3289V13.3105Z" fill="white"/>
</g>
</g>
<g id="Group_44">
<g id="Group_45">
<path id="Vector_113" d="M67.0404 13.3105H60.3881V19.9628H67.0404V13.3105Z" fill="white"/>
</g>
</g>
<g id="Group_46">
<g id="Group_47">
<path id="Vector_114" d="M73.7067 13.3105H67.0544V19.9628H73.7067V13.3105Z" fill="white"/>
</g>
</g>
<g id="Group_48">
<g id="Group_49">
<path id="Vector_115" d="M80.3592 13.3105H73.7069V19.9628H80.3592V13.3105Z" fill="white"/>
</g>
</g>
<g id="Group_50">
<g id="Group_51">
<path id="Vector_116" d="M86.9665 13.3105H80.3142V19.9628H86.9665V13.3105Z" fill="white"/>
</g>
</g>
<g id="Group_52">
<g id="Group_53">
<path id="Vector_117" d="M93.663 13.3105H87.0107V19.9628H93.663V13.3105Z" fill="white"/>
</g>
</g>
<g id="Group_54">
<g id="Group_55">
<path id="Vector_118" d="M100.315 13.3105H93.6626V19.9628H100.315V13.3105Z" fill="white"/>
</g>
</g>
<g id="Group_56">
<g id="Group_57">
<path id="Vector_119" d="M113.619 13.3105H106.967V19.9628H113.619V13.3105Z" fill="white"/>
</g>
</g>
<g id="Group_58">
<g id="Group_59">
<path id="Vector_120" d="M133.56 13.3105H126.908V19.9628H133.56V13.3105Z" fill="white"/>
</g>
</g>
<g id="Group_60">
<g id="Group_61">
<path id="Vector_121" d="M140.212 13.3105H133.56V19.9628H140.212V13.3105Z" fill="white"/>
</g>
</g>
<g id="Group_62">
<g id="Group_63">
<path id="Vector_122" d="M146.864 13.3105H140.212V19.9628H146.864V13.3105Z" fill="white"/>
</g>
</g>
<g id="Group_64">
<g id="Group_65">
<path id="Vector_123" d="M160.139 13.3105H153.487V19.9628H160.139V13.3105Z" fill="white"/>
</g>
</g>
<g id="Group_66">
<g id="Group_67">
<path id="Vector_124" d="M166.851 13.3105H160.198V19.9628H166.851V13.3105Z" fill="white"/>
</g>
</g>
<g id="Group_68">
<g id="Group_69">
<path id="Vector_125" d="M67.0404 19.9551H60.3881V26.6074H67.0404V19.9551Z" fill="white"/>
</g>
</g>
<g id="Group_70">
<g id="Group_71">
<path id="Vector_126" d="M73.7067 19.9551H67.0544V26.6074H73.7067V19.9551Z" fill="white"/>
</g>
</g>
<g id="Group_72">
<g id="Group_73">
<path id="Vector_127" d="M80.3592 19.9551H73.7069V26.6074H80.3592V19.9551Z" fill="white"/>
</g>
</g>
<g id="Group_74">
<g id="Group_75">
<path id="Vector_128" d="M100.315 19.9551H93.6626V26.6074H100.315V19.9551Z" fill="white"/>
</g>
</g>
<g id="Group_76">
<g id="Group_77">
<path id="Vector_129" d="M113.619 19.9551H106.967V26.6074H113.619V19.9551Z" fill="white"/>
</g>
</g>
<g id="Group_78">
<g id="Group_79">
<path id="Vector_130" d="M120.242 19.9551H113.589V26.6074H120.242V19.9551Z" fill="white"/>
</g>
</g>
<g id="Group_80">
<g id="Group_81">
<path id="Vector_131" d="M140.212 19.9551H133.56V26.6074H140.212V19.9551Z" fill="white"/>
</g>
</g>
<g id="Group_82">
<g id="Group_83">
<path id="Vector_132" d="M166.851 19.9551H160.198V26.6074H166.851V19.9551Z" fill="white"/>
</g>
</g>
<g id="Group_84">
<g id="Group_85">
<path id="Vector_133" d="M60.3289 26.6072H53.6766V33.2595H60.3289V26.6072Z" fill="white"/>
</g>
</g>
<g id="Group_86">
<g id="Group_87">
<path id="Vector_134" d="M73.7067 26.6072H67.0544V33.2595H73.7067V26.6072Z" fill="white"/>
</g>
</g>
<g id="Group_88">
<g id="Group_89">
<path id="Vector_135" d="M93.663 26.6072H87.0107V33.2595H93.663V26.6072Z" fill="white"/>
</g>
</g>
<g id="Group_90">
<g id="Group_91">
<path id="Vector_136" d="M106.982 26.6072H100.33V33.2595H106.982V26.6072Z" fill="white"/>
</g>
</g>
<g id="Group_92">
<g id="Group_93">
<path id="Vector_137" d="M113.619 26.6072H106.967V33.2595H113.619V26.6072Z" fill="white"/>
</g>
</g>
<g id="Group_94">
<g id="Group_95">
<path id="Vector_138" d="M133.56 26.6072H126.908V33.2595H133.56V26.6072Z" fill="white"/>
</g>
</g>
<g id="Group_96">
<g id="Group_97">
<path id="Vector_139" d="M146.864 26.6072H140.212V33.2595H146.864V26.6072Z" fill="white"/>
</g>
</g>
<g id="Group_98">
<g id="Group_99">
<path id="Vector_140" d="M153.532 26.6072H146.88V33.2595H153.532V26.6072Z" fill="white"/>
</g>
</g>
<g id="Group_100">
<g id="Group_101">
<path id="Vector_141" d="M93.663 33.259H87.0107V39.9113H93.663V33.259Z" fill="white"/>
</g>
</g>
<g id="Group_102">
<g id="Group_103">
<path id="Vector_142" d="M100.315 33.259H93.6626V39.9113H100.315V33.259Z" fill="white"/>
</g>
</g>
<g id="Group_104">
<g id="Group_105">
<path id="Vector_143" d="M106.982 33.259H100.33V39.9113H106.982V33.259Z" fill="white"/>
</g>
</g>
<g id="Group_106">
<g id="Group_107">
<path id="Vector_144" d="M113.619 33.259H106.967V39.9113H113.619V33.259Z" fill="white"/>
</g>
</g>
<g id="Group_108">
<g id="Group_109">
<path id="Vector_145" d="M140.212 33.259H133.56V39.9113H140.212V33.259Z" fill="white"/>
</g>
</g>
<g id="Group_110">
<g id="Group_111">
<path id="Vector_146" d="M160.139 33.259H153.487V39.9113H160.139V33.259Z" fill="white"/>
</g>
</g>
<g id="Group_112">
<g id="Group_113">
<path id="Vector_147" d="M166.851 33.259H160.198V39.9113H166.851V33.259Z" fill="white"/>
</g>
</g>
<g id="Group_114">
<g id="Group_115">
<path id="Vector_148" d="M60.3289 39.9114H53.6766V46.5637H60.3289V39.9114Z" fill="white"/>
</g>
</g>
<g id="Group_116">
<g id="Group_117">
<path id="Vector_149" d="M73.7067 39.9114H67.0544V46.5637H73.7067V39.9114Z" fill="white"/>
</g>
</g>
<g id="Group_118">
<g id="Group_119">
<path id="Vector_150" d="M86.9665 39.9114H80.3142V46.5637H86.9665V39.9114Z" fill="white"/>
</g>
</g>
<g id="Group_120">
<g id="Group_121">
<path id="Vector_151" d="M100.315 39.9114H93.6626V46.5637H100.315V39.9114Z" fill="white"/>
</g>
</g>
<g id="Group_122">
<g id="Group_123">
<path id="Vector_152" d="M113.619 39.9114H106.967V46.5637H113.619V39.9114Z" fill="white"/>
</g>
</g>
<g id="Group_124">
<g id="Group_125">
<path id="Vector_153" d="M126.879 39.9114H120.227V46.5637H126.879V39.9114Z" fill="white"/>
</g>
</g>
<g id="Group_126">
<g id="Group_127">
<path id="Vector_154" d="M140.212 39.9114H133.56V46.5637H140.212V39.9114Z" fill="white"/>
</g>
</g>
<g id="Group_128">
<g id="Group_129">
<path id="Vector_155" d="M153.532 39.9114H146.88V46.5637H153.532V39.9114Z" fill="white"/>
</g>
</g>
<g id="Group_130">
<g id="Group_131">
<path id="Vector_156" d="M166.851 39.9114H160.198V46.5637H166.851V39.9114Z" fill="white"/>
</g>
</g>
<g id="Group_132">
<g id="Group_133">
<path id="Vector_157" d="M67.0404 46.571H60.3881V53.2233H67.0404V46.571Z" fill="white"/>
</g>
</g>
<g id="Group_134">
<g id="Group_135">
<path id="Vector_158" d="M80.3592 46.571H73.7069V53.2233H80.3592V46.571Z" fill="white"/>
</g>
</g>
<g id="Group_136">
<g id="Group_137">
<path id="Vector_159" d="M93.663 46.571H87.0107V53.2233H93.663V46.571Z" fill="white"/>
</g>
</g>
<g id="Group_138">
<g id="Group_139">
<path id="Vector_160" d="M100.315 46.571H93.6626V53.2233H100.315V46.571Z" fill="white"/>
</g>
</g>
<g id="Group_140">
<g id="Group_141">
<path id="Vector_161" d="M106.982 46.571H100.33V53.2233H106.982V46.571Z" fill="white"/>
</g>
</g>
<g id="Group_142">
<g id="Group_143">
<path id="Vector_162" d="M113.619 46.571H106.967V53.2233H113.619V46.571Z" fill="white"/>
</g>
</g>
<g id="Group_144">
<g id="Group_145">
<path id="Vector_163" d="M133.56 46.571H126.908V53.2233H133.56V46.571Z" fill="white"/>
</g>
</g>
<g id="Group_146">
<g id="Group_147">
<path id="Vector_164" d="M7.17158 53.2153H0.519287V59.8676H7.17158V53.2153Z" fill="white"/>
</g>
</g>
<g id="Group_148">
<g id="Group_149">
<path id="Vector_165" d="M27.1868 53.2153H20.5345V59.8676H27.1868V53.2153Z" fill="white"/>
</g>
</g>
<g id="Group_150">
<g id="Group_151">
<path id="Vector_166" d="M33.7797 53.2153H27.1274V59.8676H33.7797V53.2153Z" fill="white"/>
</g>
</g>
<g id="Group_152">
<g id="Group_153">
<path id="Vector_167" d="M40.4316 53.2153H33.7793V59.8676H40.4316V53.2153Z" fill="white"/>
</g>
</g>
<g id="Group_154">
<g id="Group_155">
<path id="Vector_168" d="M47.0251 53.2153H40.3728V59.8676H47.0251V53.2153Z" fill="white"/>
</g>
</g>
<g id="Group_156">
<g id="Group_157">
<path id="Vector_169" d="M53.6915 53.2153H47.0392V59.8676H53.6915V53.2153Z" fill="white"/>
</g>
</g>
<g id="Group_158">
<g id="Group_159">
<path id="Vector_170" d="M60.3289 53.2153H53.6766V59.8676H60.3289V53.2153Z" fill="white"/>
</g>
</g>
<g id="Group_160">
<g id="Group_161">
<path id="Vector_171" d="M67.0404 53.2153H60.3881V59.8676H67.0404V53.2153Z" fill="white"/>
</g>
</g>
<g id="Group_162">
<g id="Group_163">
<path id="Vector_172" d="M86.9665 53.2153H80.3142V59.8676H86.9665V53.2153Z" fill="white"/>
</g>
</g>
<g id="Group_164">
<g id="Group_165">
<path id="Vector_173" d="M100.315 53.2153H93.6626V59.8676H100.315V53.2153Z" fill="white"/>
</g>
</g>
<g id="Group_166">
<g id="Group_167">
<path id="Vector_174" d="M120.242 53.2153H113.589V59.8676H120.242V53.2153Z" fill="white"/>
</g>
</g>
<g id="Group_168">
<g id="Group_169">
<path id="Vector_175" d="M133.56 53.2153H126.908V59.8676H133.56V53.2153Z" fill="white"/>
</g>
</g>
<g id="Group_170">
<g id="Group_171">
<path id="Vector_176" d="M140.212 53.2153H133.56V59.8676H140.212V53.2153Z" fill="white"/>
</g>
</g>
<g id="Group_172">
<g id="Group_173">
<path id="Vector_177" d="M173.458 53.2153H166.806V59.8676H173.458V53.2153Z" fill="white"/>
</g>
</g>
<g id="Group_174">
<g id="Group_175">
<path id="Vector_178" d="M193.429 53.2153H186.777V59.8676H193.429V53.2153Z" fill="white"/>
</g>
</g>
<g id="Group_176">
<g id="Group_177">
<path id="Vector_179" d="M206.719 53.2153H200.066V59.8676H206.719V53.2153Z" fill="white"/>
</g>
</g>
<g id="Group_178">
<g id="Group_179">
<path id="Vector_180" d="M213.4 53.2153H206.748V59.8676H213.4V53.2153Z" fill="white"/>
</g>
</g>
<g id="Group_180">
<g id="Group_181">
<path id="Vector_181" d="M220.007 53.2153H213.355V59.8676H220.007V53.2153Z" fill="white"/>
</g>
</g>
<g id="Group_182">
<g id="Group_183">
<path id="Vector_182" d="M7.17158 59.875H0.519287V66.5273H7.17158V59.875Z" fill="white"/>
</g>
</g>
<g id="Group_184">
<g id="Group_185">
<path id="Vector_183" d="M20.4754 59.875H13.8231V66.5273H20.4754V59.875Z" fill="white"/>
</g>
</g>
<g id="Group_186">
<g id="Group_187">
<path id="Vector_184" d="M60.3289 59.875H53.6766V66.5273H60.3289V59.875Z" fill="white"/>
</g>
</g>
<g id="Group_188">
<g id="Group_189">
<path id="Vector_185" d="M67.0404 59.875H60.3881V66.5273H67.0404V59.875Z" fill="white"/>
</g>
</g>
<g id="Group_190">
<g id="Group_191">
<path id="Vector_186" d="M73.7067 59.875H67.0544V66.5273H73.7067V59.875Z" fill="white"/>
</g>
</g>
<g id="Group_192">
<g id="Group_193">
<path id="Vector_187" d="M80.3592 59.875H73.7069V66.5273H80.3592V59.875Z" fill="white"/>
</g>
</g>
<g id="Group_194">
<g id="Group_195">
<path id="Vector_188" d="M93.663 59.875H87.0107V66.5273H93.663V59.875Z" fill="white"/>
</g>
</g>
<g id="Group_196">
<g id="Group_197">
<path id="Vector_189" d="M100.315 59.875H93.6626V66.5273H100.315V59.875Z" fill="white"/>
</g>
</g>
<g id="Group_198">
<g id="Group_199">
<path id="Vector_190" d="M106.982 59.875H100.33V66.5273H106.982V59.875Z" fill="white"/>
</g>
</g>
<g id="Group_200">
<g id="Group_201">
<path id="Vector_191" d="M126.879 59.875H120.227V66.5273H126.879V59.875Z" fill="white"/>
</g>
</g>
<g id="Group_202">
<g id="Group_203">
<path id="Vector_192" d="M133.56 59.875H126.908V66.5273H133.56V59.875Z" fill="white"/>
</g>
</g>
<g id="Group_204">
<g id="Group_205">
<path id="Vector_193" d="M146.864 59.875H140.212V66.5273H146.864V59.875Z" fill="white"/>
</g>
</g>
<g id="Group_206">
<g id="Group_207">
<path id="Vector_194" d="M153.532 59.875H146.88V66.5273H153.532V59.875Z" fill="white"/>
</g>
</g>
<g id="Group_208">
<g id="Group_209">
<path id="Vector_195" d="M160.139 59.875H153.487V66.5273H160.139V59.875Z" fill="white"/>
</g>
</g>
<g id="Group_210">
<g id="Group_211">
<path id="Vector_196" d="M193.429 59.875H186.777V66.5273H193.429V59.875Z" fill="white"/>
</g>
</g>
<g id="Group_212">
<g id="Group_213">
<path id="Vector_197" d="M200.051 59.875H193.399V66.5273H200.051V59.875Z" fill="white"/>
</g>
</g>
<g id="Group_214">
<g id="Group_215">
<path id="Vector_198" d="M206.719 59.875H200.066V66.5273H206.719V59.875Z" fill="white"/>
</g>
</g>
<g id="Group_216">
<g id="Group_217">
<path id="Vector_199" d="M7.17158 66.5266H0.519287V73.1789H7.17158V66.5266Z" fill="white"/>
</g>
</g>
<g id="Group_218">
<g id="Group_219">
<path id="Vector_200" d="M13.7789 66.5269H7.12659V73.1791H13.7789V66.5269Z" fill="white"/>
</g>
</g>
<g id="Group_220">
<g id="Group_221">
<path id="Vector_201" d="M20.4754 66.5269H13.8231V73.1791H20.4754V66.5269Z" fill="white"/>
</g>
</g>
<g id="Group_222">
<g id="Group_223">
<path id="Vector_202" d="M27.1871 66.5266H20.5348V73.1789H27.1871V66.5266Z" fill="white"/>
</g>
</g>
<g id="Group_224">
<g id="Group_225">
<path id="Vector_203" d="M33.7797 66.5269H27.1274V73.1791H33.7797V66.5269Z" fill="white"/>
</g>
</g>
<g id="Group_226">
<g id="Group_227">
<path id="Vector_204" d="M40.4316 66.5269H33.7793V73.1791H40.4316V66.5269Z" fill="white"/>
</g>
</g>
<g id="Group_228">
<g id="Group_229">
<path id="Vector_205" d="M47.0251 66.5269H40.3728V73.1791H47.0251V66.5269Z" fill="white"/>
</g>
</g>
<g id="Group_230">
<g id="Group_231">
<path id="Vector_206" d="M60.3289 66.5269H53.6766V73.1791H60.3289V66.5269Z" fill="white"/>
</g>
</g>
<g id="Group_232">
<g id="Group_233">
<path id="Vector_207" d="M80.3592 66.5269H73.7069V73.1791H80.3592V66.5269Z" fill="white"/>
</g>
</g>
<g id="Group_234">
<g id="Group_235">
<path id="Vector_208" d="M93.663 66.5269H87.0107V73.1791H93.663V66.5269Z" fill="white"/>
</g>
</g>
<g id="Group_236">
<g id="Group_237">
<path id="Vector_209" d="M106.982 66.5269H100.33V73.1791H106.982V66.5269Z" fill="white"/>
</g>
</g>
<g id="Group_238">
<g id="Group_239">
<path id="Vector_210" d="M120.242 66.5266H113.589V73.1789H120.242V66.5266Z" fill="white"/>
</g>
</g>
<g id="Group_240">
<g id="Group_241">
<path id="Vector_211" d="M153.532 66.5269H146.88V73.1791H153.532V66.5269Z" fill="white"/>
</g>
</g>
<g id="Group_242">
<g id="Group_243">
<path id="Vector_212" d="M160.139 66.5269H153.487V73.1791H160.139V66.5269Z" fill="white"/>
</g>
</g>
<g id="Group_244">
<g id="Group_245">
<path id="Vector_213" d="M180.11 66.5269H173.458V73.1791H180.11V66.5269Z" fill="white"/>
</g>
</g>
<g id="Group_246">
<g id="Group_247">
<path id="Vector_214" d="M193.429 66.5269H186.777V73.1791H193.429V66.5269Z" fill="white"/>
</g>
</g>
<g id="Group_248">
<g id="Group_249">
<path id="Vector_215" d="M200.051 66.5269H193.399V73.1791H200.051V66.5269Z" fill="white"/>
</g>
</g>
<g id="Group_250">
<g id="Group_251">
<path id="Vector_216" d="M206.719 66.5269H200.066V73.1791H206.719V66.5269Z" fill="white"/>
</g>
</g>
<g id="Group_252">
<g id="Group_253">
<path id="Vector_217" d="M213.4 66.5269H206.748V73.1791H213.4V66.5269Z" fill="white"/>
</g>
</g>
<g id="Group_254">
<g id="Group_255">
<path id="Vector_218" d="M220.007 66.5269H213.355V73.1791H220.007V66.5269Z" fill="white"/>
</g>
</g>
<g id="Group_256">
<g id="Group_257">
<path id="Vector_219" d="M13.7789 73.1792H7.12659V79.8315H13.7789V73.1792Z" fill="white"/>
</g>
</g>
<g id="Group_258">
<g id="Group_259">
<path id="Vector_220" d="M33.7797 73.1792H27.1274V79.8315H33.7797V73.1792Z" fill="white"/>
</g>
</g>
<g id="Group_260">
<g id="Group_261">
<path id="Vector_221" d="M40.4316 73.1792H33.7793V79.8315H40.4316V73.1792Z" fill="white"/>
</g>
</g>
<g id="Group_262">
<g id="Group_263">
<path id="Vector_222" d="M53.6915 73.1792H47.0392V79.8315H53.6915V73.1792Z" fill="white"/>
</g>
</g>
<g id="Group_264">
<g id="Group_265">
<path id="Vector_223" d="M60.3289 73.1792H53.6766V79.8315H60.3289V73.1792Z" fill="white"/>
</g>
</g>
<g id="Group_266">
<g id="Group_267">
<path id="Vector_224" d="M73.7067 73.1792H67.0544V79.8315H73.7067V73.1792Z" fill="white"/>
</g>
</g>
<g id="Group_268">
<g id="Group_269">
<path id="Vector_225" d="M80.3592 73.1792H73.7069V79.8315H80.3592V73.1792Z" fill="white"/>
</g>
</g>
<g id="Group_270">
<g id="Group_271">
<path id="Vector_226" d="M86.9665 73.1792H80.3142V79.8315H86.9665V73.1792Z" fill="white"/>
</g>
</g>
<g id="Group_272">
<g id="Group_273">
<path id="Vector_227" d="M93.663 73.1792H87.0107V79.8315H93.663V73.1792Z" fill="white"/>
</g>
</g>
<g id="Group_274">
<g id="Group_275">
<path id="Vector_228" d="M106.982 73.1792H100.33V79.8315H106.982V73.1792Z" fill="white"/>
</g>
</g>
<g id="Group_276">
<g id="Group_277">
<path id="Vector_229" d="M113.619 73.1792H106.967V79.8315H113.619V73.1792Z" fill="white"/>
</g>
</g>
<g id="Group_278">
<g id="Group_279">
<path id="Vector_230" d="M120.242 73.1792H113.589V79.8315H120.242V73.1792Z" fill="white"/>
</g>
</g>
<g id="Group_280">
<g id="Group_281">
<path id="Vector_231" d="M126.879 73.1792H120.227V79.8315H126.879V73.1792Z" fill="white"/>
</g>
</g>
<g id="Group_282">
<g id="Group_283">
<path id="Vector_232" d="M133.56 73.1792H126.908V79.8315H133.56V73.1792Z" fill="white"/>
</g>
</g>
<g id="Group_284">
<g id="Group_285">
<path id="Vector_233" d="M160.139 73.1792H153.487V79.8315H160.139V73.1792Z" fill="white"/>
</g>
</g>
<g id="Group_286">
<g id="Group_287">
<path id="Vector_234" d="M173.458 73.1792H166.806V79.8315H173.458V73.1792Z" fill="white"/>
</g>
</g>
<g id="Group_288">
<g id="Group_289">
<path id="Vector_235" d="M186.807 73.1792H180.155V79.8315H186.807V73.1792Z" fill="white"/>
</g>
</g>
<g id="Group_290">
<g id="Group_291">
<path id="Vector_236" d="M206.719 73.1792H200.066V79.8315H206.719V73.1792Z" fill="white"/>
</g>
</g>
<g id="Group_292">
<g id="Group_293">
<path id="Vector_237" d="M213.4 73.1792H206.748V79.8315H213.4V73.1792Z" fill="white"/>
</g>
</g>
<g id="Group_294">
<g id="Group_295">
<path id="Vector_238" d="M220.007 73.1792H213.355V79.8315H220.007V73.1792Z" fill="white"/>
</g>
</g>
<g id="Group_296">
<g id="Group_297">
<path id="Vector_239" d="M7.17158 79.8311H0.519287V86.4833H7.17158V79.8311Z" fill="white"/>
</g>
</g>
<g id="Group_298">
<g id="Group_299">
<path id="Vector_240" d="M13.7789 79.8311H7.12659V86.4833H13.7789V79.8311Z" fill="white"/>
</g>
</g>
<g id="Group_300">
<g id="Group_301">
<path id="Vector_241" d="M20.4754 79.8311H13.8231V86.4833H20.4754V79.8311Z" fill="white"/>
</g>
</g>
<g id="Group_302">
<g id="Group_303">
<path id="Vector_242" d="M27.1871 79.8311H20.5348V86.4833H27.1871V79.8311Z" fill="white"/>
</g>
</g>
<g id="Group_304">
<g id="Group_305">
<path id="Vector_243" d="M47.0251 79.8311H40.3728V86.4833H47.0251V79.8311Z" fill="white"/>
</g>
</g>
<g id="Group_306">
<g id="Group_307">
<path id="Vector_244" d="M60.3289 79.8311H53.6766V86.4833H60.3289V79.8311Z" fill="white"/>
</g>
</g>
<g id="Group_308">
<g id="Group_309">
<path id="Vector_245" d="M73.7067 79.8311H67.0544V86.4833H73.7067V79.8311Z" fill="white"/>
</g>
</g>
<g id="Group_310">
<g id="Group_311">
<path id="Vector_246" d="M80.3592 79.8311H73.7069V86.4833H80.3592V79.8311Z" fill="white"/>
</g>
</g>
<g id="Group_312">
<g id="Group_313">
<path id="Vector_247" d="M93.663 79.8311H87.0107V86.4833H93.663V79.8311Z" fill="white"/>
</g>
</g>
<g id="Group_314">
<g id="Group_315">
<path id="Vector_248" d="M106.982 79.8311H100.33V86.4833H106.982V79.8311Z" fill="white"/>
</g>
</g>
<g id="Group_316">
<g id="Group_317">
<path id="Vector_249" d="M113.619 79.8311H106.967V86.4833H113.619V79.8311Z" fill="white"/>
</g>
</g>
<g id="Group_318">
<g id="Group_319">
<path id="Vector_250" d="M126.879 79.8311H120.227V86.4833H126.879V79.8311Z" fill="white"/>
</g>
</g>
<g id="Group_320">
<g id="Group_321">
<path id="Vector_251" d="M133.56 79.8311H126.908V86.4833H133.56V79.8311Z" fill="white"/>
</g>
</g>
<g id="Group_322">
<g id="Group_323">
<path id="Vector_252" d="M140.212 79.8311H133.56V86.4833H140.212V79.8311Z" fill="white"/>
</g>
</g>
<g id="Group_324">
<g id="Group_325">
<path id="Vector_253" d="M166.851 79.8311H160.198V86.4833H166.851V79.8311Z" fill="white"/>
</g>
</g>
<g id="Group_326">
<g id="Group_327">
<path id="Vector_254" d="M180.11 79.8311H173.458V86.4833H180.11V79.8311Z" fill="white"/>
</g>
</g>
<g id="Group_328">
<g id="Group_329">
<path id="Vector_255" d="M7.17158 86.4756H0.519287V93.1279H7.17158V86.4756Z" fill="white"/>
</g>
</g>
<g id="Group_330">
<g id="Group_331">
<path id="Vector_256" d="M20.4754 86.4756H13.8231V93.1279H20.4754V86.4756Z" fill="white"/>
</g>
</g>
<g id="Group_332">
<g id="Group_333">
<path id="Vector_257" d="M33.7797 86.4756H27.1274V93.1279H33.7797V86.4756Z" fill="white"/>
</g>
</g>
<g id="Group_334">
<g id="Group_335">
<path id="Vector_258" d="M40.4316 86.4756H33.7793V93.1279H40.4316V86.4756Z" fill="white"/>
</g>
</g>
<g id="Group_336">
<g id="Group_337">
<path id="Vector_259" d="M80.3592 86.4756H73.7069V93.1279H80.3592V86.4756Z" fill="white"/>
</g>
</g>
<g id="Group_338">
<g id="Group_339">
<path id="Vector_260" d="M86.9665 86.4756H80.3142V93.1279H86.9665V86.4756Z" fill="white"/>
</g>
</g>
<g id="Group_340">
<g id="Group_341">
<path id="Vector_261" d="M93.663 86.4756H87.0107V93.1279H93.663V86.4756Z" fill="white"/>
</g>
</g>
<g id="Group_342">
<g id="Group_343">
<path id="Vector_262" d="M100.315 86.4756H93.6626V93.1279H100.315V86.4756Z" fill="white"/>
</g>
</g>
<g id="Group_344">
<g id="Group_345">
<path id="Vector_263" d="M126.879 86.4756H120.227V93.1279H126.879V86.4756Z" fill="white"/>
</g>
</g>
<g id="Group_346">
<g id="Group_347">
<path id="Vector_264" d="M153.532 86.4756H146.88V93.1279H153.532V86.4756Z" fill="white"/>
</g>
</g>
<g id="Group_348">
<g id="Group_349">
<path id="Vector_265" d="M160.139 86.4756H153.487V93.1279H160.139V86.4756Z" fill="white"/>
</g>
</g>
<g id="Group_350">
<g id="Group_351">
<path id="Vector_266" d="M186.807 86.4756H180.155V93.1279H186.807V86.4756Z" fill="white"/>
</g>
</g>
<g id="Group_352">
<g id="Group_353">
<path id="Vector_267" d="M13.7789 93.135H7.12659V99.7873H13.7789V93.135Z" fill="white"/>
</g>
</g>
<g id="Group_354">
<g id="Group_355">
<path id="Vector_268" d="M20.4754 93.135H13.8231V99.7873H20.4754V93.135Z" fill="white"/>
</g>
</g>
<g id="Group_356">
<g id="Group_357">
<path id="Vector_269" d="M27.1871 93.1355H20.5348V99.7878H27.1871V93.1355Z" fill="white"/>
</g>
</g>
<g id="Group_358">
<g id="Group_359">
<path id="Vector_270" d="M33.7797 93.135H27.1274V99.7873H33.7797V93.135Z" fill="white"/>
</g>
</g>
<g id="Group_360">
<g id="Group_361">
<path id="Vector_271" d="M47.0251 93.135H40.3728V99.7873H47.0251V93.135Z" fill="white"/>
</g>
</g>
<g id="Group_362">
<g id="Group_363">
<path id="Vector_272" d="M60.3289 93.135H53.6766V99.7873H60.3289V93.135Z" fill="white"/>
</g>
</g>
<g id="Group_364">
<g id="Group_365">
<path id="Vector_273" d="M67.0404 93.135H60.3881V99.7873H67.0404V93.135Z" fill="white"/>
</g>
</g>
<g id="Group_366">
<g id="Group_367">
<path id="Vector_274" d="M80.3592 93.135H73.7069V99.7873H80.3592V93.135Z" fill="white"/>
</g>
</g>
<g id="Group_368">
<g id="Group_369">
<path id="Vector_275" d="M86.9665 93.135H80.3142V99.7873H86.9665V93.135Z" fill="white"/>
</g>
</g>
<g id="Group_370">
<g id="Group_371">
<path id="Vector_276" d="M106.982 93.135H100.33V99.7873H106.982V93.135Z" fill="white"/>
</g>
</g>
<g id="Group_372">
<g id="Group_373">
<path id="Vector_277" d="M113.619 93.135H106.967V99.7873H113.619V93.135Z" fill="white"/>
</g>
</g>
<g id="Group_374">
<g id="Group_375">
<path id="Vector_278" d="M120.242 93.1355H113.589V99.7878H120.242V93.1355Z" fill="white"/>
</g>
</g>
<g id="Group_376">
<g id="Group_377">
<path id="Vector_279" d="M126.879 93.135H120.227V99.7873H126.879V93.135Z" fill="white"/>
</g>
</g>
<g id="Group_378">
<g id="Group_379">
<path id="Vector_280" d="M133.56 93.135H126.908V99.7873H133.56V93.135Z" fill="white"/>
</g>
</g>
<g id="Group_380">
<g id="Group_381">
<path id="Vector_281" d="M146.864 93.135H140.212V99.7873H146.864V93.135Z" fill="white"/>
</g>
</g>
<g id="Group_382">
<g id="Group_383">
<path id="Vector_282" d="M153.532 93.135H146.88V99.7873H153.532V93.135Z" fill="white"/>
</g>
</g>
<g id="Group_384">
<g id="Group_385">
<path id="Vector_283" d="M180.11 93.135H173.458V99.7873H180.11V93.135Z" fill="white"/>
</g>
</g>
<g id="Group_386">
<g id="Group_387">
<path id="Vector_284" d="M206.719 93.135H200.066V99.7873H206.719V93.135Z" fill="white"/>
</g>
</g>
<g id="Group_388">
<g id="Group_389">
<path id="Vector_285" d="M7.17158 99.78H0.519287V106.432H7.17158V99.78Z" fill="white"/>
</g>
</g>
<g id="Group_390">
<g id="Group_391">
<path id="Vector_286" d="M20.4754 99.7798H13.8231V106.432H20.4754V99.7798Z" fill="white"/>
</g>
</g>
<g id="Group_392">
<g id="Group_393">
<path id="Vector_287" d="M53.6915 99.7798H47.0392V106.432H53.6915V99.7798Z" fill="white"/>
</g>
</g>
<g id="Group_394">
<g id="Group_395">
<path id="Vector_288" d="M60.3289 99.7798H53.6766V106.432H60.3289V99.7798Z" fill="white"/>
</g>
</g>
<g id="Group_396">
<g id="Group_397">
<path id="Vector_289" d="M67.0404 99.7798H60.3881V106.432H67.0404V99.7798Z" fill="white"/>
</g>
</g>
<g id="Group_398">
<g id="Group_399">
<path id="Vector_290" d="M73.7067 99.7798H67.0544V106.432H73.7067V99.7798Z" fill="white"/>
</g>
</g>
<g id="Group_400">
<g id="Group_401">
<path id="Vector_291" d="M86.9665 99.7874H80.3142V106.44H86.9665V99.7874Z" fill="white"/>
</g>
</g>
<g id="Group_402">
<g id="Group_403">
<path id="Vector_292" d="M93.663 99.7798H87.0107V106.432H93.663V99.7798Z" fill="white"/>
</g>
</g>
<g id="Group_404">
<g id="Group_405">
<path id="Vector_293" d="M100.315 99.7798H93.6626V106.432H100.315V99.7798Z" fill="white"/>
</g>
</g>
<g id="Group_406">
<g id="Group_407">
<path id="Vector_294" d="M133.56 99.7798H126.908V106.432H133.56V99.7798Z" fill="white"/>
</g>
</g>
<g id="Group_408">
<g id="Group_409">
<path id="Vector_295" d="M140.212 99.7798H133.56V106.432H140.212V99.7798Z" fill="white"/>
</g>
</g>
<g id="Group_410">
<g id="Group_411">
<path id="Vector_296" d="M160.139 99.7798H153.487V106.432H160.139V99.7798Z" fill="white"/>
</g>
</g>
<g id="Group_412">
<g id="Group_413">
<path id="Vector_297" d="M173.458 99.7798H166.806V106.432H173.458V99.7798Z" fill="white"/>
</g>
</g>
<g id="Group_414">
<g id="Group_415">
<path id="Vector_298" d="M186.807 99.7798H180.155V106.432H186.807V99.7798Z" fill="white"/>
</g>
</g>
<g id="Group_416">
<g id="Group_417">
<path id="Vector_299" d="M200.051 99.7874H193.399V106.44H200.051V99.7874Z" fill="white"/>
</g>
</g>
<g id="Group_418">
<g id="Group_419">
<path id="Vector_300" d="M206.719 99.7798H200.066V106.432H206.719V99.7798Z" fill="white"/>
</g>
</g>
<g id="Group_420">
<g id="Group_421">
<path id="Vector_301" d="M220.007 99.7798H213.355V106.432H220.007V99.7798Z" fill="white"/>
</g>
</g>
<g id="Group_422">
<g id="Group_423">
<path id="Vector_302" d="M27.1868 106.432H20.5345V113.084H27.1868V106.432Z" fill="white"/>
</g>
</g>
<g id="Group_424">
<g id="Group_425">
<path id="Vector_303" d="M40.4316 106.432H33.7793V113.084H40.4316V106.432Z" fill="white"/>
</g>
</g>
<g id="Group_426">
<g id="Group_427">
<path id="Vector_304" d="M47.0251 106.432H40.3728V113.084H47.0251V106.432Z" fill="white"/>
</g>
</g>
<g id="Group_428">
<g id="Group_429">
<path id="Vector_305" d="M73.7067 106.432H67.0544V113.084H73.7067V106.432Z" fill="white"/>
</g>
</g>
<g id="Group_430">
<g id="Group_431">
<path id="Vector_306" d="M80.3592 106.439H73.7069V113.092H80.3592V106.439Z" fill="white"/>
</g>
</g>
<g id="Group_432">
<g id="Group_433">
<path id="Vector_307" d="M153.532 106.439H146.88V113.092H153.532V106.439Z" fill="white"/>
</g>
</g>
<g id="Group_434">
<g id="Group_435">
<path id="Vector_308" d="M166.851 106.432H160.198V113.084H166.851V106.432Z" fill="white"/>
</g>
</g>
<g id="Group_436">
<g id="Group_437">
<path id="Vector_309" d="M173.458 106.432H166.806V113.084H173.458V106.432Z" fill="white"/>
</g>
</g>
<g id="Group_438">
<g id="Group_439">
<path id="Vector_310" d="M180.11 106.432H173.458V113.084H180.11V106.432Z" fill="white"/>
</g>
</g>
<g id="Group_440">
<g id="Group_441">
<path id="Vector_311" d="M186.807 106.432H180.155V113.084H186.807V106.432Z" fill="white"/>
</g>
</g>
<g id="Group_442">
<g id="Group_443">
<path id="Vector_312" d="M193.429 106.432H186.777V113.084H193.429V106.432Z" fill="white"/>
</g>
</g>
<g id="Group_444">
<g id="Group_445">
<path id="Vector_313" d="M20.4754 113.076H13.8231V119.729H20.4754V113.076Z" fill="white"/>
</g>
</g>
<g id="Group_446">
<g id="Group_447">
<path id="Vector_314" d="M27.1868 113.076H20.5345V119.729H27.1868V113.076Z" fill="white"/>
</g>
</g>
<g id="Group_448">
<g id="Group_449">
<path id="Vector_315" d="M53.6915 113.076H47.0392V119.729H53.6915V113.076Z" fill="white"/>
</g>
</g>
<g id="Group_450">
<g id="Group_451">
<path id="Vector_316" d="M93.663 113.076H87.0107V119.729H93.663V113.076Z" fill="white"/>
</g>
</g>
<g id="Group_452">
<g id="Group_453">
<path id="Vector_317" d="M106.982 113.076H100.33V119.729H106.982V113.076Z" fill="white"/>
</g>
</g>
<g id="Group_454">
<g id="Group_455">
<path id="Vector_318" d="M126.879 113.076H120.227V119.729H126.879V113.076Z" fill="white"/>
</g>
</g>
<g id="Group_456">
<g id="Group_457">
<path id="Vector_319" d="M133.56 113.076H126.908V119.729H133.56V113.076Z" fill="white"/>
</g>
</g>
<g id="Group_458">
<g id="Group_459">
<path id="Vector_320" d="M140.212 113.076H133.56V119.729H140.212V113.076Z" fill="white"/>
</g>
</g>
<g id="Group_460">
<g id="Group_461">
<path id="Vector_321" d="M166.851 113.076H160.198V119.729H166.851V113.076Z" fill="white"/>
</g>
</g>
<g id="Group_462">
<g id="Group_463">
<path id="Vector_322" d="M180.11 113.076H173.458V119.729H180.11V113.076Z" fill="white"/>
</g>
</g>
<g id="Group_464">
<g id="Group_465">
<path id="Vector_323" d="M193.429 113.076H186.777V119.729H193.429V113.076Z" fill="white"/>
</g>
</g>
<g id="Group_466">
<g id="Group_467">
<path id="Vector_324" d="M206.719 113.076H200.066V119.729H206.719V113.076Z" fill="white"/>
</g>
</g>
<g id="Group_468">
<g id="Group_469">
<path id="Vector_325" d="M220.007 113.076H213.355V119.729H220.007V113.076Z" fill="white"/>
</g>
</g>
<g id="Group_470">
<g id="Group_471">
<path id="Vector_326" d="M13.7789 119.743H7.12659V126.395H13.7789V119.743Z" fill="white"/>
</g>
</g>
<g id="Group_472">
<g id="Group_473">
<path id="Vector_327" d="M33.7797 119.743H27.1274V126.395H33.7797V119.743Z" fill="white"/>
</g>
</g>
<g id="Group_474">
<g id="Group_475">
<path id="Vector_328" d="M47.0251 119.743H40.3728V126.395H47.0251V119.743Z" fill="white"/>
</g>
</g>
<g id="Group_476">
<g id="Group_477">
<path id="Vector_329" d="M60.3289 119.743H53.6766V126.395H60.3289V119.743Z" fill="white"/>
</g>
</g>
<g id="Group_478">
<g id="Group_479">
<path id="Vector_330" d="M73.7067 119.743H67.0544V126.395H73.7067V119.743Z" fill="white"/>
</g>
</g>
<g id="Group_480">
<g id="Group_481">
<path id="Vector_331" d="M80.3592 119.743H73.7069V126.395H80.3592V119.743Z" fill="white"/>
</g>
</g>
<g id="Group_482">
<g id="Group_483">
<path id="Vector_332" d="M106.982 119.743H100.33V126.395H106.982V119.743Z" fill="white"/>
</g>
</g>
<g id="Group_484">
<g id="Group_485">
<path id="Vector_333" d="M133.56 119.743H126.908V126.395H133.56V119.743Z" fill="white"/>
</g>
</g>
<g id="Group_486">
<g id="Group_487">
<path id="Vector_334" d="M140.212 119.743H133.56V126.395H140.212V119.743Z" fill="white"/>
</g>
</g>
<g id="Group_488">
<g id="Group_489">
<path id="Vector_335" d="M153.532 119.743H146.88V126.395H153.532V119.743Z" fill="white"/>
</g>
</g>
<g id="Group_490">
<g id="Group_491">
<path id="Vector_336" d="M160.139 119.743H153.487V126.395H160.139V119.743Z" fill="white"/>
</g>
</g>
<g id="Group_492">
<g id="Group_493">
<path id="Vector_337" d="M166.851 119.743H160.198V126.395H166.851V119.743Z" fill="white"/>
</g>
</g>
<g id="Group_494">
<g id="Group_495">
<path id="Vector_338" d="M173.458 119.743H166.806V126.395H173.458V119.743Z" fill="white"/>
</g>
</g>
<g id="Group_496">
<g id="Group_497">
<path id="Vector_339" d="M180.11 119.743H173.458V126.395H180.11V119.743Z" fill="white"/>
</g>
</g>
<g id="Group_498">
<g id="Group_499">
<path id="Vector_340" d="M186.807 119.743H180.155V126.395H186.807V119.743Z" fill="white"/>
</g>
</g>
<g id="Group_500">
<g id="Group_501">
<path id="Vector_341" d="M200.051 119.736H193.399V126.388H200.051V119.736Z" fill="white"/>
</g>
</g>
<g id="Group_502">
<g id="Group_503">
<path id="Vector_342" d="M206.719 119.743H200.066V126.395H206.719V119.743Z" fill="white"/>
</g>
</g>
<g id="Group_504">
<g id="Group_505">
<path id="Vector_343" d="M213.4 119.743H206.748V126.395H213.4V119.743Z" fill="white"/>
</g>
</g>
<g id="Group_506">
<g id="Group_507">
<path id="Vector_344" d="M220.007 119.743H213.355V126.395H220.007V119.743Z" fill="white"/>
</g>
</g>
<g id="Group_508">
<g id="Group_509">
<path id="Vector_345" d="M13.7789 126.396H7.12659V133.048H13.7789V126.396Z" fill="white"/>
</g>
</g>
<g id="Group_510">
<g id="Group_511">
<path id="Vector_346" d="M20.4754 126.396H13.8231V133.048H20.4754V126.396Z" fill="white"/>
</g>
</g>
<g id="Group_512">
<g id="Group_513">
<path id="Vector_347" d="M27.1868 126.396H20.5345V133.048H27.1868V126.396Z" fill="white"/>
</g>
</g>
<g id="Group_514">
<g id="Group_515">
<path id="Vector_348" d="M53.6915 126.396H47.0392V133.048H53.6915V126.396Z" fill="white"/>
</g>
</g>
<g id="Group_516">
<g id="Group_517">
<path id="Vector_349" d="M73.7067 126.396H67.0544V133.048H73.7067V126.396Z" fill="white"/>
</g>
</g>
<g id="Group_518">
<g id="Group_519">
<path id="Vector_350" d="M100.315 126.396H93.6626V133.048H100.315V126.396Z" fill="white"/>
</g>
</g>
<g id="Group_520">
<g id="Group_521">
<path id="Vector_351" d="M113.619 126.396H106.967V133.048H113.619V126.396Z" fill="white"/>
</g>
</g>
<g id="Group_522">
<g id="Group_523">
<path id="Vector_352" d="M126.879 126.396H120.227V133.048H126.879V126.396Z" fill="white"/>
</g>
</g>
<g id="Group_524">
<g id="Group_525">
<path id="Vector_353" d="M166.851 126.396H160.198V133.048H166.851V126.396Z" fill="white"/>
</g>
</g>
<g id="Group_526">
<g id="Group_527">
<path id="Vector_354" d="M173.458 126.396H166.806V133.048H173.458V126.396Z" fill="white"/>
</g>
</g>
<g id="Group_528">
<g id="Group_529">
<path id="Vector_355" d="M193.429 126.396H186.777V133.048H193.429V126.396Z" fill="white"/>
</g>
</g>
<g id="Group_530">
<g id="Group_531">
<path id="Vector_356" d="M200.051 126.396H193.399V133.048H200.051V126.396Z" fill="white"/>
</g>
</g>
<g id="Group_532">
<g id="Group_533">
<path id="Vector_357" d="M206.719 126.396H200.066V133.048H206.719V126.396Z" fill="white"/>
</g>
</g>
<g id="Group_534">
<g id="Group_535">
<path id="Vector_358" d="M13.7789 133.04H7.12659V139.692H13.7789V133.04Z" fill="white"/>
</g>
</g>
<g id="Group_536">
<g id="Group_537">
<path id="Vector_359" d="M20.4754 133.04H13.8231V139.692H20.4754V133.04Z" fill="white"/>
</g>
</g>
<g id="Group_538">
<g id="Group_539">
<path id="Vector_360" d="M47.0251 133.04H40.3728V139.692H47.0251V133.04Z" fill="white"/>
</g>
</g>
<g id="Group_540">
<g id="Group_541">
<path id="Vector_361" d="M53.6915 133.04H47.0392V139.692H53.6915V133.04Z" fill="white"/>
</g>
</g>
<g id="Group_542">
<g id="Group_543">
<path id="Vector_362" d="M60.3289 133.04H53.6766V139.692H60.3289V133.04Z" fill="white"/>
</g>
</g>
<g id="Group_544">
<g id="Group_545">
<path id="Vector_363" d="M67.0404 133.04H60.3881V139.692H67.0404V133.04Z" fill="white"/>
</g>
</g>
<g id="Group_546">
<g id="Group_547">
<path id="Vector_364" d="M73.7067 133.04H67.0544V139.692H73.7067V133.04Z" fill="white"/>
</g>
</g>
<g id="Group_548">
<g id="Group_549">
<path id="Vector_365" d="M93.663 133.04H87.0107V139.692H93.663V133.04Z" fill="white"/>
</g>
</g>
<g id="Group_550">
<g id="Group_551">
<path id="Vector_366" d="M106.982 133.04H100.33V139.692H106.982V133.04Z" fill="white"/>
</g>
</g>
<g id="Group_552">
<g id="Group_553">
<path id="Vector_367" d="M113.619 133.04H106.967V139.692H113.619V133.04Z" fill="white"/>
</g>
</g>
<g id="Group_554">
<g id="Group_555">
<path id="Vector_368" d="M120.242 133.04H113.589V139.692H120.242V133.04Z" fill="white"/>
</g>
</g>
<g id="Group_556">
<g id="Group_557">
<path id="Vector_369" d="M140.212 133.04H133.56V139.692H140.212V133.04Z" fill="white"/>
</g>
</g>
<g id="Group_558">
<g id="Group_559">
<path id="Vector_370" d="M166.851 133.04H160.198V139.692H166.851V133.04Z" fill="white"/>
</g>
</g>
<g id="Group_560">
<g id="Group_561">
<path id="Vector_371" d="M186.807 133.04H180.155V139.692H186.807V133.04Z" fill="white"/>
</g>
</g>
<g id="Group_562">
<g id="Group_563">
<path id="Vector_372" d="M200.051 133.04H193.399V139.692H200.051V133.04Z" fill="white"/>
</g>
</g>
<g id="Group_564">
<g id="Group_565">
<path id="Vector_373" d="M220.007 133.04H213.355V139.692H220.007V133.04Z" fill="white"/>
</g>
</g>
<g id="Group_566">
<g id="Group_567">
<path id="Vector_374" d="M7.17158 139.699H0.519287V146.352H7.17158V139.699Z" fill="white"/>
</g>
</g>
<g id="Group_568">
<g id="Group_569">
<path id="Vector_375" d="M33.7797 139.699H27.1274V146.352H33.7797V139.699Z" fill="white"/>
</g>
</g>
<g id="Group_570">
<g id="Group_571">
<path id="Vector_376" d="M40.4316 139.699H33.7793V146.352H40.4316V139.699Z" fill="white"/>
</g>
</g>
<g id="Group_572">
<g id="Group_573">
<path id="Vector_377" d="M60.3289 139.699H53.6766V146.352H60.3289V139.699Z" fill="white"/>
</g>
</g>
<g id="Group_574">
<g id="Group_575">
<path id="Vector_378" d="M67.0404 139.699H60.3881V146.352H67.0404V139.699Z" fill="white"/>
</g>
</g>
<g id="Group_576">
<g id="Group_577">
<path id="Vector_379" d="M80.3592 139.699H73.7069V146.352H80.3592V139.699Z" fill="white"/>
</g>
</g>
<g id="Group_578">
<g id="Group_579">
<path id="Vector_380" d="M86.9665 139.699H80.3142V146.352H86.9665V139.699Z" fill="white"/>
</g>
</g>
<g id="Group_580">
<g id="Group_581">
<path id="Vector_381" d="M106.982 139.699H100.33V146.352H106.982V139.699Z" fill="white"/>
</g>
</g>
<g id="Group_582">
<g id="Group_583">
<path id="Vector_382" d="M120.242 139.699H113.589V146.352H120.242V139.699Z" fill="white"/>
</g>
</g>
<g id="Group_584">
<g id="Group_585">
<path id="Vector_383" d="M126.879 139.699H120.227V146.352H126.879V139.699Z" fill="white"/>
</g>
</g>
<g id="Group_586">
<g id="Group_587">
<path id="Vector_384" d="M133.56 139.699H126.908V146.352H133.56V139.699Z" fill="white"/>
</g>
</g>
<g id="Group_588">
<g id="Group_589">
<path id="Vector_385" d="M153.532 139.699H146.88V146.352H153.532V139.699Z" fill="white"/>
</g>
</g>
<g id="Group_590">
<g id="Group_591">
<path id="Vector_386" d="M160.139 139.699H153.487V146.352H160.139V139.699Z" fill="white"/>
</g>
</g>
<g id="Group_592">
<g id="Group_593">
<path id="Vector_387" d="M173.458 139.699H166.806V146.352H173.458V139.699Z" fill="white"/>
</g>
</g>
<g id="Group_594">
<g id="Group_595">
<path id="Vector_388" d="M180.11 139.699H173.458V146.352H180.11V139.699Z" fill="white"/>
</g>
</g>
<g id="Group_596">
<g id="Group_597">
<path id="Vector_389" d="M193.429 139.699H186.777V146.352H193.429V139.699Z" fill="white"/>
</g>
</g>
<g id="Group_598">
<g id="Group_599">
<path id="Vector_390" d="M200.051 139.699H193.399V146.352H200.051V139.699Z" fill="white"/>
</g>
</g>
<g id="Group_600">
<g id="Group_601">
<path id="Vector_391" d="M206.719 139.699H200.066V146.352H206.719V139.699Z" fill="white"/>
</g>
</g>
<g id="Group_602">
<g id="Group_603">
<path id="Vector_392" d="M7.17158 146.344H0.519287V152.997H7.17158V146.344Z" fill="white"/>
</g>
</g>
<g id="Group_604">
<g id="Group_605">
<path id="Vector_393" d="M27.1868 146.351H20.5345V153.004H27.1868V146.351Z" fill="white"/>
</g>
</g>
<g id="Group_606">
<g id="Group_607">
<path id="Vector_394" d="M33.7797 146.351H27.1274V153.004H33.7797V146.351Z" fill="white"/>
</g>
</g>
<g id="Group_608">
<g id="Group_609">
<path id="Vector_395" d="M47.0251 146.351H40.3728V153.004H47.0251V146.351Z" fill="white"/>
</g>
</g>
<g id="Group_610">
<g id="Group_611">
<path id="Vector_396" d="M53.6915 146.351H47.0392V153.004H53.6915V146.351Z" fill="white"/>
</g>
</g>
<g id="Group_612">
<g id="Group_613">
<path id="Vector_397" d="M67.0404 146.351H60.3881V153.004H67.0404V146.351Z" fill="white"/>
</g>
</g>
<g id="Group_614">
<g id="Group_615">
<path id="Vector_398" d="M86.9665 146.351H80.3142V153.004H86.9665V146.351Z" fill="white"/>
</g>
</g>
<g id="Group_616">
<g id="Group_617">
<path id="Vector_399" d="M93.663 146.351H87.0107V153.004H93.663V146.351Z" fill="white"/>
</g>
</g>
<g id="Group_618">
<g id="Group_619">
<path id="Vector_400" d="M106.982 146.351H100.33V153.004H106.982V146.351Z" fill="white"/>
</g>
</g>
<g id="Group_620">
<g id="Group_621">
<path id="Vector_401" d="M113.619 146.351H106.967V153.004H113.619V146.351Z" fill="white"/>
</g>
</g>
<g id="Group_622">
<g id="Group_623">
<path id="Vector_402" d="M126.879 146.351H120.227V153.004H126.879V146.351Z" fill="white"/>
</g>
</g>
<g id="Group_624">
<g id="Group_625">
<path id="Vector_403" d="M146.864 146.351H140.212V153.004H146.864V146.351Z" fill="white"/>
</g>
</g>
<g id="Group_626">
<g id="Group_627">
<path id="Vector_404" d="M153.532 146.344H146.88V152.997H153.532V146.344Z" fill="white"/>
</g>
</g>
<g id="Group_628">
<g id="Group_629">
<path id="Vector_405" d="M160.139 146.351H153.487V153.004H160.139V146.351Z" fill="white"/>
</g>
</g>
<g id="Group_630">
<g id="Group_631">
<path id="Vector_406" d="M180.11 146.351H173.458V153.004H180.11V146.351Z" fill="white"/>
</g>
</g>
<g id="Group_632">
<g id="Group_633">
<path id="Vector_407" d="M186.807 146.351H180.155V153.004H186.807V146.351Z" fill="white"/>
</g>
</g>
<g id="Group_634">
<g id="Group_635">
<path id="Vector_408" d="M200.051 146.351H193.399V153.004H200.051V146.351Z" fill="white"/>
</g>
</g>
<g id="Group_636">
<g id="Group_637">
<path id="Vector_409" d="M206.719 146.351H200.066V153.004H206.719V146.351Z" fill="white"/>
</g>
</g>
<g id="Group_638">
<g id="Group_639">
<path id="Vector_410" d="M213.4 146.351H206.748V153.004H213.4V146.351Z" fill="white"/>
</g>
</g>
<g id="Group_640">
<g id="Group_641">
<path id="Vector_411" d="M220.007 146.351H213.355V153.004H220.007V146.351Z" fill="white"/>
</g>
</g>
<g id="Group_642">
<g id="Group_643">
<path id="Vector_412" d="M7.17158 152.996H0.519287V159.648H7.17158V152.996Z" fill="white"/>
</g>
</g>
<g id="Group_644">
<g id="Group_645">
<path id="Vector_413" d="M20.4754 152.996H13.8231V159.648H20.4754V152.996Z" fill="white"/>
</g>
</g>
<g id="Group_646">
<g id="Group_647">
<path id="Vector_414" d="M27.1868 152.996H20.5345V159.648H27.1868V152.996Z" fill="white"/>
</g>
</g>
<g id="Group_648">
<g id="Group_649">
<path id="Vector_415" d="M33.7797 152.996H27.1274V159.648H33.7797V152.996Z" fill="white"/>
</g>
</g>
<g id="Group_650">
<g id="Group_651">
<path id="Vector_416" d="M40.4316 152.996H33.7793V159.648H40.4316V152.996Z" fill="white"/>
</g>
</g>
<g id="Group_652">
<g id="Group_653">
<path id="Vector_417" d="M67.0404 152.996H60.3881V159.648H67.0404V152.996Z" fill="white"/>
</g>
</g>
<g id="Group_654">
<g id="Group_655">
<path id="Vector_418" d="M73.7067 152.996H67.0544V159.648H73.7067V152.996Z" fill="white"/>
</g>
</g>
<g id="Group_656">
<g id="Group_657">
<path id="Vector_419" d="M86.9665 152.996H80.3142V159.648H86.9665V152.996Z" fill="white"/>
</g>
</g>
<g id="Group_658">
<g id="Group_659">
<path id="Vector_420" d="M100.315 152.996H93.6626V159.648H100.315V152.996Z" fill="white"/>
</g>
</g>
<g id="Group_660">
<g id="Group_661">
<path id="Vector_421" d="M120.242 152.996H113.589V159.648H120.242V152.996Z" fill="white"/>
</g>
</g>
<g id="Group_662">
<g id="Group_663">
<path id="Vector_422" d="M153.532 152.996H146.88V159.648H153.532V152.996Z" fill="white"/>
</g>
</g>
<g id="Group_664">
<g id="Group_665">
<path id="Vector_423" d="M166.851 152.996H160.198V159.648H166.851V152.996Z" fill="white"/>
</g>
</g>
<g id="Group_666">
<g id="Group_667">
<path id="Vector_424" d="M173.458 152.996H166.806V159.648H173.458V152.996Z" fill="white"/>
</g>
</g>
<g id="Group_668">
<g id="Group_669">
<path id="Vector_425" d="M186.807 152.996H180.155V159.648H186.807V152.996Z" fill="white"/>
</g>
</g>
<g id="Group_670">
<g id="Group_671">
<path id="Vector_426" d="M206.719 152.996H200.066V159.648H206.719V152.996Z" fill="white"/>
</g>
</g>
<g id="Group_672">
<g id="Group_673">
<path id="Vector_427" d="M213.4 152.996H206.748V159.648H213.4V152.996Z" fill="white"/>
</g>
</g>
<g id="Group_674">
<g id="Group_675">
<path id="Vector_428" d="M220.007 152.996H213.355V159.648H220.007V152.996Z" fill="white"/>
</g>
</g>
<g id="Group_676">
<g id="Group_677">
<path id="Vector_429" d="M7.17158 159.648H0.519287V166.3H7.17158V159.648Z" fill="white"/>
</g>
</g>
<g id="Group_678">
<g id="Group_679">
<path id="Vector_430" d="M13.7789 159.648H7.12659V166.3H13.7789V159.648Z" fill="white"/>
</g>
</g>
<g id="Group_680">
<g id="Group_681">
<path id="Vector_431" d="M20.4754 159.648H13.8231V166.3H20.4754V159.648Z" fill="white"/>
</g>
</g>
<g id="Group_682">
<g id="Group_683">
<path id="Vector_432" d="M33.7797 159.648H27.1274V166.3H33.7797V159.648Z" fill="white"/>
</g>
</g>
<g id="Group_684">
<g id="Group_685">
<path id="Vector_433" d="M40.4316 159.648H33.7793V166.3H40.4316V159.648Z" fill="white"/>
</g>
</g>
<g id="Group_686">
<g id="Group_687">
<path id="Vector_434" d="M47.0251 159.648H40.3728V166.3H47.0251V159.648Z" fill="white"/>
</g>
</g>
<g id="Group_688">
<g id="Group_689">
<path id="Vector_435" d="M53.6915 159.648H47.0392V166.3H53.6915V159.648Z" fill="white"/>
</g>
</g>
<g id="Group_690">
<g id="Group_691">
<path id="Vector_436" d="M60.3289 159.648H53.6766V166.3H60.3289V159.648Z" fill="white"/>
</g>
</g>
<g id="Group_692">
<g id="Group_693">
<path id="Vector_437" d="M80.3592 159.648H73.7069V166.3H80.3592V159.648Z" fill="white"/>
</g>
</g>
<g id="Group_694">
<g id="Group_695">
<path id="Vector_438" d="M86.9665 159.648H80.3142V166.3H86.9665V159.648Z" fill="white"/>
</g>
</g>
<g id="Group_696">
<g id="Group_697">
<path id="Vector_439" d="M100.315 159.648H93.6626V166.3H100.315V159.648Z" fill="white"/>
</g>
</g>
<g id="Group_698">
<g id="Group_699">
<path id="Vector_440" d="M140.212 159.648H133.56V166.3H140.212V159.648Z" fill="white"/>
</g>
</g>
<g id="Group_700">
<g id="Group_701">
<path id="Vector_441" d="M160.139 159.648H153.487V166.3H160.139V159.648Z" fill="white"/>
</g>
</g>
<g id="Group_702">
<g id="Group_703">
<path id="Vector_442" d="M166.851 159.648H160.198V166.3H166.851V159.648Z" fill="white"/>
</g>
</g>
<g id="Group_704">
<g id="Group_705">
<path id="Vector_443" d="M173.458 159.648H166.806V166.3H173.458V159.648Z" fill="white"/>
</g>
</g>
<g id="Group_706">
<g id="Group_707">
<path id="Vector_444" d="M180.11 159.648H173.458V166.3H180.11V159.648Z" fill="white"/>
</g>
</g>
<g id="Group_708">
<g id="Group_709">
<path id="Vector_445" d="M186.807 159.648H180.155V166.3H186.807V159.648Z" fill="white"/>
</g>
</g>
<g id="Group_710">
<g id="Group_711">
<path id="Vector_446" d="M193.429 159.648H186.777V166.3H193.429V159.648Z" fill="white"/>
</g>
</g>
<g id="Group_712">
<g id="Group_713">
<path id="Vector_447" d="M200.051 159.648H193.399V166.3H200.051V159.648Z" fill="white"/>
</g>
</g>
<g id="Group_714">
<g id="Group_715">
<path id="Vector_448" d="M213.4 159.648H206.748V166.3H213.4V159.648Z" fill="white"/>
</g>
</g>
<g id="Group_716">
<g id="Group_717">
<path id="Vector_449" d="M60.3289 166.315H53.6766V172.967H60.3289V166.315Z" fill="white"/>
</g>
</g>
<g id="Group_718">
<g id="Group_719">
<path id="Vector_450" d="M80.3592 166.315H73.7069V172.967H80.3592V166.315Z" fill="white"/>
</g>
</g>
<g id="Group_720">
<g id="Group_721">
<path id="Vector_451" d="M86.9665 166.315H80.3142V172.967H86.9665V166.315Z" fill="white"/>
</g>
</g>
<g id="Group_722">
<g id="Group_723">
<path id="Vector_452" d="M93.663 166.315H87.0107V172.967H93.663V166.315Z" fill="white"/>
</g>
</g>
<g id="Group_724">
<g id="Group_725">
<path id="Vector_453" d="M100.315 166.315H93.6626V172.967H100.315V166.315Z" fill="white"/>
</g>
</g>
<g id="Group_726">
<g id="Group_727">
<path id="Vector_454" d="M106.982 166.315H100.33V172.967H106.982V166.315Z" fill="white"/>
</g>
</g>
<g id="Group_728">
<g id="Group_729">
<path id="Vector_455" d="M113.619 166.315H106.967V172.967H113.619V166.315Z" fill="white"/>
</g>
</g>
<g id="Group_730">
<g id="Group_731">
<path id="Vector_456" d="M120.242 166.315H113.589V172.967H120.242V166.315Z" fill="white"/>
</g>
</g>
<g id="Group_732">
<g id="Group_733">
<path id="Vector_457" d="M126.879 166.315H120.227V172.967H126.879V166.315Z" fill="white"/>
</g>
</g>
<g id="Group_734">
<g id="Group_735">
<path id="Vector_458" d="M140.212 166.315H133.56V172.967H140.212V166.315Z" fill="white"/>
</g>
</g>
<g id="Group_736">
<g id="Group_737">
<path id="Vector_459" d="M160.139 166.315H153.487V172.967H160.139V166.315Z" fill="white"/>
</g>
</g>
<g id="Group_738">
<g id="Group_739">
<path id="Vector_460" d="M166.851 166.315H160.198V172.967H166.851V166.315Z" fill="white"/>
</g>
</g>
<g id="Group_740">
<g id="Group_741">
<path id="Vector_461" d="M193.429 166.315H186.777V172.967H193.429V166.315Z" fill="white"/>
</g>
</g>
<g id="Group_742">
<g id="Group_743">
<path id="Vector_462" d="M206.719 166.315H200.066V172.967H206.719V166.315Z" fill="white"/>
</g>
</g>
<g id="Group_744">
<g id="Group_745">
<path id="Vector_463" d="M213.4 166.315H206.748V172.967H213.4V166.315Z" fill="white"/>
</g>
</g>
<g id="Group_746">
<g id="Group_747">
<path id="Vector_464" d="M60.3289 172.967H53.6766V179.619H60.3289V172.967Z" fill="white"/>
</g>
</g>
<g id="Group_748">
<g id="Group_749">
<path id="Vector_465" d="M80.3592 172.96H73.7069V179.612H80.3592V172.96Z" fill="white"/>
</g>
</g>
<g id="Group_750">
<g id="Group_751">
<path id="Vector_466" d="M86.9665 172.967H80.3142V179.619H86.9665V172.967Z" fill="white"/>
</g>
</g>
<g id="Group_752">
<g id="Group_753">
<path id="Vector_467" d="M93.663 172.967H87.0107V179.619H93.663V172.967Z" fill="white"/>
</g>
</g>
<g id="Group_754">
<g id="Group_755">
<path id="Vector_468" d="M100.315 172.967H93.6626V179.619H100.315V172.967Z" fill="white"/>
</g>
</g>
<g id="Group_756">
<g id="Group_757">
<path id="Vector_469" d="M106.982 172.967H100.33V179.619H106.982V172.967Z" fill="white"/>
</g>
</g>
<g id="Group_758">
<g id="Group_759">
<path id="Vector_470" d="M113.619 172.967H106.967V179.619H113.619V172.967Z" fill="white"/>
</g>
</g>
<g id="Group_760">
<g id="Group_761">
<path id="Vector_471" d="M126.879 172.967H120.227V179.619H126.879V172.967Z" fill="white"/>
</g>
</g>
<g id="Group_762">
<g id="Group_763">
<path id="Vector_472" d="M133.56 172.967H126.908V179.619H133.56V172.967Z" fill="white"/>
</g>
</g>
<g id="Group_764">
<g id="Group_765">
<path id="Vector_473" d="M140.212 172.967H133.56V179.619H140.212V172.967Z" fill="white"/>
</g>
</g>
<g id="Group_766">
<g id="Group_767">
<path id="Vector_474" d="M146.864 172.967H140.212V179.619H146.864V172.967Z" fill="white"/>
</g>
</g>
<g id="Group_768">
<g id="Group_769">
<path id="Vector_475" d="M160.139 172.967H153.487V179.619H160.139V172.967Z" fill="white"/>
</g>
</g>
<g id="Group_770">
<g id="Group_771">
<path id="Vector_476" d="M166.851 172.967H160.198V179.619H166.851V172.967Z" fill="white"/>
</g>
</g>
<g id="Group_772">
<g id="Group_773">
<path id="Vector_477" d="M180.11 172.967H173.458V179.619H180.11V172.967Z" fill="white"/>
</g>
</g>
<g id="Group_774">
<g id="Group_775">
<path id="Vector_478" d="M193.429 172.967H186.777V179.619H193.429V172.967Z" fill="white"/>
</g>
</g>
<g id="Group_776">
<g id="Group_777">
<path id="Vector_479" d="M206.719 172.967H200.066V179.619H206.719V172.967Z" fill="white"/>
</g>
</g>
<g id="Group_778">
<g id="Group_779">
<path id="Vector_480" d="M60.3289 179.619H53.6766V186.272H60.3289V179.619Z" fill="white"/>
</g>
</g>
<g id="Group_780">
<g id="Group_781">
<path id="Vector_481" d="M73.7067 179.619H67.0544V186.272H73.7067V179.619Z" fill="white"/>
</g>
</g>
<g id="Group_782">
<g id="Group_783">
<path id="Vector_482" d="M93.663 179.619H87.0107V186.272H93.663V179.619Z" fill="white"/>
</g>
</g>
<g id="Group_784">
<g id="Group_785">
<path id="Vector_483" d="M126.879 179.619H120.227V186.272H126.879V179.619Z" fill="white"/>
</g>
</g>
<g id="Group_786">
<g id="Group_787">
<path id="Vector_484" d="M133.56 179.619H126.908V186.272H133.56V179.619Z" fill="white"/>
</g>
</g>
<g id="Group_788">
<g id="Group_789">
<path id="Vector_485" d="M140.212 179.619H133.56V186.272H140.212V179.619Z" fill="white"/>
</g>
</g>
<g id="Group_790">
<g id="Group_791">
<path id="Vector_486" d="M160.139 179.619H153.487V186.272H160.139V179.619Z" fill="white"/>
</g>
</g>
<g id="Group_792">
<g id="Group_793">
<path id="Vector_487" d="M166.851 179.619H160.198V186.272H166.851V179.619Z" fill="white"/>
</g>
</g>
<g id="Group_794">
<g id="Group_795">
<path id="Vector_488" d="M193.429 179.619H186.777V186.272H193.429V179.619Z" fill="white"/>
</g>
</g>
<g id="Group_796">
<g id="Group_797">
<path id="Vector_489" d="M200.051 179.619H193.399V186.272H200.051V179.619Z" fill="white"/>
</g>
</g>
<g id="Group_798">
<g id="Group_799">
<path id="Vector_490" d="M206.719 179.619H200.066V186.272H206.719V179.619Z" fill="white"/>
</g>
</g>
<g id="Group_800">
<g id="Group_801">
<path id="Vector_491" d="M213.4 179.619H206.748V186.272H213.4V179.619Z" fill="white"/>
</g>
</g>
<g id="Group_802">
<g id="Group_803">
<path id="Vector_492" d="M220.007 179.619H213.355V186.272H220.007V179.619Z" fill="white"/>
</g>
</g>
<g id="Group_804">
<g id="Group_805">
<path id="Vector_493" d="M60.3289 186.264H53.6766V192.916H60.3289V186.264Z" fill="white"/>
</g>
</g>
<g id="Group_806">
<g id="Group_807">
<path id="Vector_494" d="M67.0404 186.264H60.3881V192.916H67.0404V186.264Z" fill="white"/>
</g>
</g>
<g id="Group_808">
<g id="Group_809">
<path id="Vector_495" d="M73.7067 186.264H67.0544V192.916H73.7067V186.264Z" fill="white"/>
</g>
</g>
<g id="Group_810">
<g id="Group_811">
<path id="Vector_496" d="M80.3592 186.264H73.7069V192.916H80.3592V186.264Z" fill="white"/>
</g>
</g>
<g id="Group_812">
<g id="Group_813">
<path id="Vector_497" d="M86.9665 186.264H80.3142V192.916H86.9665V186.264Z" fill="white"/>
</g>
</g>
<g id="Group_814">
<g id="Group_815">
<path id="Vector_498" d="M100.315 186.264H93.6626V192.916H100.315V186.264Z" fill="white"/>
</g>
</g>
<g id="Group_816">
<g id="Group_817">
<path id="Vector_499" d="M140.212 186.264H133.56V192.916H140.212V186.264Z" fill="white"/>
</g>
</g>
<g id="Group_818">
<g id="Group_819">
<path id="Vector_500" d="M153.532 186.264H146.88V192.916H153.532V186.264Z" fill="white"/>
</g>
</g>
<g id="Group_820">
<g id="Group_821">
<path id="Vector_501" d="M160.139 186.264H153.487V192.916H160.139V186.264Z" fill="white"/>
</g>
</g>
<g id="Group_822">
<g id="Group_823">
<path id="Vector_502" d="M166.851 186.264H160.198V192.916H166.851V186.264Z" fill="white"/>
</g>
</g>
<g id="Group_824">
<g id="Group_825">
<path id="Vector_503" d="M173.458 186.264H166.806V192.916H173.458V186.264Z" fill="white"/>
</g>
</g>
<g id="Group_826">
<g id="Group_827">
<path id="Vector_504" d="M180.11 186.264H173.458V192.916H180.11V186.264Z" fill="white"/>
</g>
</g>
<g id="Group_828">
<g id="Group_829">
<path id="Vector_505" d="M186.807 186.264H180.155V192.916H186.807V186.264Z" fill="white"/>
</g>
</g>
<g id="Group_830">
<g id="Group_831">
<path id="Vector_506" d="M193.429 186.264H186.777V192.916H193.429V186.264Z" fill="white"/>
</g>
</g>
<g id="Group_832">
<g id="Group_833">
<path id="Vector_507" d="M60.3289 192.916H53.6766V199.568H60.3289V192.916Z" fill="white"/>
</g>
</g>
<g id="Group_834">
<g id="Group_835">
<path id="Vector_508" d="M67.0404 192.916H60.3881V199.568H67.0404V192.916Z" fill="white"/>
</g>
</g>
<g id="Group_836">
<g id="Group_837">
<path id="Vector_509" d="M80.3592 192.916H73.7069V199.568H80.3592V192.916Z" fill="white"/>
</g>
</g>
<g id="Group_838">
<g id="Group_839">
<path id="Vector_510" d="M93.663 192.916H87.0107V199.568H93.663V192.916Z" fill="white"/>
</g>
</g>
<g id="Group_840">
<g id="Group_841">
<path id="Vector_511" d="M106.982 192.916H100.33V199.568H106.982V192.916Z" fill="white"/>
</g>
</g>
<g id="Group_842">
<g id="Group_843">
<path id="Vector_512" d="M120.242 192.916H113.589V199.568H120.242V192.916Z" fill="white"/>
</g>
</g>
<g id="Group_844">
<g id="Group_845">
<path id="Vector_513" d="M133.56 192.916H126.908V199.568H133.56V192.916Z" fill="white"/>
</g>
</g>
<g id="Group_846">
<g id="Group_847">
<path id="Vector_514" d="M140.212 192.916H133.56V199.568H140.212V192.916Z" fill="white"/>
</g>
</g>
<g id="Group_848">
<g id="Group_849">
<path id="Vector_515" d="M146.864 192.916H140.212V199.568H146.864V192.916Z" fill="white"/>
</g>
</g>
<g id="Group_850">
<g id="Group_851">
<path id="Vector_516" d="M153.532 192.916H146.88V199.568H153.532V192.916Z" fill="white"/>
</g>
</g>
<g id="Group_852">
<g id="Group_853">
<path id="Vector_517" d="M160.139 192.916H153.487V199.568H160.139V192.916Z" fill="white"/>
</g>
</g>
<g id="Group_854">
<g id="Group_855">
<path id="Vector_518" d="M166.851 192.916H160.198V199.568H166.851V192.916Z" fill="white"/>
</g>
</g>
<g id="Group_856">
<g id="Group_857">
<path id="Vector_519" d="M173.458 192.916H166.806V199.568H173.458V192.916Z" fill="white"/>
</g>
</g>
<g id="Group_858">
<g id="Group_859">
<path id="Vector_520" d="M186.807 192.916H180.155V199.568H186.807V192.916Z" fill="white"/>
</g>
</g>
<g id="Group_860">
<g id="Group_861">
<path id="Vector_521" d="M213.4 192.916H206.748V199.568H213.4V192.916Z" fill="white"/>
</g>
</g>
<g id="Group_862">
<g id="Group_863">
<path id="Vector_522" d="M220.007 192.916H213.355V199.568H220.007V192.916Z" fill="white"/>
</g>
</g>
<g id="Group_864">
<g id="Group_865">
<path id="Vector_523" d="M73.7067 199.568H67.0544V206.22H73.7067V199.568Z" fill="white"/>
</g>
</g>
<g id="Group_866">
<g id="Group_867">
<path id="Vector_524" d="M106.982 199.568H100.33V206.22H106.982V199.568Z" fill="white"/>
</g>
</g>
<g id="Group_868">
<g id="Group_869">
<path id="Vector_525" d="M113.619 199.568H106.967V206.22H113.619V199.568Z" fill="white"/>
</g>
</g>
<g id="Group_870">
<g id="Group_871">
<path id="Vector_526" d="M126.879 199.568H120.227V206.22H126.879V199.568Z" fill="white"/>
</g>
</g>
<g id="Group_872">
<g id="Group_873">
<path id="Vector_527" d="M133.56 199.568H126.908V206.22H133.56V199.568Z" fill="white"/>
</g>
</g>
<g id="Group_874">
<g id="Group_875">
<path id="Vector_528" d="M140.212 199.568H133.56V206.22H140.212V199.568Z" fill="white"/>
</g>
</g>
<g id="Group_876">
<g id="Group_877">
<path id="Vector_529" d="M146.864 199.568H140.212V206.22H146.864V199.568Z" fill="white"/>
</g>
</g>
<g id="Group_878">
<g id="Group_879">
<path id="Vector_530" d="M153.532 199.568H146.88V206.22H153.532V199.568Z" fill="white"/>
</g>
</g>
<g id="Group_880">
<g id="Group_881">
<path id="Vector_531" d="M160.139 199.568H153.487V206.22H160.139V199.568Z" fill="white"/>
</g>
</g>
<g id="Group_882">
<g id="Group_883">
<path id="Vector_532" d="M166.851 199.568H160.198V206.22H166.851V199.568Z" fill="white"/>
</g>
</g>
<g id="Group_884">
<g id="Group_885">
<path id="Vector_533" d="M186.807 199.568H180.155V206.22H186.807V199.568Z" fill="white"/>
</g>
</g>
<g id="Group_886">
<g id="Group_887">
<path id="Vector_534" d="M193.429 199.568H186.777V206.22H193.429V199.568Z" fill="white"/>
</g>
</g>
<g id="Group_888">
<g id="Group_889">
<path id="Vector_535" d="M206.719 199.568H200.066V206.22H206.719V199.568Z" fill="white"/>
</g>
</g>
<g id="Group_890">
<g id="Group_891">
<path id="Vector_536" d="M213.4 199.568H206.748V206.22H213.4V199.568Z" fill="white"/>
</g>
</g>
<g id="Group_892">
<g id="Group_893">
<path id="Vector_537" d="M220.007 199.568H213.355V206.22H220.007V199.568Z" fill="white"/>
</g>
</g>
<g id="Group_894">
<g id="Group_895">
<path id="Vector_538" d="M93.663 206.22H87.0107V212.872H93.663V206.22Z" fill="white"/>
</g>
</g>
<g id="Group_896">
<g id="Group_897">
<path id="Vector_539" d="M113.619 206.22H106.967V212.872H113.619V206.22Z" fill="white"/>
</g>
</g>
<g id="Group_898">
<g id="Group_899">
<path id="Vector_540" d="M133.56 206.22H126.908V212.872H133.56V206.22Z" fill="white"/>
</g>
</g>
<g id="Group_900">
<g id="Group_901">
<path id="Vector_541" d="M153.532 206.22H146.88V212.872H153.532V206.22Z" fill="white"/>
</g>
</g>
<g id="Group_902">
<g id="Group_903">
<path id="Vector_542" d="M186.807 206.22H180.155V212.872H186.807V206.22Z" fill="white"/>
</g>
</g>
<g id="Group_904">
<g id="Group_905">
<path id="Vector_543" d="M193.429 206.22H186.777V212.872H193.429V206.22Z" fill="white"/>
</g>
</g>
<g id="Group_906">
<g id="Group_907">
<path id="Vector_544" d="M200.051 206.22H193.399V212.872H200.051V206.22Z" fill="white"/>
</g>
</g>
<g id="Group_908">
<g id="Group_909">
<path id="Vector_545" d="M206.719 206.22H200.066V212.872H206.719V206.22Z" fill="white"/>
</g>
</g>
<g id="Group_910">
<g id="Group_911">
<path id="Vector_546" d="M213.4 206.22H206.748V212.872H213.4V206.22Z" fill="white"/>
</g>
</g>
<g id="Group_912">
<g id="Group_913">
<path id="Vector_547" d="M220.007 206.22H213.355V212.872H220.007V206.22Z" fill="white"/>
</g>
</g>
<g id="Group_914">
<g id="Group_915">
<path id="Vector_548" d="M60.3289 212.872H53.6766V219.524H60.3289V212.872Z" fill="white"/>
</g>
</g>
<g id="Group_916">
<g id="Group_917">
<path id="Vector_549" d="M67.0404 212.872H60.3881V219.524H67.0404V212.872Z" fill="white"/>
</g>
</g>
<g id="Group_918">
<g id="Group_919">
<path id="Vector_550" d="M80.3592 212.88H73.7069V219.532H80.3592V212.88Z" fill="white"/>
</g>
</g>
<g id="Group_920">
<g id="Group_921">
<path id="Vector_551" d="M106.982 212.872H100.33V219.524H106.982V212.872Z" fill="white"/>
</g>
</g>
<g id="Group_922">
<g id="Group_923">
<path id="Vector_552" d="M113.619 212.872H106.967V219.524H113.619V212.872Z" fill="white"/>
</g>
</g>
<g id="Group_924">
<g id="Group_925">
<path id="Vector_553" d="M120.242 212.872H113.589V219.524H120.242V212.872Z" fill="white"/>
</g>
</g>
<g id="Group_926">
<g id="Group_927">
<path id="Vector_554" d="M133.56 212.872H126.908V219.524H133.56V212.872Z" fill="white"/>
</g>
</g>
<g id="Group_928">
<g id="Group_929">
<path id="Vector_555" d="M160.139 212.872H153.487V219.524H160.139V212.872Z" fill="white"/>
</g>
</g>
<g id="Group_930">
<g id="Group_931">
<path id="Vector_556" d="M166.851 212.872H160.198V219.524H166.851V212.872Z" fill="white"/>
</g>
</g>
<g id="Group_932">
<g id="Group_933">
<path id="Vector_557" d="M180.11 212.872H173.458V219.524H180.11V212.872Z" fill="white"/>
</g>
</g>
<g id="Group_934">
<g id="Group_935">
<path id="Vector_558" d="M186.807 212.872H180.155V219.524H186.807V212.872Z" fill="white"/>
</g>
</g>
<g id="Group_936">
<g id="Group_937">
<path id="Vector_559" d="M193.429 212.872H186.777V219.524H193.429V212.872Z" fill="white"/>
</g>
</g>
<g id="Group_938">
<g id="Group_939">
<g id="Group_940">
<path id="Vector_560" d="M40.1004 -0.000976562H7.50419H0.519287V6.98393V39.5802V46.5651H7.50419H40.1004H47.0853V39.5802V6.98393V-0.000976562H40.1004ZM40.1004 39.5802H7.50419V6.98393H40.1004V39.5802Z" fill="white"/>
</g>
</g>
</g>
<g id="Group_941">
<g id="Group_942">
<g id="Group_943">
<path id="Vector_561" d="M213.083 -0.000976562H180.486H173.502V6.98393V39.5802V46.5651H180.486H213.083H220.068V39.5802V6.98393V-0.000976562H213.083ZM213.083 39.5802H180.486V6.98393H213.083V39.5802Z" fill="white"/>
</g>
</g>
</g>
<g id="Group_944">
<g id="Group_945">
<g id="Group_946">
<path id="Vector_562" d="M40.1004 172.968H7.50419H0.519287V179.952V212.549V219.534H7.50419H40.1004H47.0853V212.549V179.952V172.968H40.1004ZM40.1004 212.549H7.50419V179.952H40.1004V212.549Z" fill="white"/>
</g>
</g>
</g>
<g id="Group_947">
<g id="Group_948">
<path id="Vector_563" d="M33.78 13.3105H13.8231V33.2674H33.78V13.3105Z" fill="white"/>
</g>
</g>
<g id="Group_949">
<g id="Group_950">
<path id="Vector_564" d="M206.734 13.3105H186.777V33.2674H206.734V13.3105Z" fill="white"/>
</g>
</g>
<g id="Group_951">
<g id="Group_952">
<path id="Vector_565" d="M33.78 186.264H13.8231V206.221H33.78V186.264Z" fill="white"/>
</g>
</g>
</g>
</g>
</g>
</g>
</g>
</g>
</g>
<defs>
<clipPath id="clip0_5858_6374">
<rect width="1512" height="680" fill="white" transform="translate(-154 -198)"/>
</clipPath>
<clipPath id="clip1_5858_6374">
<rect width="40.5318" height="45.6346" fill="white" transform="matrix(0.98306 0.183284 -0.183409 0.983037 187.575 30.9656)"/>
</clipPath>
<clipPath id="clip2_5858_6374">
<rect width="18.9557" height="21.342" fill="white" transform="matrix(-0.236997 -0.97151 0.971482 -0.237111 0.745239 199.237)"/>
</clipPath>
</defs>
</svg>
